<?xml version="1.0" encoding="utf-8"?>
<!-- Generator: Adobe Illustrator 16.0.0, SVG Export Plug-In . SVG Version: 6.00 Build 0)  -->
<!DOCTYPE svg PUBLIC "-//W3C//DTD SVG 1.1//EN" "http://www.w3.org/Graphics/SVG/1.1/DTD/svg11.dtd">
<svg version="1.1" id="Layer_1" xmlns="http://www.w3.org/2000/svg" xmlns:xlink="http://www.w3.org/1999/xlink" x="0px" y="0px"
	 width="26.922px" height="26.645px" viewBox="0 0 26.922 26.645" enable-background="new 0 0 26.922 26.645" xml:space="preserve">
<g>
	<g>
		<path fill="#FFFFFF" d="M10.188,20.377C4.571,20.377,0,15.808,0,10.188C0,4.571,4.571,0,10.188,0
			c5.618,0,10.188,4.571,10.188,10.188C20.377,15.808,15.807,20.377,10.188,20.377z M10.188,1.664c-4.701,0-8.525,3.825-8.525,8.524
			c0,4.702,3.824,8.525,8.525,8.525c4.701,0,8.525-3.823,8.525-8.525C18.714,5.488,14.89,1.664,10.188,1.664z"/>
	</g>
	<g>
		<path fill="#FFFFFF" d="M4.166,7.034c-0.072,0-0.146-0.018-0.212-0.058C3.756,6.86,3.691,6.604,3.809,6.406
			c1.331-2.242,3.776-3.634,6.38-3.634c0.23,0,0.417,0.187,0.417,0.417c0,0.229-0.187,0.415-0.417,0.415
			c-2.312,0-4.482,1.238-5.665,3.229C4.446,6.962,4.308,7.034,4.166,7.034z"/>
	</g>
	<g>
		<path fill="#FFFFFF" d="M3.188,10.36c-0.229,0-0.416-0.186-0.416-0.416c0-0.59,0.07-0.919,0.194-1.451
			c0.053-0.223,0.276-0.361,0.5-0.31C3.69,8.237,3.83,8.46,3.777,8.684C3.66,9.183,3.604,9.443,3.604,9.945
			C3.604,10.174,3.418,10.36,3.188,10.36z"/>
	</g>
	<g>
		<path fill="#FFFFFF" d="M24.428,26.645c-0.667,0-1.294-0.26-1.766-0.729l-6.713-6.713c-0.521-0.521-0.691-1.166-0.482-1.813
			c0.171-0.527,0.57-0.974,0.898-1.302c0.487-0.486,1.087-0.985,1.839-0.985c0.322,0,0.804,0.099,1.274,0.569l6.714,6.713
			c0.47,0.472,0.729,1.099,0.729,1.766c0,0.666-0.26,1.293-0.729,1.765C25.72,26.385,25.094,26.645,24.428,26.645z M17.044,17.929
			c0.002,0,0.024,0.037,0.082,0.096l6.713,6.713c0.314,0.314,0.862,0.314,1.177,0c0.157-0.156,0.243-0.364,0.243-0.587
			s-0.086-0.433-0.244-0.589l-6.713-6.713c-0.059-0.059-0.099-0.081-0.108-0.084c-0.006,0.002-0.177,0.025-0.651,0.5
			S17.044,17.91,17.044,17.929C17.044,17.929,17.044,17.929,17.044,17.929z"/>
	</g>
</g>
</svg>
