<?xml version="1.0" encoding="utf-8"?>
<!-- Generator: Adobe Illustrator 16.0.0, SVG Export Plug-In . SVG Version: 6.00 Build 0)  -->
<!DOCTYPE svg PUBLIC "-//W3C//DTD SVG 1.1//EN" "http://www.w3.org/Graphics/SVG/1.1/DTD/svg11.dtd">
<svg version="1.1" id="Layer_1" xmlns="http://www.w3.org/2000/svg" xmlns:xlink="http://www.w3.org/1999/xlink" x="0px" y="0px"
	 width="181px" height="42.527px" viewBox="0 0 181 42.527" enable-background="new 0 0 181 42.527" xml:space="preserve">
<path fill="#FFFFFF" d="M10.699,0.348c0-0.119,0.108-0.229,0.228-0.229h0.48c0.12,0,0.228,0.108,0.228,0.229v7.938
	c0,0.121-0.108,0.229-0.228,0.229h-0.48c-0.12,0-0.228-0.107-0.228-0.229V0.348z"/>
<path fill="#FFFFFF" d="M15.031,0.168C15.055,0.072,15.15,0,15.247,0h0.192c0.084,0,0.18,0.062,0.204,0.133l2.375,6.607
	c0.024,0,0.036,0,0.06,0l2.338-6.607C20.44,0.061,20.536,0,20.62,0h0.192c0.096,0,0.192,0.072,0.216,0.168l1.547,8.061
	c0.036,0.168-0.036,0.288-0.216,0.288h-0.48c-0.096,0-0.192-0.084-0.216-0.168l-1.067-6.178c-0.012,0-0.036,0-0.048,0l-2.207,6.333
	c-0.024,0.072-0.132,0.133-0.204,0.133h-0.216c-0.072,0-0.18-0.061-0.204-0.133l-2.231-6.333c-0.012,0-0.036,0-0.048,0l-1.043,6.178
	c-0.012,0.084-0.12,0.168-0.216,0.168h-0.48c-0.18,0-0.251-0.12-0.216-0.288L15.031,0.168z"/>
<path fill="#FFFFFF" d="M24.427,0.348c0-0.119,0.096-0.229,0.228-0.229h2.65c1.476,0,2.687,1.199,2.687,2.651
	c0,1.485-1.211,2.697-2.674,2.697h-1.979v2.817c0,0.121-0.108,0.229-0.228,0.229h-0.456c-0.132,0-0.228-0.107-0.228-0.229V0.348z
	 M27.246,4.582c0.983,0,1.823-0.804,1.823-1.836c0-0.971-0.839-1.715-1.823-1.715h-1.907v3.551H27.246z"/>
<path fill="#FFFFFF" d="M31.579,0.348c0-0.119,0.096-0.229,0.228-0.229h4.726c0.132,0,0.228,0.108,0.228,0.229v0.348
	c0,0.121-0.096,0.229-0.228,0.229h-4.03V3.85h3.442c0.12,0,0.228,0.107,0.228,0.229v0.349c0,0.132-0.108,0.229-0.228,0.229h-3.442
	v3.058h4.03c0.132,0,0.228,0.108,0.228,0.229V8.29c0,0.121-0.096,0.229-0.228,0.229h-4.726c-0.132,0-0.228-0.107-0.228-0.229V0.348z
	"/>
<path fill="#FFFFFF" d="M38.683,0.348c0-0.119,0.096-0.229,0.228-0.229h3.106c1.439,0,2.614,1.128,2.614,2.555
	c0,1.104-0.731,2.026-1.775,2.446L44.5,8.168c0.084,0.156,0,0.349-0.204,0.349h-0.612c-0.108,0-0.168-0.062-0.192-0.107L41.897,5.23
	h-2.291v3.058c0,0.121-0.108,0.229-0.228,0.229H38.91c-0.132,0-0.228-0.107-0.228-0.229L38.683,0.348L38.683,0.348z M41.958,4.438
	c0.923,0,1.727-0.769,1.727-1.75c0-0.912-0.804-1.691-1.727-1.691h-2.327v3.441H41.958z"/>
<path fill="#FFFFFF" d="M46.615,0.348c0-0.119,0.108-0.229,0.228-0.229h0.48c0.12,0,0.228,0.108,0.228,0.229v7.938
	c0,0.121-0.108,0.229-0.228,0.229h-0.48c-0.12,0-0.228-0.107-0.228-0.229V0.348z"/>
<path fill="#FFFFFF" d="M48.848,8.203l3.646-8.07C52.53,0.061,52.589,0,52.698,0h0.12c0.107,0,0.168,0.062,0.204,0.133l3.622,8.07
	c0.071,0.156-0.024,0.313-0.204,0.313h-0.48c-0.107,0-0.18-0.072-0.203-0.133l-0.888-1.979h-4.258l-0.875,1.979
	c-0.024,0.061-0.097,0.133-0.205,0.133h-0.479C48.872,8.516,48.776,8.359,48.848,8.203z M54.544,5.661
	c-0.588-1.308-1.163-2.626-1.751-3.934h-0.096l-1.751,3.934H54.544z"/>
<path fill="#FFFFFF" d="M57.956,0.348c0-0.119,0.096-0.229,0.228-0.229h0.468c0.12,0,0.228,0.108,0.228,0.229v7.363h3.454
	c0.132,0,0.229,0.108,0.229,0.229v0.348c0,0.121-0.097,0.229-0.229,0.229h-4.149c-0.132,0-0.228-0.107-0.228-0.229L57.956,0.348
	L57.956,0.348z"/>
<path fill="#FFFFFF" d="M63.847,0.348c0-0.119,0.107-0.229,0.228-0.229h0.479c0.12,0,0.229,0.108,0.229,0.229v7.938
	c0,0.121-0.108,0.229-0.229,0.229h-0.479c-0.12,0-0.228-0.107-0.228-0.229V0.348z"/>
<path fill="#FFFFFF" d="M66.691,7.256c0.06-0.07,0.12-0.154,0.18-0.228c0.12-0.155,0.252-0.252,0.42-0.108
	c0.084,0.072,0.96,0.912,2.027,0.912c0.971,0,1.606-0.61,1.606-1.318c0-0.827-0.72-1.319-2.099-1.896
	c-1.319-0.575-2.11-1.115-2.11-2.481C66.715,1.319,67.363,0,69.269,0c1.176,0,2.052,0.611,2.052,0.611
	c0.071,0.037,0.216,0.181,0.071,0.408c-0.048,0.071-0.096,0.155-0.144,0.229c-0.108,0.168-0.228,0.215-0.42,0.107
	c-0.084-0.048-0.84-0.552-1.571-0.552c-1.271,0-1.655,0.814-1.655,1.318c0,0.805,0.612,1.271,1.619,1.691
	c1.619,0.659,2.663,1.271,2.663,2.662c0,1.248-1.188,2.158-2.591,2.158c-1.415,0-2.375-0.826-2.53-0.972
	C66.667,7.58,66.547,7.484,66.691,7.256z"/>
<path fill="#FFFFFF" d="M74.575,0.168C74.598,0.072,74.695,0,74.791,0h0.191c0.084,0,0.181,0.062,0.204,0.133l2.375,6.607
	c0.024,0,0.036,0,0.06,0l2.339-6.607C79.984,0.061,80.08,0,80.164,0h0.191c0.097,0,0.192,0.072,0.217,0.168l1.547,8.061
	c0.036,0.168-0.036,0.288-0.216,0.288h-0.479c-0.097,0-0.192-0.084-0.217-0.168L80.14,2.171c-0.012,0-0.035,0-0.048,0l-2.206,6.333
	c-0.024,0.072-0.133,0.133-0.204,0.133h-0.216c-0.072,0-0.181-0.061-0.204-0.133l-2.23-6.333c-0.013,0-0.036,0-0.049,0L73.94,8.348
	c-0.012,0.084-0.12,0.168-0.216,0.168h-0.479c-0.181,0-0.252-0.12-0.216-0.288L74.575,0.168z"/>
<g>
	<path fill="#FFFFFF" d="M146.623,25.684h-2.135v2.914h2.135c0.779,0,1.463-0.659,1.463-1.486
		C148.085,26.331,147.402,25.684,146.623,25.684z"/>
	<path fill="#FFFFFF" d="M48.477,25.66h-1.583v6.116h1.583c1.763,0,3.046-1.296,3.046-3.07C51.523,26.943,50.24,25.66,48.477,25.66z
		"/>
	<path fill="#FFFFFF" d="M102.318,25.6c-1.702,0-3.105,1.428-3.105,3.131c0,1.715,1.403,3.104,3.105,3.104
		c1.716,0,3.119-1.391,3.119-3.104C105.438,27.027,104.034,25.6,102.318,25.6z"/>
	<polygon fill="#FFFFFF" points="71.864,26.775 70.401,30.061 73.399,30.061 71.925,26.775 	"/>
	<polygon fill="#FFFFFF" points="165.907,26.775 164.443,30.061 167.441,30.061 165.967,26.775 	"/>
	<path fill="#FFFFFF" d="M0,15.027v27.5h181v-27.5H0z M17.624,29.785c0,1.823-1.379,3.25-3.274,3.25c-1.883,0-3.25-1.427-3.25-3.25
		v-5.037c0-0.12,0.108-0.229,0.228-0.229h0.804c0.132,0,0.228,0.107,0.228,0.229v4.953c0,1.199,0.768,2.135,1.991,2.135
		c1.235,0,2.015-0.924,2.015-2.11v-4.978c0-0.12,0.096-0.229,0.228-0.229h0.804c0.12,0,0.228,0.107,0.228,0.229v5.037H17.624z
		 M26.815,32.819c0,0.12-0.108,0.216-0.228,0.216h-0.312l-5.205-6.188h-0.012v5.841c0,0.12-0.096,0.229-0.228,0.229h-0.756
		c-0.12,0-0.228-0.107-0.228-0.229v-8.071c0-0.12,0.108-0.216,0.228-0.216h0.3l5.205,6.021h0.012v-5.673
		c0-0.12,0.096-0.229,0.228-0.229h0.768c0.12,0,0.228,0.107,0.228,0.229V32.819z M30.395,32.688c0,0.12-0.108,0.229-0.228,0.229
		h-0.792c-0.12,0-0.228-0.107-0.228-0.229v-7.939c0-0.12,0.108-0.229,0.228-0.229h0.792c0.12,0,0.228,0.107,0.228,0.229V32.688z
		 M37.304,25.42c0,0.119-0.096,0.229-0.228,0.229h-1.955v7.04c0,0.12-0.108,0.229-0.228,0.229h-0.792
		c-0.12,0-0.228-0.107-0.228-0.229v-7.04h-1.955c-0.132,0-0.228-0.108-0.228-0.229v-0.672c0-0.12,0.096-0.229,0.228-0.229h5.157
		c0.132,0,0.228,0.107,0.228,0.229L37.304,25.42L37.304,25.42z M43.856,25.42c0,0.119-0.096,0.229-0.228,0.229h-3.79v2.446h3.203
		c0.12,0,0.228,0.107,0.228,0.229v0.672c0,0.131-0.108,0.229-0.228,0.229h-3.203v2.579h3.79c0.132,0,0.228,0.106,0.228,0.227v0.66
		c0,0.12-0.096,0.229-0.228,0.229h-4.797c-0.132,0-0.228-0.107-0.228-0.229V24.75c0-0.12,0.096-0.229,0.228-0.229h4.797
		c0.132,0,0.228,0.107,0.228,0.229V25.42z M48.645,32.916h-2.758c-0.12,0-0.216-0.107-0.216-0.229v-7.939
		c0-0.12,0.096-0.229,0.216-0.229h2.758c2.315,0,4.209,1.884,4.209,4.187C52.854,31.033,50.96,32.916,48.645,32.916z M59.338,33.035
		c-1.464,0-2.387-0.768-2.579-0.947c-0.107-0.096-0.191-0.18-0.071-0.384c0.107-0.155,0.203-0.336,0.312-0.491
		c0.107-0.155,0.275-0.204,0.408-0.096c0.071,0.059,0.995,0.826,1.918,0.826c0.828,0,1.355-0.503,1.355-1.115
		c0-0.719-0.623-1.175-1.811-1.666c-1.224-0.516-2.183-1.151-2.183-2.543c0-0.936,0.72-2.219,2.626-2.219
		c1.199,0,2.099,0.623,2.219,0.707c0.096,0.061,0.192,0.229,0.072,0.408c-0.096,0.145-0.204,0.313-0.3,0.455
		c-0.096,0.155-0.252,0.229-0.42,0.12c-0.084-0.049-0.924-0.6-1.619-0.6c-1.008,0-1.355,0.635-1.355,1.078
		c0,0.685,0.528,1.104,1.523,1.512c1.392,0.564,2.579,1.225,2.579,2.688C62.013,32.016,60.896,33.035,59.338,33.035z M66.069,32.688
		c0,0.12-0.108,0.229-0.229,0.229h-0.79c-0.12,0-0.229-0.107-0.229-0.229v-7.04h-1.955c-0.132,0-0.228-0.108-0.228-0.229v-0.672
		c0-0.12,0.096-0.229,0.228-0.229h5.157c0.132,0,0.229,0.107,0.229,0.229v0.672c0,0.119-0.097,0.229-0.229,0.229h-1.954V32.688z
		 M75.631,32.916h-0.756c-0.145,0-0.228-0.071-0.276-0.18l-0.743-1.645h-3.922c-0.24,0.553-0.492,1.092-0.731,1.645
		c-0.036,0.083-0.132,0.18-0.276,0.18h-0.755c-0.181,0-0.276-0.155-0.204-0.313l3.682-8.071c0.036-0.072,0.145-0.132,0.204-0.132
		h0.12c0.06,0,0.168,0.06,0.204,0.132l3.657,8.071C75.906,32.76,75.811,32.916,75.631,32.916z M81.176,25.42
		c0,0.119-0.097,0.229-0.229,0.229h-1.954v7.04c0,0.12-0.108,0.229-0.229,0.229h-0.791c-0.12,0-0.229-0.107-0.229-0.229v-7.04H75.79
		c-0.132,0-0.228-0.108-0.228-0.229v-0.672c0-0.12,0.096-0.229,0.228-0.229h5.157c0.132,0,0.229,0.107,0.229,0.229V25.42z
		 M87.727,25.42c0,0.119-0.096,0.229-0.228,0.229h-3.79v2.446h3.202c0.12,0,0.229,0.107,0.229,0.229v0.672
		c0,0.131-0.108,0.229-0.229,0.229h-3.202v2.579h3.79c0.132,0,0.228,0.106,0.228,0.227v0.66c0,0.12-0.096,0.229-0.228,0.229h-4.797
		c-0.132,0-0.229-0.107-0.229-0.229V24.75c0-0.12,0.097-0.229,0.229-0.229h4.797c0.132,0,0.228,0.107,0.228,0.229V25.42z
		 M91.652,33.035c-1.463,0-2.385-0.768-2.578-0.947c-0.107-0.096-0.191-0.18-0.071-0.384c0.107-0.155,0.203-0.336,0.312-0.491
		c0.107-0.155,0.275-0.204,0.407-0.096c0.072,0.059,0.996,0.826,1.918,0.826c0.827,0,1.354-0.503,1.354-1.115
		c0-0.719-0.623-1.175-1.812-1.666c-1.223-0.516-2.182-1.151-2.182-2.543c0-0.936,0.719-2.219,2.625-2.219
		c1.199,0,2.1,0.623,2.219,0.707c0.098,0.061,0.192,0.229,0.072,0.408c-0.096,0.145-0.204,0.313-0.3,0.455
		c-0.097,0.155-0.252,0.229-0.421,0.12c-0.084-0.049-0.924-0.6-1.618-0.6c-1.008,0-1.355,0.635-1.355,1.078
		c0,0.685,0.528,1.104,1.523,1.512c1.392,0.564,2.578,1.225,2.578,2.688C94.327,32.016,93.211,33.035,91.652,33.035z
		 M102.318,33.035c-2.397,0-4.305-1.906-4.305-4.305c0-2.399,1.906-4.33,4.305-4.33c2.399,0,4.318,1.931,4.318,4.33
		C106.637,31.129,104.717,33.035,102.318,33.035z M113.609,25.42c0,0.119-0.096,0.229-0.228,0.229h-3.79v2.771h3.202
		c0.12,0,0.229,0.107,0.229,0.229v0.659c0,0.12-0.108,0.228-0.229,0.228h-3.202v3.154c0,0.12-0.107,0.229-0.229,0.229h-0.778
		c-0.132,0-0.229-0.107-0.229-0.229V24.75c0-0.12,0.098-0.229,0.229-0.229h4.797c0.132,0,0.228,0.107,0.228,0.229V25.42z
		 M124.326,32.916h-0.756c-0.146,0-0.229-0.071-0.276-0.18l-0.743-1.645h-3.922c-0.24,0.553-0.492,1.092-0.73,1.645
		c-0.037,0.083-0.133,0.18-0.276,0.18h-0.755c-0.182,0-0.276-0.155-0.204-0.313l3.683-8.071c0.035-0.072,0.145-0.132,0.203-0.132
		h0.12c0.06,0,0.168,0.06,0.204,0.132l3.656,8.071C124.602,32.76,124.505,32.916,124.326,32.916z M134.175,32.916h-0.778
		c-0.108,0-0.205-0.084-0.229-0.168l-0.889-5.36c-0.012,0-0.035,0-0.035,0l-2.159,5.517c-0.022,0.072-0.097,0.132-0.203,0.132
		h-0.216c-0.098,0-0.182-0.06-0.204-0.132l-2.171-5.517c-0.012,0-0.036,0-0.048,0l-0.864,5.36c-0.012,0.084-0.119,0.168-0.216,0.168
		h-0.779c-0.168,0-0.252-0.107-0.228-0.275l1.486-8.061c0.023-0.096,0.119-0.18,0.217-0.18h0.19c0.072,0,0.181,0.06,0.204,0.132
		l2.508,6.128h0.047l2.494-6.128c0.024-0.072,0.12-0.132,0.204-0.132h0.192c0.096,0,0.191,0.084,0.216,0.18l1.476,8.061
		C134.428,32.808,134.343,32.916,134.175,32.916z M141.414,25.42c0,0.119-0.096,0.229-0.229,0.229h-3.789v2.446h3.201
		c0.12,0,0.229,0.107,0.229,0.229v0.672c0,0.131-0.108,0.229-0.229,0.229h-3.201v2.579h3.789c0.133,0,0.229,0.106,0.229,0.227v0.66
		c0,0.12-0.096,0.229-0.229,0.229h-4.797c-0.132,0-0.229-0.107-0.229-0.229V24.75c0-0.12,0.097-0.229,0.229-0.229h4.797
		c0.133,0,0.229,0.107,0.229,0.229V25.42z M149.201,32.568c0.084,0.155,0,0.348-0.203,0.348h-0.936
		c-0.098,0-0.168-0.061-0.192-0.107l-1.595-3.18h-1.813v3.06c0,0.12-0.107,0.229-0.229,0.229h-0.778
		c-0.132,0-0.229-0.107-0.229-0.229v-7.939c0-0.12,0.098-0.229,0.229-0.229h3.262c1.438,0,2.614,1.141,2.614,2.566
		c0,1.104-0.73,2.016-1.773,2.436L149.201,32.568z M152.457,32.688c0,0.12-0.107,0.229-0.229,0.229h-0.791
		c-0.121,0-0.229-0.107-0.229-0.229v-7.939c0-0.12,0.108-0.229,0.229-0.229h0.791c0.119,0,0.229,0.107,0.229,0.229V32.688z
		 M161.417,31.872c-0.815,0.792-1.849,1.163-2.915,1.163c-2.398,0-4.329-1.906-4.329-4.305c0-2.399,1.931-4.33,4.329-4.33
		c1.212,0,2.087,0.408,2.902,1.115c0.107,0.096,0.107,0.239,0.013,0.336l-0.528,0.539c-0.084,0.107-0.19,0.107-0.3,0
		c-0.563-0.491-1.331-0.804-2.073-0.804c-1.716,0-3.012,1.439-3.012,3.118s1.309,3.106,3.021,3.106c0.877,0,1.488-0.349,2.063-0.792
		c0.108-0.084,0.216-0.071,0.288-0.013l0.553,0.54C161.523,31.633,161.5,31.788,161.417,31.872z M169.673,32.916h-0.756
		c-0.146,0-0.228-0.071-0.276-0.18l-0.742-1.645h-3.922c-0.24,0.553-0.492,1.092-0.731,1.645c-0.036,0.083-0.132,0.18-0.276,0.18
		h-0.755c-0.181,0-0.276-0.155-0.204-0.313l3.682-8.071c0.037-0.072,0.146-0.132,0.205-0.132h0.119c0.061,0,0.168,0.06,0.205,0.132
		l3.656,8.071C169.949,32.76,169.854,32.916,169.673,32.916z"/>
	<polygon fill="#FFFFFF" points="120.559,26.775 119.096,30.061 122.094,30.061 120.62,26.775 	"/>
</g>
</svg>
