<?xml version="1.0" encoding="utf-8"?>
<!-- Generator: Adobe Illustrator 16.0.0, SVG Export Plug-In . SVG Version: 6.00 Build 0)  -->
<!DOCTYPE svg PUBLIC "-//W3C//DTD SVG 1.1//EN" "http://www.w3.org/Graphics/SVG/1.1/DTD/svg11.dtd">
<svg version="1.1" id="Layer_1" xmlns="http://www.w3.org/2000/svg" xmlns:xlink="http://www.w3.org/1999/xlink" x="0px" y="0px"
	 width="181px" height="42.443px" viewBox="0 0 181 42.443" enable-background="new 0 0 181 42.443" xml:space="preserve">
<g>
	<path fill="#FFFFFF" d="M146.623,25.6h-2.135v2.914h2.135c0.779,0,1.463-0.659,1.463-1.486
		C148.085,26.247,147.402,25.6,146.623,25.6z"/>
	<path fill="#FFFFFF" d="M48.477,25.576h-1.583v6.116h1.583c1.763,0,3.046-1.296,3.046-3.07
		C51.523,26.859,50.24,25.576,48.477,25.576z"/>
	<path fill="#FFFFFF" d="M102.318,25.516c-1.702,0-3.105,1.428-3.105,3.131c0,1.715,1.403,3.104,3.105,3.104
		c1.716,0,3.119-1.391,3.119-3.104C105.438,26.943,104.034,25.516,102.318,25.516z"/>
	<polygon fill="#FFFFFF" points="71.864,26.691 70.401,29.977 73.399,29.977 71.925,26.691 	"/>
	<polygon fill="#FFFFFF" points="165.907,26.691 164.443,29.977 167.441,29.977 165.967,26.691 	"/>
	<path fill="#FFFFFF" d="M0,14.943v27.5h181v-27.5H0z M17.624,29.701c0,1.823-1.379,3.25-3.274,3.25c-1.883,0-3.25-1.427-3.25-3.25
		v-5.037c0-0.12,0.108-0.229,0.228-0.229h0.804c0.132,0,0.228,0.107,0.228,0.229v4.953c0,1.199,0.768,2.135,1.991,2.135
		c1.235,0,2.015-0.924,2.015-2.11v-4.978c0-0.12,0.096-0.229,0.228-0.229h0.804c0.12,0,0.228,0.107,0.228,0.229v5.037H17.624z
		 M26.815,32.735c0,0.12-0.108,0.216-0.228,0.216h-0.312l-5.205-6.188h-0.012v5.841c0,0.12-0.096,0.229-0.228,0.229h-0.756
		c-0.12,0-0.228-0.107-0.228-0.229v-8.071c0-0.12,0.108-0.216,0.228-0.216h0.3l5.205,6.021h0.012v-5.673
		c0-0.12,0.096-0.229,0.228-0.229h0.768c0.12,0,0.228,0.107,0.228,0.229V32.735z M30.395,32.604c0,0.12-0.108,0.229-0.228,0.229
		h-0.792c-0.12,0-0.228-0.107-0.228-0.229v-7.939c0-0.12,0.108-0.229,0.228-0.229h0.792c0.12,0,0.228,0.107,0.228,0.229V32.604z
		 M37.304,25.336c0,0.119-0.096,0.229-0.228,0.229h-1.955v7.04c0,0.12-0.108,0.229-0.228,0.229h-0.792
		c-0.12,0-0.228-0.107-0.228-0.229v-7.04h-1.955c-0.132,0-0.228-0.108-0.228-0.229v-0.672c0-0.12,0.096-0.229,0.228-0.229h5.157
		c0.132,0,0.228,0.107,0.228,0.229L37.304,25.336L37.304,25.336z M43.856,25.336c0,0.119-0.096,0.229-0.228,0.229h-3.79v2.445h3.203
		c0.12,0,0.228,0.108,0.228,0.229v0.672c0,0.131-0.108,0.229-0.228,0.229h-3.203v2.578h3.79c0.132,0,0.228,0.107,0.228,0.228v0.66
		c0,0.12-0.096,0.229-0.228,0.229h-4.797c-0.132,0-0.228-0.107-0.228-0.229v-7.939c0-0.12,0.096-0.229,0.228-0.229h4.797
		c0.132,0,0.228,0.107,0.228,0.229V25.336z M48.645,32.832h-2.758c-0.12,0-0.216-0.107-0.216-0.229v-7.939
		c0-0.12,0.096-0.229,0.216-0.229h2.758c2.315,0,4.209,1.884,4.209,4.187C52.854,30.949,50.96,32.832,48.645,32.832z M59.338,32.951
		c-1.464,0-2.387-0.768-2.579-0.947c-0.107-0.096-0.191-0.18-0.071-0.384c0.107-0.155,0.203-0.336,0.312-0.491
		c0.107-0.155,0.275-0.204,0.408-0.096c0.071,0.059,0.995,0.826,1.918,0.826c0.828,0,1.355-0.503,1.355-1.115
		c0-0.719-0.623-1.175-1.811-1.666c-1.224-0.516-2.183-1.152-2.183-2.543c0-0.936,0.72-2.219,2.626-2.219
		c1.199,0,2.099,0.623,2.219,0.707c0.096,0.061,0.192,0.229,0.072,0.408c-0.096,0.145-0.204,0.313-0.3,0.454
		c-0.096,0.156-0.252,0.229-0.42,0.121c-0.084-0.049-0.924-0.6-1.619-0.6c-1.008,0-1.355,0.635-1.355,1.078
		c0,0.685,0.528,1.104,1.523,1.512c1.392,0.564,2.579,1.225,2.579,2.688C62.013,31.932,60.896,32.951,59.338,32.951z M66.069,32.604
		c0,0.12-0.108,0.229-0.229,0.229h-0.79c-0.12,0-0.229-0.107-0.229-0.229v-7.04h-1.955c-0.132,0-0.228-0.108-0.228-0.229v-0.672
		c0-0.12,0.096-0.229,0.228-0.229h5.157c0.132,0,0.229,0.107,0.229,0.229v0.672c0,0.119-0.097,0.229-0.229,0.229h-1.954V32.604z
		 M75.631,32.832h-0.756c-0.145,0-0.228-0.072-0.276-0.18l-0.743-1.645h-3.922c-0.24,0.553-0.492,1.092-0.731,1.645
		c-0.036,0.083-0.132,0.18-0.276,0.18h-0.755c-0.181,0-0.276-0.156-0.204-0.313l3.682-8.071c0.036-0.072,0.145-0.132,0.204-0.132
		h0.12c0.06,0,0.168,0.06,0.204,0.132l3.657,8.071C75.906,32.676,75.811,32.832,75.631,32.832z M81.176,25.336
		c0,0.119-0.097,0.229-0.229,0.229h-1.954v7.04c0,0.12-0.108,0.229-0.229,0.229h-0.791c-0.12,0-0.229-0.107-0.229-0.229v-7.04H75.79
		c-0.132,0-0.228-0.108-0.228-0.229v-0.672c0-0.12,0.096-0.229,0.228-0.229h5.157c0.132,0,0.229,0.107,0.229,0.229V25.336z
		 M87.727,25.336c0,0.119-0.096,0.229-0.228,0.229h-3.79v2.445h3.202c0.12,0,0.229,0.108,0.229,0.229v0.672
		c0,0.131-0.108,0.229-0.229,0.229h-3.202v2.578h3.79c0.132,0,0.228,0.107,0.228,0.228v0.66c0,0.12-0.096,0.229-0.228,0.229h-4.797
		c-0.132,0-0.229-0.107-0.229-0.229v-7.939c0-0.12,0.097-0.229,0.229-0.229h4.797c0.132,0,0.228,0.107,0.228,0.229V25.336z
		 M91.652,32.951c-1.463,0-2.385-0.768-2.578-0.947c-0.107-0.096-0.191-0.18-0.071-0.384c0.107-0.155,0.203-0.336,0.312-0.491
		c0.107-0.155,0.275-0.204,0.407-0.096c0.072,0.059,0.996,0.826,1.918,0.826c0.827,0,1.354-0.503,1.354-1.115
		c0-0.719-0.623-1.175-1.812-1.666c-1.223-0.516-2.182-1.152-2.182-2.543c0-0.936,0.719-2.219,2.625-2.219
		c1.199,0,2.1,0.623,2.219,0.707c0.098,0.061,0.192,0.229,0.072,0.408c-0.096,0.145-0.204,0.313-0.3,0.454
		c-0.097,0.156-0.252,0.229-0.421,0.121c-0.084-0.049-0.924-0.6-1.618-0.6c-1.008,0-1.355,0.635-1.355,1.078
		c0,0.685,0.528,1.104,1.523,1.512c1.392,0.564,2.578,1.225,2.578,2.688C94.327,31.932,93.211,32.951,91.652,32.951z
		 M102.318,32.951c-2.397,0-4.305-1.906-4.305-4.305c0-2.399,1.906-4.33,4.305-4.33c2.399,0,4.318,1.931,4.318,4.33
		C106.637,31.045,104.717,32.951,102.318,32.951z M113.609,25.336c0,0.119-0.096,0.229-0.228,0.229h-3.79v2.771h3.202
		c0.12,0,0.229,0.107,0.229,0.229v0.659c0,0.119-0.108,0.228-0.229,0.228h-3.202v3.154c0,0.12-0.107,0.229-0.229,0.229h-0.778
		c-0.132,0-0.229-0.107-0.229-0.229v-7.939c0-0.12,0.098-0.229,0.229-0.229h4.797c0.132,0,0.228,0.107,0.228,0.229V25.336z
		 M124.326,32.832h-0.756c-0.146,0-0.229-0.072-0.276-0.18l-0.743-1.645h-3.922c-0.24,0.553-0.492,1.092-0.73,1.645
		c-0.037,0.083-0.133,0.18-0.276,0.18h-0.755c-0.182,0-0.276-0.156-0.204-0.313l3.683-8.071c0.035-0.072,0.145-0.132,0.203-0.132
		h0.12c0.06,0,0.168,0.06,0.204,0.132l3.656,8.071C124.602,32.676,124.505,32.832,124.326,32.832z M134.175,32.832h-0.778
		c-0.108,0-0.205-0.084-0.229-0.168l-0.889-5.361c-0.012,0-0.035,0-0.035,0l-2.159,5.518c-0.022,0.072-0.096,0.132-0.203,0.132
		h-0.216c-0.098,0-0.182-0.06-0.204-0.132l-2.171-5.518c-0.012,0-0.036,0-0.048,0l-0.864,5.361
		c-0.012,0.084-0.119,0.168-0.216,0.168h-0.779c-0.168,0-0.252-0.107-0.228-0.275l1.486-8.061c0.023-0.096,0.119-0.18,0.217-0.18
		h0.19c0.072,0,0.181,0.06,0.204,0.132l2.508,6.128h0.047l2.494-6.128c0.024-0.072,0.12-0.132,0.204-0.132h0.192
		c0.096,0,0.191,0.084,0.216,0.18l1.476,8.061C134.427,32.724,134.343,32.832,134.175,32.832z M141.414,25.336
		c0,0.119-0.096,0.229-0.229,0.229h-3.789v2.445h3.201c0.12,0,0.229,0.108,0.229,0.229v0.672c0,0.131-0.108,0.229-0.229,0.229
		h-3.201v2.578h3.789c0.133,0,0.229,0.107,0.229,0.228v0.66c0,0.12-0.096,0.229-0.229,0.229h-4.797
		c-0.132,0-0.229-0.107-0.229-0.229v-7.939c0-0.12,0.097-0.229,0.229-0.229h4.797c0.133,0,0.229,0.107,0.229,0.229V25.336z
		 M149.201,32.484c0.084,0.155,0,0.348-0.203,0.348h-0.936c-0.098,0-0.168-0.061-0.192-0.107l-1.595-3.18h-1.813v3.06
		c0,0.12-0.107,0.229-0.229,0.229h-0.778c-0.132,0-0.229-0.107-0.229-0.229v-7.939c0-0.12,0.098-0.229,0.229-0.229h3.262
		c1.439,0,2.614,1.141,2.614,2.566c0,1.104-0.73,2.016-1.773,2.436L149.201,32.484z M152.457,32.604c0,0.12-0.107,0.229-0.229,0.229
		h-0.791c-0.121,0-0.229-0.107-0.229-0.229v-7.939c0-0.12,0.108-0.229,0.229-0.229h0.791c0.119,0,0.229,0.107,0.229,0.229V32.604z
		 M161.417,31.788c-0.815,0.792-1.849,1.163-2.915,1.163c-2.398,0-4.329-1.906-4.329-4.305c0-2.399,1.931-4.33,4.329-4.33
		c1.212,0,2.087,0.408,2.902,1.115c0.107,0.096,0.107,0.239,0.013,0.336l-0.528,0.539c-0.084,0.107-0.19,0.107-0.3,0
		c-0.563-0.491-1.331-0.804-2.073-0.804c-1.716,0-3.012,1.439-3.012,3.118s1.309,3.106,3.021,3.106c0.877,0,1.488-0.349,2.063-0.792
		c0.108-0.084,0.216-0.071,0.288-0.013l0.553,0.54C161.523,31.549,161.5,31.704,161.417,31.788z M169.673,32.832h-0.756
		c-0.146,0-0.228-0.072-0.276-0.18l-0.742-1.645h-3.922c-0.24,0.553-0.492,1.092-0.731,1.645c-0.036,0.083-0.132,0.18-0.276,0.18
		h-0.755c-0.181,0-0.276-0.156-0.204-0.313l3.682-8.071c0.037-0.072,0.146-0.132,0.205-0.132h0.119c0.061,0,0.168,0.06,0.205,0.132
		l3.656,8.071C169.949,32.676,169.854,32.832,169.673,32.832z"/>
	<polygon fill="#FFFFFF" points="120.559,26.691 119.096,29.977 122.094,29.977 120.62,26.691 	"/>
</g>
<g>
	<path fill="#FFFFFF" d="M15.617,0c2.398,0,4.317,1.932,4.317,4.33s-1.919,4.305-4.317,4.305c-2.399,0-4.306-1.905-4.306-4.305
		C11.311,1.931,13.218,0,15.617,0z M15.617,7.795c1.907,0,3.478-1.559,3.478-3.465c0-1.908-1.571-3.49-3.478-3.49
		c-1.907,0-3.466,1.582-3.466,3.49C12.15,6.236,13.709,7.795,15.617,7.795z"/>
	<path fill="#FFFFFF" d="M25.493,0c1.211,0,2.087,0.42,2.902,1.115c0.096,0.096,0.108,0.24,0.012,0.336l-0.324,0.324
		c-0.096,0.119-0.192,0.106-0.312-0.013c-0.624-0.54-1.476-0.899-2.291-0.899c-1.895,0-3.346,1.596-3.346,3.454
		c0,1.847,1.451,3.441,3.346,3.441c1.043,0,1.655-0.42,2.291-0.899c0.12-0.096,0.216-0.084,0.288-0.035l0.36,0.324
		c0.096,0.07,0.072,0.239-0.012,0.323c-0.815,0.792-1.847,1.162-2.914,1.162c-2.399,0-4.33-1.905-4.33-4.305
		C21.163,1.931,23.094,0,25.493,0z"/>
	<path fill="#FFFFFF" d="M33.94,0c1.211,0,2.087,0.42,2.902,1.115c0.096,0.096,0.108,0.24,0.012,0.336L36.53,1.775
		c-0.096,0.119-0.192,0.106-0.312-0.013c-0.624-0.54-1.476-0.899-2.291-0.899c-1.895,0-3.346,1.596-3.346,3.454
		c0,1.847,1.451,3.441,3.346,3.441c1.043,0,1.655-0.42,2.291-0.899c0.12-0.096,0.216-0.084,0.288-0.035l0.36,0.324
		c0.096,0.07,0.072,0.239-0.012,0.323c-0.815,0.792-1.847,1.162-2.914,1.162c-2.399,0-4.33-1.905-4.33-4.305
		C29.611,1.931,31.542,0,33.94,0z"/>
	<path fill="#FFFFFF" d="M38.706,0.348c0-0.12,0.108-0.229,0.228-0.229h0.48c0.12,0,0.228,0.108,0.228,0.229v7.938
		c0,0.12-0.108,0.229-0.228,0.229h-0.48c-0.12,0-0.228-0.108-0.228-0.229V0.348z"/>
	<path fill="#FFFFFF" d="M42.09,0.348c0-0.12,0.096-0.229,0.216-0.229h2.687c2.314,0,4.209,1.884,4.209,4.188
		c0,2.326-1.895,4.21-4.209,4.21h-2.687c-0.12,0-0.216-0.108-0.216-0.229V0.348z M44.801,7.688c1.967,0,3.395-1.403,3.395-3.382
		c0-1.969-1.427-3.37-3.395-3.37h-1.799v6.752H44.801z"/>
	<path fill="#FFFFFF" d="M51.055,0.348c0-0.12,0.096-0.229,0.228-0.229h4.726c0.132,0,0.228,0.108,0.228,0.229v0.348
		c0,0.12-0.096,0.229-0.228,0.229h-4.03V3.85h3.442c0.12,0,0.228,0.106,0.228,0.229v0.348c0,0.132-0.107,0.229-0.228,0.229h-3.442
		v3.058h4.03c0.132,0,0.228,0.108,0.228,0.229V8.29c0,0.12-0.096,0.229-0.228,0.229h-4.726c-0.132,0-0.228-0.108-0.228-0.229V0.348z
		"/>
	<path fill="#FFFFFF" d="M58.158,0.216C58.158,0.096,58.265,0,58.386,0h0.3l5.409,6.74c0.012,0,0.012,0,0.023,0V0.348
		c0-0.12,0.097-0.229,0.229-0.229h0.42c0.119,0,0.228,0.108,0.228,0.229V8.42c0,0.119-0.108,0.215-0.228,0.215h-0.216l-5.506-6.871
		h-0.012v6.523c0,0.12-0.096,0.229-0.228,0.229h-0.42c-0.12,0-0.228-0.108-0.228-0.229L58.158,0.216L58.158,0.216z"/>
	<path fill="#FFFFFF" d="M68.634,0.924h-2.087c-0.133,0-0.229-0.107-0.229-0.229V0.348c0-0.12,0.096-0.229,0.229-0.229h5.085
		c0.132,0,0.228,0.108,0.228,0.229v0.348c0,0.12-0.096,0.229-0.228,0.229h-2.087v7.363c0,0.12-0.108,0.229-0.228,0.229h-0.456
		c-0.12,0-0.228-0.108-0.228-0.229L68.634,0.924L68.634,0.924z"/>
</g>
</svg>
