<?xml version="1.0" encoding="utf-8"?>
<!-- Generator: Adobe Illustrator 16.0.0, SVG Export Plug-In . SVG Version: 6.00 Build 0)  -->
<!DOCTYPE svg PUBLIC "-//W3C//DTD SVG 1.1//EN" "http://www.w3.org/Graphics/SVG/1.1/DTD/svg11.dtd">
<svg version="1.1" id="Layer_1" xmlns="http://www.w3.org/2000/svg" xmlns:xlink="http://www.w3.org/1999/xlink" x="0px" y="0px"
	 width="26.122px" height="22.853px" viewBox="0 0 26.122 22.853" enable-background="new 0 0 26.122 22.853" xml:space="preserve">
<path d="M7.752,8.267c0,0.331-0.22,0.882-0.368,1.249c-1.764,4.115-2.902,7.055-4.188,9.994c-0.074,0.184,0,0.624,0.404,0.624
	c0.551,0,2.499-1.47,3.417-2.461c0.367-0.404,0.662-0.698,0.845-0.698c0.074,0,0.184,0.073,0.184,0.22
	c0,0.331-0.257,0.845-0.662,1.323c-1.653,1.91-4.776,4.299-6.283,4.299C0.551,22.816,0,22.265,0,21.897
	c0-0.184,0.037-0.331,0.184-0.661c1.323-3.27,2.829-6.835,4.556-10.84c0.147-0.33-0.11-0.587-0.294-0.514
	C3.638,10.14,2.719,10.618,1.727,11.5c-0.183,0.184-0.478,0.11-0.478-0.11c0-0.257,0.221-0.625,0.478-0.919
	C2.462,9.59,5.621,7.385,6.907,7.385C7.201,7.385,7.752,7.936,7.752,8.267z M9.148,1.47c0,0.992-0.882,1.983-1.69,1.983
	c-0.184,0-0.367-0.036-0.551-0.11c-0.44-0.257-0.808-0.734-0.808-1.359c0-0.661,0.368-1.212,0.735-1.542
	C7.201,0.146,7.569,0,7.826,0C8.634,0,9.148,0.734,9.148,1.47z"/>
<path d="M25.792,9.479c0,0.624-0.111,1.139-0.515,2.167c-0.809,2.168-2.976,6.76-3.307,7.349c-0.331,0.661-0.294,0.991,0.11,0.991
	c0.734,0,2.203-1.175,3.307-2.204c0.293-0.257,0.734-0.331,0.734-0.073c0,0.367-0.258,0.771-0.441,1.065
	c-1.285,1.947-4.739,4.042-6.025,4.042c-0.33,0-0.771-0.147-1.176-0.625c-0.109-0.11-0.367-0.44,0.037-1.212
	c0.33-0.625,4.703-9.59,5.07-10.766c0.404-1.139,0.037-1.616-0.514-1.616c-0.883,0-2.242,0.844-4.152,3.16
	c-1.543,1.763-4.96,7.237-6.099,8.854c-0.992,1.543-1.47,2.241-1.874,2.241c-0.478,0-1.029-0.661-1.029-1.028
	c-0.073-0.551,0.992-2.72,1.139-3.05c1.029-2.314,2.792-5.842,3.858-8.635c0.221-0.44,0-0.587-0.331-0.587
	c-1.139,0-1.947,0.844-2.829,1.653c-0.184,0.184-0.331,0.367-0.478,0.367c-0.11,0-0.221-0.221-0.221-0.367
	c0-1.028,1.69-3.821,4.777-3.821c0.514,0,1.102,0.33,1.359,0.734c0.109,0.185,0.109,0.515-0.074,0.956
	c-0.257,0.588-1.91,4.556-2.241,5.326c-0.146,0.295,0.294,0.331,0.441,0.038c0.734-1.103,3.307-4.189,4.556-5.218
	c1.58-1.359,2.977-1.837,3.821-1.837C25.092,7.385,25.792,8.486,25.792,9.479z"/>
</svg>
