<?xml version="1.0" encoding="utf-8"?>
<!-- Generator: Adobe Illustrator 16.0.0, SVG Export Plug-In . SVG Version: 6.00 Build 0)  -->
<!DOCTYPE svg PUBLIC "-//W3C//DTD SVG 1.1//EN" "http://www.w3.org/Graphics/SVG/1.1/DTD/svg11.dtd">
<svg version="1.1" id="Layer_1" xmlns="http://www.w3.org/2000/svg" xmlns:xlink="http://www.w3.org/1999/xlink" x="0px" y="0px"
	 width="450.165px" height="39.956px" viewBox="0 0 450.165 39.956" enable-background="new 0 0 450.165 39.956"
	 xml:space="preserve">
<path d="M27.115,4.022c0.882,0,6.503-0.11,7.716-0.33c0.662-0.166,1.378-0.552,1.984-1.047c0.717-0.552,1.708-1.213,1.984-1.213
	c0.386,0,0.661,0.44,0.661,0.605c-0.11,1.434-0.551,4.134-0.716,7.717c-0.166,4.85-0.166,8.652-0.166,9.258
	c0,0.056,0.166,0.441,0.386,0.276c1.984-1.764,4.464-2.812,6.503-2.812c2.811,0,4.74,1.048,5.897,2.646
	c1.102,1.488,1.598,3.692,1.598,6.063c0.055,3.473,0.166,7.495,0.22,9.921c0.055,1.377,0.717,1.873,2.149,2.259
	c1.103,0.275,1.488,0.606,1.488,0.992c0,0.44-0.496,0.772-1.599,0.772c-1.598,0-3.141-0.222-4.519-0.222
	c-2.039,0-3.141,0.166-5.125,0.166c-0.937,0-1.323-0.386-1.323-0.717s0.386-0.661,1.103-0.882c1.323-0.385,1.543-0.937,1.763-2.756
	c0.11-1.213,0.056-8.101,0.056-9.203c0-2.812-0.662-3.913-1.378-4.52c-0.771-0.717-1.874-1.213-3.307-1.213
	c-1.708,0-2.976,0.607-3.197,0.772c-0.166,0.165-0.606,1.047-0.661,1.874c-0.11,2.921-0.11,10.36-0.11,11.959
	c0.11,1.874,0.606,2.535,1.929,2.865c0.827,0.221,1.322,0.606,1.322,0.938c0,0.605-0.882,0.771-1.653,0.771
	c-0.441,0-2.37-0.056-5.015-0.056c-2.259,0-3.748,0.166-4.739,0.166c-0.606,0-1.378-0.276-1.378-0.771
	c0-0.331,0.386-0.717,1.543-1.048c1.653-0.605,1.874-1.543,1.984-2.7c0.221-1.929,0.496-7.881,0.496-16.037
	c0-8.046,0-9.645-0.165-10.417c-0.166-0.991-0.662-1.599-1.047-1.599c-1.268-0.109-9.259-0.109-10.857,0.111
	c-0.331,0.055-0.551,0.44-0.551,0.661c0,2.534-0.055,6.723-0.055,11.463c0,6.338,0.055,12.18,0.275,14.936
	c0.165,1.764,0.606,2.866,4.299,3.638c0.771,0.165,1.377,0.771,1.377,1.103c0,0.495-0.937,0.717-1.543,0.717
	c-0.441,0-6.668-0.222-8.156-0.222c-1.709,0-5.953,0.331-6.889,0.331c-1.047,0-1.708-0.221-1.708-0.606
	c0-0.552,0.661-1.047,1.212-1.157c3.582-0.882,3.858-1.652,4.023-5.511c0.221-3.252,0.496-14.22,0.496-18.408
	c0-3.141-0.055-5.015-0.055-6.447c0-0.496-0.441-0.771-0.606-0.771c-0.992-0.166-4.905-0.166-6.118-0.166
	c-0.882,0-2.425,0.552-3.031,1.268C3.362,8.047,2.755,8.982,2.039,10.25c-0.662,1.104-0.992,1.543-1.212,1.543
	C0.275,11.793,0,11.076,0,10.526c0-1.048,0.992-4.63,1.047-7.386c0-0.275,0.496-1.157,0.881-1.157s0.716,0.44,1.047,0.826
	c0.165,0.276,1.268,0.827,2.314,0.938c1.212,0.11,8.212,0.33,11.959,0.33C20.336,4.077,26.398,4.077,27.115,4.022z"/>
<path d="M76.325,18.793c1.267,1.213,2.093,2.921,2.093,4.85c0,0.386-0.551,1.323-1.212,1.323c-0.661,0-9.423,0-12.014,0
	c-0.275,0-0.551,0.165-0.606,0.386c-0.166,0.44-0.221,1.322-0.221,1.983c0,1.212,0.662,3.747,1.708,5.126
	c1.378,1.763,3.692,2.755,6.117,2.755c2.315,0,3.914-0.551,4.961-1.929c0.22-0.331,0.496-0.661,0.716-0.661
	c0.221,0,0.497,0.386,0.497,0.717c0,0.33-0.166,0.937-0.441,1.377c-1.708,2.646-4.298,4.795-8.818,4.795
	c-6.338,0-10.196-4.795-10.196-11.077c0-4.409,2.425-8.817,7-10.912c1.377-0.662,3.031-1.048,4.519-1.048
	C72.631,16.478,74.891,17.359,76.325,18.793z M64.916,22.705c-0.055,0.276,0.166,0.552,0.386,0.552c1.433,0.056,3.141,0,5.896,0
	c0.882,0,1.929-0.552,1.929-1.874c0-1.543-1.543-3.362-3.086-3.362C67.727,18.021,65.577,20.226,64.916,22.705z"/>
<path d="M93.459,3.803c1.212,0,5.566,0.22,8.377,0.22c0.275,0,1.047,0.552,1.212,0.717c0.827,0.991,2.37,2.7,4.629,5.347
	c2.701,3.307,13.502,14.494,16.423,17.579c0.275,0.276,0.496-0.22,0.496-0.33c0.276-1.598,0.111-7.826,0.111-12.455
	c0-1.873-0.166-4.464-0.331-5.897c-0.11-1.102-0.662-2.369-3.417-3.086c-1.103-0.275-1.819-0.606-1.819-1.268
	c0-0.386,0.606-0.661,1.599-0.661c1.377,0,2.645,0.055,3.748,0.055c2.646,0,4.905-0.275,6.337-0.275c0.938,0,1.323,0.33,1.323,0.716
	c0,0.331-0.386,0.827-1.378,1.103c-2.866,0.937-3.142,1.93-3.417,4.135c-0.165,1.983-0.552,15.926-0.552,20.611
	c0,2.314,0.332,7.164,0.332,8.597c0,0.496-0.606,1.048-0.882,1.048c-1.157,0-2.48-1.434-2.976-2.095
	c-1.046-1.378-2.094-2.646-3.582-4.464c-5.18-6.338-14.164-15.816-19.068-21.604c-0.276-0.33-0.606,0.11-0.606,0.276
	c-0.11,1.487-0.22,2.755-0.275,7.109c-0.056,7.66-0.166,11.849,0.11,14.55c0.22,1.763,0.827,2.699,3.473,3.526
	c1.157,0.331,1.542,0.717,1.542,1.048c0,0.605-0.771,0.827-1.818,0.827c-1.598,0-2.866-0.222-4.795-0.222
	c-1.212,0-4.298,0.166-5.236,0.166c-0.771,0-1.433-0.276-1.433-0.717c0-0.551,0.661-0.827,1.212-0.992
	c2.536-0.771,3.858-1.212,4.023-5.346c0.276-6.172,0.992-16.754,0.992-20.722c0-2.205-0.166-2.865-0.331-3.087
	c-0.992-1.212-1.378-1.983-4.244-2.646c-0.606-0.109-1.433-0.551-1.433-0.937C91.806,4.188,92.468,3.803,93.459,3.803z"/>
<path d="M150.387,18.793c1.267,1.213,2.094,2.921,2.094,4.85c0,0.386-0.551,1.323-1.212,1.323s-9.424,0-12.015,0
	c-0.275,0-0.551,0.165-0.606,0.386c-0.165,0.44-0.22,1.322-0.22,1.983c0,1.212,0.661,3.747,1.708,5.126
	c1.377,1.763,3.692,2.755,6.117,2.755c2.314,0,3.913-0.551,4.961-1.929c0.22-0.331,0.495-0.661,0.716-0.661s0.496,0.386,0.496,0.717
	c0,0.33-0.165,0.937-0.441,1.377c-1.708,2.646-4.298,4.795-8.818,4.795c-6.337,0-10.196-4.795-10.196-11.077
	c0-4.409,2.426-8.817,7-10.912c1.377-0.662,3.031-1.048,4.519-1.048C146.694,16.478,148.954,17.359,150.387,18.793z M138.979,22.705
	c-0.055,0.276,0.166,0.552,0.386,0.552c1.433,0.056,3.142,0,5.896,0c0.882,0,1.93-0.552,1.93-1.874c0-1.543-1.544-3.362-3.087-3.362
	C141.79,18.021,139.64,20.226,138.979,22.705z"/>
<path d="M164.437,17.085c0.992,0,1.378,0.385,1.378,0.66s-0.331,0.662-1.268,0.938c-0.991,0.221-1.212,0.771-0.826,1.818
	c0.771,2.26,3.857,10.03,4.243,10.857c0.166,0.221,0.386,0.221,0.496,0.055c0.606-1.268,2.095-4.408,3.031-6.613
	c0.165-0.386,0.165-0.717,0.165-0.937c-0.165-0.662-0.771-2.315-1.212-3.252c-0.606-1.047-0.992-1.599-2.04-1.984
	c-0.826-0.274-1.212-0.551-1.212-1.046c0-0.276,0.386-0.552,1.378-0.552c0.771,0,2.921,0.221,4.299,0.221
	c0.992,0,3.416-0.221,4.684-0.221c0.883,0,1.269,0.275,1.269,0.606c0,0.385-0.386,0.771-1.103,0.937
	c-1.322,0.386-1.543,0.937-1.543,1.212c0,0.387,0.165,0.882,0.44,1.544c0.331,0.717,3.196,8.101,4.078,9.975
	c0.111,0.221,0.276,0.221,0.441,0c0.661-1.598,1.763-4.464,2.756-6.944c0.661-1.763,1.157-3.251,1.157-4.022
	c0-0.552-0.276-1.213-2.26-1.709c-0.717-0.22-1.323-0.44-1.323-0.937c0-0.386,0.662-0.661,1.323-0.661s2.37,0.221,3.582,0.221
	c1.653,0,3.196-0.276,4.189-0.276c0.716,0,1.212,0.221,1.212,0.552c0,0.551-0.717,0.827-1.599,1.047
	c-1.157,0.386-1.818,1.048-2.7,2.59c-1.599,3.032-4.023,8.708-5.401,11.904c-0.937,2.315-1.818,4.63-2.204,5.566
	c-0.165,0.551-0.551,1.048-0.827,1.048c-0.661,0-1.156-0.662-1.488-1.048c-0.165-0.386-0.937-2.7-1.487-4.078
	c-1.048-2.479-2.039-5.07-3.196-7.716c0-0.11-0.331-0.165-0.386,0c-1.599,3.142-3.417,6.89-4.851,10.306
	c-0.22,0.552-1.102,2.646-1.708,2.646c-0.386,0-0.827-0.165-1.048-0.826c-0.109-0.275-0.937-2.591-1.487-4.078
	c-0.386-1.103-4.354-10.691-5.566-13.117c-0.771-1.708-1.157-2.646-2.811-3.142c-0.826-0.22-1.323-0.496-1.323-0.826
	c0-0.386,0.441-0.771,1.599-0.771c1.048,0,4.134,0.221,5.401,0.221C162.068,17.25,163.39,17.085,164.437,17.085z"/>
<path d="M203.396,3.747c1.322,0,4.629,0.33,7.164,0.33c1.543,0,3.196-0.109,5.346-0.109c0.882,0,1.378,0.275,1.378,0.606
	c0,0.386-0.441,0.991-1.268,1.156c-1.874,0.386-1.984,1.269-1.268,2.702c0.661,1.212,3.968,6.943,6.338,10.966
	c0.11,0.166,0.551,0.056,0.716-0.164c0.883-1.379,4.74-7.495,6.117-10.196c0.938-1.709,0.882-2.811-1.708-3.362
	c-0.771-0.165-1.487-0.661-1.487-1.213c0-0.386,0.771-0.551,1.212-0.551c1.433,0,2.48,0.11,3.748,0.11
	c1.543,0,5.677-0.275,6.558-0.275c0.772,0,1.268,0.11,1.268,0.606c0,0.495-0.606,0.882-1.543,1.157
	c-2.59,0.661-3.747,2.039-5.565,4.244c-2.315,2.865-5.622,8.101-7.33,10.746c-0.221,0.387-0.771,1.654-0.771,2.977
	c0,3.086,0.165,9.093,0.386,10.912c0.165,1.434,0.551,2.149,3.526,2.921c1.048,0.275,1.434,0.661,1.434,1.047
	c0,0.44-0.606,0.772-1.709,0.772c-0.771,0-4.795-0.276-6.063-0.276c-3.637,0-7.274,0.386-7.991,0.386
	c-0.826,0-1.433-0.221-1.433-0.661c0-0.331,0.441-0.882,1.599-1.157c2.921-0.827,3.526-1.709,3.582-2.535
	c0.165-2.535,0.055-8.598,0.055-10.637c0-0.551-0.33-2.37-0.496-2.701c-0.937-1.873-4.188-7.109-6.559-10.967
	c-2.425-3.857-3.472-4.629-5.29-5.07c-0.992-0.221-1.598-0.606-1.598-1.102C201.743,3.968,202.458,3.747,203.396,3.747z"/>
<path d="M255.86,27.941c0,4.685-2.866,8.046-4.905,9.369c-2.26,1.598-5.07,2.26-7.605,2.26c-2.48,0-5.566-1.157-7.605-2.866
	c-2.37-1.93-4.133-5.401-4.133-8.487c0-3.858,1.708-6.779,3.802-8.542c1.653-1.434,4.739-3.197,8.818-3.197
	C249.742,16.478,255.86,20.776,255.86,27.941z M240.483,19.509c-1.268,1.157-2.259,3.582-2.259,7.22c0,1.818,0.221,3.913,0.66,5.291
	c1.158,3.857,3.693,5.731,6.008,5.731c0.552,0,1.599-0.44,2.425-1.378c1.157-1.487,2.039-4.408,2.039-7.55
	c0-2.315-0.496-5.896-2.204-8.322c-0.992-1.267-2.425-2.204-3.968-2.204C242.247,18.297,241.365,18.683,240.483,19.509z"/>
<path d="M260.267,18.683c2.095-0.662,4.574-1.488,5.566-2.095c0.606-0.386,1.157-0.66,1.323-0.66c0.33,0,0.66,0.495,0.66,0.66
	c0,0.993-0.165,2.039-0.165,3.087c0,0.165,0.276,0.386,0.441,0.22c1.708-1.818,4.133-3.417,5.842-3.417
	c2.425,0,3.196,1.489,3.196,2.26c0,0.166-0.166,0.606-0.331,0.883c-0.605,0.937-2.314,3.195-2.7,3.251
	c-0.221,0-0.826-0.056-0.992-0.221c-0.605-0.551-2.424-1.543-3.472-1.543c-0.496,0-1.047,0.055-1.378,0.33
	c-0.33,0.276-0.496,0.607-0.496,1.104c0,1.102,0.275,10.691,0.331,11.518c0.11,1.709,0.496,2.7,1.268,2.866
	c0.551,0.11,1.708,0.496,2.37,0.716c0.881,0.276,1.102,0.662,1.102,0.882c0,0.441-0.661,0.661-1.543,0.661
	c-1.653,0-4.519-0.275-7.771-0.275c-1.157,0-2.315,0.166-3.638,0.166c-0.605,0-1.322-0.166-1.322-0.771
	c0-0.386,0.826-0.662,1.268-0.827c1.983-0.717,2.094-1.322,2.149-4.629c0-1.379,0-5.457,0-9.094c0-0.992-0.11-1.819-0.441-2.094
	c-0.882-0.717-1.984-1.709-1.984-1.93C259.55,19.62,259.662,18.848,260.267,18.683z"/>
<path d="M295.261,17.25c3.307,0,6.503-0.606,7.991-0.606c0.275,0,0.496,0.165,0.496,0.441c0,0.66-0.938,1.268-1.157,1.322
	c-3.196,0.716-4.464,1.322-6.834,3.086c-1.048,0.717-3.031,2.59-3.307,3.142c-0.056,0.11-0.056,0.386-0.056,0.386
	c0.772,1.213,6.394,8.652,8.322,10.581c1.047,0.938,1.874,1.489,3.361,1.874c0.883,0.275,1.378,0.661,1.378,0.882
	c0,0.661-0.661,0.882-1.708,0.882c-1.323,0-4.96-0.331-7.826-0.275l-2.646,0.055c-0.605,0-1.433-0.165-1.433-0.771
	c0-0.33,0.275-0.551,1.213-0.826c0.826-0.276,1.102-0.717,0.717-1.268c-1.434-2.039-2.756-3.638-5.347-7.109
	c-0.551-0.717-0.827-1.103-1.047-1.103c-0.221,0-0.221,0.275-0.275,0.496c-0.221,0.606-0.165,5.786,0.055,6.944
	c0.166,1.046,0.386,1.653,1.929,2.039c0.606,0.165,1.158,0.551,1.158,0.826c0,0.717-0.882,0.827-1.488,0.827
	c-1.378,0-3.858-0.166-5.236-0.166c-1.929,0-4.298,0.222-5.015,0.222c-1.157,0-1.543-0.276-1.543-0.717
	c0-0.496,0.881-0.772,1.598-0.992c1.653-0.496,2.15-0.993,2.315-2.48c0.055-1.048,0.386-9.7,0.386-16.92
	c0-7.108-0.165-10.637-0.331-12.179c-0.055-0.386-0.331-0.771-1.653-1.543c-0.552-0.276-0.882-0.882-0.882-1.158
	c0-0.165,0.386-0.44,0.882-0.551c1.764-0.386,5.126-1.322,6.503-2.094C286.333,0.22,286.664,0,286.94,0
	c0.165,0,0.551,0.496,0.495,0.716c-0.275,1.599-0.495,15.101-0.495,20.502c0,1.323-0.056,4.52,0.165,5.235
	c0.055,0.275,0.165,0.331,0.44,0.331c0.221,0,0.496-0.276,0.882-0.606c1.654-1.378,5.07-4.904,6.063-6.117
	c0.22-0.276,0.386-0.938-1.488-1.268c-0.771-0.166-1.157-0.496-1.157-0.772c0-0.33,0.551-0.771,1.103-0.771H295.261z"/>
<path d="M346.125,3.912c2.7-0.22,3.527-0.44,4.243-0.881c0.441-0.276,0.661-0.441,0.882-0.441c0.276,0,0.717,0.605,0.496,1.378
	c-0.44,1.543-0.992,4.354-1.157,6.393c0,0.496-0.386,1.433-1.048,1.433c-0.385,0-0.716-0.275-0.937-1.707
	c-0.551-3.143-1.268-3.639-3.968-3.748c-1.323,0-5.346,0.055-6.724,0.275c-0.331,0.055-0.551,0.44-0.551,0.661
	c0,2.534-0.056,6.723-0.056,11.463c0,6.338,0.056,12.18,0.275,14.936c0.166,1.764,0.606,2.866,4.299,3.638
	c0.772,0.165,1.378,0.771,1.378,1.103c0,0.495-0.937,0.717-1.543,0.717c-0.441,0-6.724-0.222-8.157-0.222
	c-1.707,0-5.951,0.331-6.888,0.331c-1.048,0-1.709-0.221-1.709-0.661c0-0.497,0.661-0.992,1.213-1.157
	c3.582-0.882,3.803-1.598,4.023-5.456c0.22-3.252,0.495-14.22,0.495-18.408c0-3.141-0.056-5.015-0.056-6.447
	c0-0.496-0.439-0.771-0.605-0.771c-1.048-0.166-5.015-0.222-6.228-0.222c-0.882,0-2.425,0.552-3.031,1.268
	c-0.551,0.607-1.157,1.599-1.874,2.922c-0.661,1.102-0.992,1.434-1.212,1.434c-0.551,0-0.827-0.663-0.827-1.213
	c0-1.048,0.992-4.63,1.047-7.44c0-0.221,0.496-1.103,0.883-1.103c0.386,0,0.605,0.44,0.937,0.882
	c0.165,0.221,1.212,0.771,2.259,0.882c1.213,0.11,8.487,0.33,12.235,0.33C337.307,4.077,344.307,4.022,346.125,3.912z"/>
<path d="M356.208,18.353c2.26-0.441,5.731-1.765,6.613-1.984c0.275,0,0.551,0.44,0.551,0.605c-0.109,1.874-0.275,9.26-0.275,12.455
	c0,1.709,0.055,3.638,0.11,5.567c0.056,1.653,0.716,1.873,2.149,2.314c0.827,0.275,1.213,0.606,1.213,1.047
	s-0.772,0.717-1.544,0.717c-0.386,0-3.361-0.166-4.574-0.166c-1.763,0-4.409,0.222-5.346,0.222c-0.882,0-1.543-0.332-1.543-0.717
	c0-0.387,0.386-0.662,1.434-0.992c1.322-0.386,1.928-1.048,2.039-1.598c0.22-0.772,0.33-4.686,0.33-8.599c0-1.157,0-4.298-0.11-4.96
	c-0.055-0.44-0.717-0.991-1.873-1.984c-0.332-0.33-0.662-0.605-0.662-0.882C354.719,18.958,355.326,18.518,356.208,18.353z
	 M363.483,8.377c0,1.818-1.93,3.362-3.308,3.362c-0.496,0-1.599-0.332-2.204-0.938c-0.551-0.552-1.048-1.323-1.048-2.425
	c0-0.661,0.276-1.764,0.882-2.425c0.662-0.607,1.709-0.992,2.756-0.992C362.49,4.96,363.483,7.109,363.483,8.377z"/>
<path d="M370.535,18.793c1.378-0.44,4.63-1.819,5.952-2.535c0.275-0.11,0.386-0.056,0.496,0c0.275,0.165,0.496,0.605,0.496,0.716
	c0,0.771-0.165,1.819-0.165,2.37c0,0.11,0.221,0.496,0.386,0.331c2.149-1.764,4.739-3.197,7.439-3.197
	c1.709,0,3.142,0.441,4.023,1.104c0.937,0.716,1.543,1.763,1.818,2.203c0.11,0.166,0.386,0.166,0.441,0.166
	c0.661-0.441,2.921-1.819,4.022-2.369c1.268-0.662,2.261-0.827,3.197-0.827c2.259,0,3.637,0.827,4.739,1.983
	c1.488,1.434,1.984,3.418,2.095,5.512c0.11,1.818,0.22,7.55,0.275,11.077c0.055,0.938,0.495,1.765,1.929,2.204
	c0.717,0.221,1.103,0.551,1.103,0.883c0,0.385-0.552,0.717-1.543,0.717c-1.103,0-2.921-0.222-4.409-0.222
	c-1.874,0-3.252,0.166-4.52,0.166c-1.047,0-1.378-0.441-1.378-0.827c0-0.33,0.496-0.606,1.103-0.826
	c1.433-0.441,1.653-0.938,1.764-3.087c0.055-1.433-0.055-7.55-0.055-9.368c0-0.883-0.111-1.93-0.772-2.977s-1.818-1.874-3.527-1.874
	c-1.928,0-2.811,0.661-3.361,1.103c-0.275,0.22-0.44,1.157-0.44,1.709c0,0.386-0.056,10.525,0.055,11.738
	c0.166,1.763,0.386,2.26,2.314,2.811c0.606,0.165,1.158,0.441,1.158,0.827s-0.552,0.771-1.434,0.771
	c-1.213,0-3.692-0.166-4.96-0.166c-1.157,0-3.361,0.11-4.52,0.11c-1.378,0-1.598-0.386-1.598-0.826c0-0.166,0.386-0.552,1.103-0.771
	c1.488-0.441,1.983-0.993,1.983-2.977l0.056-9.479c0.055-2.205-0.386-3.142-0.662-3.473c-0.716-0.992-1.983-1.764-3.582-1.764
	c-1.268,0-2.59,0.551-3.361,1.158c-0.275,0.22-0.496,0.826-0.496,1.268c-0.056,3.582-0.056,8.597-0.056,12.785
	c0,1.157,0.441,1.873,1.929,2.37c1.048,0.33,1.323,0.551,1.323,0.992c0,0.33-0.717,0.716-1.488,0.716c-0.22,0-3.307-0.11-5.4-0.11
	c-1.818,0-3.473,0.222-4.63,0.222c-0.771,0-1.543-0.222-1.543-0.717c0-0.332,0.386-0.662,1.378-0.938
	c1.929-0.44,2.094-1.157,2.314-3.527c0.11-1.487,0.275-5.787,0.275-10.636c0-0.497,0-0.938-0.33-1.213
	c-1.323-1.323-1.984-1.984-1.984-2.315C369.488,19.454,370.149,18.903,370.535,18.793z"/>
<path d="M429.004,18.793c1.267,1.213,2.094,2.921,2.094,4.85c0,0.386-0.551,1.323-1.213,1.323c-0.661,0-9.424,0-12.014,0
	c-0.275,0-0.551,0.165-0.606,0.386c-0.165,0.44-0.221,1.322-0.221,1.983c0,1.212,0.661,3.747,1.709,5.126
	c1.377,1.763,3.692,2.755,6.117,2.755c2.314,0,3.913-0.551,4.96-1.929c0.221-0.331,0.496-0.661,0.717-0.661
	c0.22,0,0.496,0.386,0.496,0.717c0,0.33-0.165,0.937-0.441,1.377c-1.708,2.646-4.299,4.795-8.818,4.795
	c-6.337,0-10.194-4.795-10.194-11.077c0-4.409,2.424-8.817,6.999-10.912c1.377-0.662,3.03-1.048,4.519-1.048
	C425.311,16.478,427.571,17.359,429.004,18.793z M417.596,22.705c-0.056,0.276,0.165,0.552,0.386,0.552c1.433,0.056,3.142,0,5.896,0
	c0.882,0,1.929-0.552,1.929-1.874c0-1.543-1.543-3.362-3.086-3.362C420.407,18.021,418.256,20.226,417.596,22.705z"/>
<path d="M446.582,16.809c0.716,0.11,1.874,0.551,1.983,0.606c0.221,0.166,0.441,0.496,0.497,0.938
	c0.109,0.771,0.22,3.141,0.22,3.526c0,0.496-0.44,1.157-0.826,1.157s-0.882-0.717-1.213-1.322c-1.213-2.315-2.59-3.583-4.574-3.583
	c-1.378,0-2.756,1.378-2.756,2.812c0,1.984,2.095,3.196,4.851,4.739c4.739,2.535,5.401,4.464,5.401,6.944
	c0,2.59-1.653,4.409-3.473,5.566c-1.157,0.771-3.969,1.378-5.566,1.378c-1.709,0-4.52-0.387-5.566-1.268
	c-0.221-0.276-1.047-2.591-1.047-4.52c0-0.827,0.33-1.268,0.551-1.268c0.552,0,0.938,0.605,1.323,1.268
	c1.818,3.086,3.968,4.134,5.346,4.134c0.661,0,1.653-0.331,2.204-0.718c0.771-0.605,1.103-1.598,1.103-2.479
	c0-0.937-0.441-1.929-2.204-3.03c-1.488-0.938-2.15-1.378-3.804-2.371c-2.039-1.267-3.857-3.361-3.857-6.172
	c0-2.039,1.157-4.243,3.472-5.511c1.213-0.662,2.756-1.158,4.795-1.158C444.708,16.478,445.865,16.644,446.582,16.809z"/>
</svg>
