<?xml version="1.0" encoding="utf-8"?>
<!-- Generator: Adobe Illustrator 16.0.0, SVG Export Plug-In . SVG Version: 6.00 Build 0)  -->
<!DOCTYPE svg PUBLIC "-//W3C//DTD SVG 1.1//EN" "http://www.w3.org/Graphics/SVG/1.1/DTD/svg11.dtd">
<svg version="1.1" id="Layer_1" xmlns="http://www.w3.org/2000/svg" xmlns:xlink="http://www.w3.org/1999/xlink" x="0px" y="0px"
	 width="311.684px" height="50.262px" viewBox="0 0 311.684 50.262" enable-background="new 0 0 311.684 50.262"
	 xml:space="preserve">
<path d="M21.438,16.92c-0.275,0.165-1.322,0.661-1.708,0.937c-0.166,0.11-0.331,0.606-0.221,0.826
	c0.551,1.323,5.181,8.764,8.542,12.511c1.488,1.764,2.976,2.756,5.401,3.252c0.441,0.11,0.882,0.551,0.882,0.771
	c0,0.331-0.441,0.551-0.771,0.717c-0.661,0.275-1.874,0.386-3.031,0.386c-2.59,0-5.731-1.543-7.33-3.582
	c-1.929-2.646-4.739-6.89-6.944-10.361c-0.771-1.158-1.874-2.535-2.205-2.756c-0.22-0.221-2.26-0.716-3.913-0.716
	c-0.385,0-0.661,0.495-0.661,0.66c-0.055,0.938,0.055,7.937,0.22,11.133c0.11,2.315,0.716,3.087,3.307,3.693
	c0.937,0.275,1.323,0.661,1.323,0.937c0,0.552-1.047,0.717-1.323,0.717c-2.315,0-3.362-0.331-7.109-0.331
	c-0.992,0-3.858,0.221-4.464,0.221C0.716,35.934,0,35.713,0,35.162c0-0.44,0.496-0.551,1.212-0.827
	c2.425-0.771,3.417-1.103,3.582-3.196c0.11-1.708,0.331-7.551,0.331-10.857c0-8.486-0.11-13.502-0.331-15.651
	C4.574,2.591,4.078,2.48,1.598,1.875C0.771,1.653,0.275,1.378,0.275,0.938c0-0.386,0.276-0.661,1.488-0.661c1.708,0,1.929,0,3.086,0
	C6.889,0.276,10.802,0,13.778,0c3.803,0,6.779,0.496,8.983,2.315c1.819,1.487,3.142,4.243,3.142,6.889
	C25.902,12.181,24.139,15.267,21.438,16.92z M18.517,3.803c-1.322-1.268-3.692-2.094-5.456-2.094c-0.276,0-2.039,0.11-2.646,0.386
	c-0.275,0.11-0.661,0.937-0.661,1.157c-0.166,1.93-0.331,12.565-0.166,13.503c0.11,0.44,0.551,0.826,0.882,0.826
	c3.196,0,6.117-0.938,6.889-1.433c1.488-0.937,3.637-3.362,3.637-6.834C20.997,7.991,20.116,5.401,18.517,3.803z"/>
<path d="M51.47,15.598c1.212,1.157,1.929,2.699,1.929,4.629c0,0.331-0.441,0.937-1.047,0.937c-0.606,0-10.03,0-12.566-0.055
	c-0.165,0-0.386,0.275-0.44,0.441c-0.166,0.439-0.276,1.377-0.276,1.929c0,2.148,0.882,4.685,2.094,6.282
	c1.212,1.653,3.527,3.031,6.173,3.031c2.425,0,4.078-0.605,5.015-1.984c0.22-0.33,0.496-0.66,0.716-0.66
	c0.331,0,0.441,0.386,0.441,0.66c0,0.441-0.221,1.048-0.386,1.323c-1.929,2.811-4.85,4.133-7.991,4.133
	c-5.952,0-9.92-4.519-9.92-10.968c0-4.408,2.315-8.817,6.614-10.801c1.433-0.661,3.251-0.992,4.188-0.992
	C47.943,13.503,50.092,14.219,51.47,15.598z M39.896,19.014c-0.11,0.276,0.11,0.606,0.221,0.606c1.433,0.056,4.354,0.056,7.109,0
	c1.323,0,1.874-0.275,1.874-1.378c0-1.543-1.653-3.307-3.638-3.307C42.983,14.936,40.889,16.479,39.896,19.014z"/>
<path d="M77.482,16.644c1.322,1.488,2.59,4.189,2.59,7.221c0,2.755-1.157,6.833-4.684,9.479c-3.032,2.37-6.283,2.811-8.763,2.811
	c-1.268,0-2.37-0.109-3.086-0.22c-0.166,0-0.386,0.441-0.386,0.716c0,5.346,0.055,7.606,0.22,9.149
	c0.166,1.433,0.551,2.094,2.646,2.755c1.102,0.331,1.543,0.606,1.543,0.992c0,0.441-0.717,0.716-1.434,0.716
	c-1.212,0-4.409-0.274-6.558-0.274c-1.323,0-1.874,0.165-3.527,0.165c-0.827,0-1.653-0.221-1.653-0.717
	c0-0.22,0.386-0.661,1.268-0.827c2.921-0.604,3.197-1.102,3.417-5.069c0.11-1.818,0.165-6.338,0.165-11.96
	c0-3.747,0.056-7.881,0-11.132c0-2.315-0.275-2.701-0.44-2.811c-1.378-0.993-2.04-1.488-2.04-1.764s0.551-0.938,0.772-0.992
	c0.827-0.221,3.251-1.378,4.188-1.93c0.551-0.274,0.993-0.496,1.103-0.496c0.166,0,0.606,0.441,0.606,0.662
	c-0.11,0.882-0.11,1.929-0.166,2.811c0,0.221,0.22,0.441,0.441,0.275c1.323-0.882,2.811-1.653,3.583-1.984
	c0.882-0.385,2.535-0.66,4.078-0.66C73.349,13.559,75.829,14.825,77.482,16.644z M64.034,17.36
	c-0.275,0.221-0.551,0.662-0.716,1.653c-0.275,1.653-0.331,7.661-0.11,9.92c0.11,0.992,0.331,1.93,0.716,2.426
	c1.488,2.095,4.133,3.031,5.512,3.031c0.606,0,1.763-0.276,2.535-0.937c2.756-2.315,3.748-6.505,3.748-8.103
	c0-1.212,0-4.243-2.259-6.724c-1.433-1.487-3.692-2.259-4.96-2.259C66.184,16.369,64.641,16.865,64.034,17.36z"/>
<path d="M85.139,15.376c1.819-0.605,3.527-1.432,4.078-1.763c0.662-0.441,0.938-0.662,1.103-0.662c0.22,0,0.496,0.497,0.496,0.662
	c0,0.991-0.11,1.984-0.11,3.03c0,0.222,0.276,0.276,0.386,0.222c2.149-2.04,4.574-3.417,6.283-3.417c2.26,0,2.756,1.377,2.756,1.873
	c0,0.11-0.165,0.496-0.331,0.771c-0.606,0.882-1.928,2.37-2.26,2.535c-0.11,0.055-0.606-0.055-0.771-0.165
	c-0.606-0.552-1.929-1.212-3.031-1.212c-0.937,0-1.874,0.164-2.425,0.771c-0.386,0.44-0.551,0.938-0.551,1.212
	c0,1.102,0.276,11.077,0.331,11.904c0.11,1.599,0.441,2.646,1.433,2.811c0.717,0.165,1.708,0.441,2.535,0.662
	c0.882,0.274,0.992,0.66,0.992,0.882c0,0.274-0.496,0.495-1.322,0.495c-1.378,0-3.307-0.275-6.503-0.275
	c-1.653,0-2.315,0.221-3.637,0.221c-0.606,0-1.158-0.221-1.158-0.662c0-0.33,0.662-0.55,1.103-0.716
	c2.149-0.716,2.315-1.268,2.369-4.574c0-1.378,0-6.889,0-10.526c0-0.551,0-1.268-0.606-1.653c-1.322-1.047-1.874-1.268-1.874-1.488
	C84.422,16.148,84.533,15.598,85.139,15.376z"/>
<path d="M117.984,15.598c1.212,1.157,1.929,2.699,1.929,4.629c0,0.331-0.441,0.937-1.047,0.937c-0.606,0-10.03,0-12.566-0.055
	c-0.165,0-0.385,0.275-0.441,0.441c-0.165,0.439-0.275,1.377-0.275,1.929c0,2.148,0.881,4.685,2.094,6.282
	c1.212,1.653,3.527,3.031,6.172,3.031c2.425,0,4.078-0.605,5.015-1.984c0.221-0.33,0.496-0.66,0.716-0.66
	c0.331,0,0.441,0.386,0.441,0.66c0,0.441-0.221,1.048-0.386,1.323c-1.929,2.811-4.85,4.133-7.992,4.133
	c-5.952,0-9.92-4.519-9.92-10.968c0-4.408,2.315-8.817,6.613-10.801c1.433-0.661,3.252-0.992,4.189-0.992
	C114.457,13.503,116.606,14.219,117.984,15.598z M106.411,19.014c-0.111,0.276,0.11,0.606,0.221,0.606
	c1.433,0.056,4.354,0.056,7.108,0c1.323,0,1.874-0.275,1.874-1.378c0-1.543-1.653-3.307-3.637-3.307
	C109.497,14.936,107.402,16.479,106.411,19.014z"/>
<path d="M134.515,13.778c0.606,0.11,1.653,0.552,1.764,0.606c0.11,0.055,0.441,0.44,0.441,0.771c0,0.992,0.166,2.866,0.166,3.252
	c0,0.496-0.221,0.991-0.662,0.991c-0.221,0-0.551-0.331-0.827-0.937c-1.212-2.59-2.59-3.692-4.409-3.692
	c-2.259,0-3.307,2.259-3.307,3.417c0,1.874,1.764,3.307,5.456,5.346c3.086,1.818,4.299,3.693,4.299,6.173
	c0,2.534-1.818,4.408-3.196,5.401c-0.992,0.66-2.921,1.268-4.629,1.268c-1.653,0-4.409-0.441-5.346-1.213
	c-0.165-0.276-0.827-2.59-0.827-4.188c0-0.606,0.11-1.157,0.441-1.157c0.44,0,0.827,0.661,1.157,1.268
	c1.543,2.811,3.031,3.912,5.015,3.912c0.716,0,1.598-0.385,2.204-0.826c0.827-0.661,1.268-1.983,1.268-3.031
	c0-1.488-0.771-2.645-2.48-3.692c-1.323-0.937-1.653-1.213-3.362-2.314c-1.653-1.048-3.417-2.977-3.417-5.567
	c0-1.873,0.937-3.691,3.031-4.96c1.047-0.66,2.535-1.156,4.409-1.156C132.752,13.448,133.909,13.613,134.515,13.778z"/>
<path d="M157.275,15.598c1.213,1.157,1.93,2.699,1.93,4.629c0,0.331-0.441,0.937-1.048,0.937c-0.605,0-10.03,0-12.565-0.055
	c-0.165,0-0.386,0.275-0.441,0.441c-0.165,0.439-0.274,1.377-0.274,1.929c0,2.148,0.881,4.685,2.094,6.282
	c1.213,1.653,3.527,3.031,6.173,3.031c2.425,0,4.078-0.605,5.015-1.984c0.221-0.33,0.496-0.66,0.717-0.66
	c0.331,0,0.44,0.386,0.44,0.66c0,0.441-0.221,1.048-0.386,1.323c-1.929,2.811-4.85,4.133-7.991,4.133
	c-5.952,0-9.92-4.519-9.92-10.968c0-4.408,2.314-8.817,6.613-10.801c1.433-0.661,3.252-0.992,4.188-0.992
	C153.748,13.503,155.898,14.219,157.275,15.598z M145.702,19.014c-0.11,0.276,0.11,0.606,0.221,0.606
	c1.433,0.056,4.354,0.056,7.108,0c1.323,0,1.874-0.275,1.874-1.378c0-1.543-1.653-3.307-3.637-3.307
	C148.788,14.936,146.694,16.479,145.702,19.014z"/>
<path d="M164.162,14.99c0.938-0.33,2.922-1.046,3.692-1.598c0.552-0.33,1.048-0.606,1.323-0.606c0.276,0,0.551,0.606,0.551,0.827
	c0,0.937-0.221,2.26-0.221,2.756c0,0.274,0.276,0.165,0.331,0.165c2.205-1.488,5.07-3.031,7.385-3.031
	c2.701,0,4.244,1.213,5.016,2.095c1.213,1.432,1.93,3.967,1.93,6.723c0,1.048,0.109,9.259,0.165,10.03
	c0.109,0.827,0.661,1.544,2.039,1.93c1.047,0.275,1.377,0.55,1.377,0.937c0,0.386-0.771,0.606-1.653,0.606
	c-1.267,0-2.534-0.11-4.078-0.11c-1.377,0-3.086,0.11-3.803,0.11c-0.495,0-1.267-0.221-1.267-0.661c0-0.386,0.605-0.717,1.267-0.937
	c1.323-0.497,1.599-0.938,1.709-2.756c0.11-1.819,0.165-8.487,0.165-10.086c0-1.984-0.992-3.582-1.653-4.078
	c-0.606-0.44-2.26-1.048-3.527-1.048c-2.425,0-3.857,0.827-4.904,1.765c-0.166,0.165-0.551,0.826-0.551,1.322
	c0,0.717,0,12.565,0.054,13.228c0.056,0.771,0.276,1.212,2.04,1.708c0.551,0.165,0.992,0.496,0.992,0.827
	c0,0.386-0.606,0.66-1.379,0.66c-0.66,0-2.204-0.055-3.36-0.055c-2.04,0-3.639,0.166-4.575,0.166c-0.826,0-1.433-0.221-1.433-0.717
	c0-0.386,0.551-0.662,1.157-0.827c1.818-0.551,2.149-1.103,2.314-3.086c0.166-1.653,0.276-6.448,0.276-12.069
	c0-0.606-0.11-1.157-1.323-2.15c-0.717-0.495-1.047-0.771-1.047-0.937C163.17,15.707,163.777,15.156,164.162,14.99z"/>
<path d="M204.062,13.999c0.055,0,0.605,0.275,0.605,0.44c0-0.165,0.166,1.378,0.166,2.095c0,0.495-1.048,0.606-1.434,0.606
	c-0.22,0-5.4,0-6.007,0c-0.275,0-0.496,0.274-0.496,0.386c-0.055,1.102-0.11,9.203-0.11,11.849c0,1.378,0.331,2.095,0.937,2.7
	c1.048,0.938,2.205,1.048,3.362,1.048c0.717,0,1.874-0.331,2.7-0.827c0.497-0.275,0.606-0.331,0.827-0.331
	c0.055,0,0.331,0.11,0.331,0.607c0,0.44-0.387,0.991-0.772,1.377c-1.488,1.433-3.416,2.426-5.896,2.426
	c-2.26,0-4.188-1.379-4.85-2.591c-0.606-0.938-0.717-2.095-0.717-3.637c0-2.04,0.22-10.307,0.22-12.236
	c0-0.385-0.991-0.771-2.093-1.102c-0.441-0.166-0.772-0.44-0.772-0.606c0-0.22,0.165-0.441,0.331-0.605
	c1.929-1.544,3.637-2.866,4.408-3.803c0.662-0.771,1.048-1.213,1.268-1.213c0.276,0,0.772,0.496,0.772,0.605
	c0,0.222,0,0.993,0,2.591c0,0.166,0.221,0.44,0.44,0.44C198.496,14.219,203.841,13.999,204.062,13.999z"/>
<path d="M221.861,16.038c0.827,1.157,1.103,2.259,1.103,4.575c0,2.148-0.22,9.093-0.22,9.698c0,2.535,1.763,2.757,2.204,2.757
	c0.22,0,1.488-0.387,2.094-0.828c0.165-0.109,0.221,0,0.33,0.166c0.166,0.166,0.166,0.496,0.166,0.551
	c0,1.047-2.48,3.418-4.96,3.418c-1.268,0-2.866-0.717-3.527-2.757c0-0.055-0.221-0.275-0.331-0.22
	c-2.038,1.432-4.408,2.369-4.96,2.535c-0.605,0.22-1.929,0.33-2.204,0.33c-1.929,0-3.803-2.369-3.803-5.125
	c0-0.991,0.441-2.039,1.047-2.811c0.552-0.717,1.378-0.992,2.205-1.379c0.826-0.33,5.235-1.542,6.447-1.928
	c1.268-0.386,1.599-0.662,1.599-0.992c0.055-0.496,0.11-3.857,0.11-4.52c0-1.378-1.598-3.692-4.299-3.692
	c-1.157,0-1.873,0.331-2.26,0.606c-0.33,0.165-0.496,1.157-0.386,2.259c0,0.166-0.221,0.497-0.33,0.607
	c-0.551,0.44-3.307,1.818-3.583,1.818c-0.33,0-0.661-0.441-0.661-0.717c0-1.598,1.543-3.141,4.133-4.85
	c1.6-1.157,4.079-2.094,5.126-2.094C219.657,13.448,221.035,14.825,221.861,16.038z M218.223,32.461
	c0.331-0.221,0.662-1.268,0.662-1.377c0.11-1.323,0.11-3.197,0.11-4.299c0-0.166-0.221-0.441-0.441-0.441
	c-1.543,0-4.188,0.937-5.677,1.653c-0.551,0.386-1.103,0.771-1.103,2.095c0,2.425,2.315,3.307,3.473,3.307
	C216.075,33.398,217.176,33.013,218.223,32.461z"/>
<path d="M242.636,13.999c0.055,0,0.606,0.275,0.606,0.44c0-0.165,0.165,1.378,0.165,2.095c0,0.495-1.047,0.606-1.433,0.606
	c-0.221,0-5.401,0-6.008,0c-0.275,0-0.496,0.274-0.496,0.386c-0.055,1.102-0.109,9.203-0.109,11.849c0,1.378,0.33,2.095,0.937,2.7
	c1.047,0.938,2.204,1.048,3.361,1.048c0.717,0,1.874-0.331,2.701-0.827c0.496-0.275,0.605-0.331,0.826-0.331
	c0.056,0,0.331,0.11,0.331,0.607c0,0.44-0.387,0.991-0.771,1.377c-1.488,1.433-3.417,2.426-5.897,2.426
	c-2.259,0-4.188-1.379-4.85-2.591c-0.606-0.938-0.717-2.095-0.717-3.637c0-2.04,0.221-10.307,0.221-12.236
	c0-0.385-0.992-0.771-2.094-1.102c-0.441-0.166-0.772-0.44-0.772-0.606c0-0.22,0.165-0.441,0.331-0.605
	c1.929-1.544,3.638-2.866,4.409-3.803c0.661-0.771,1.047-1.213,1.268-1.213c0.275,0,0.771,0.496,0.771,0.605
	c0,0.222,0,0.993,0,2.591c0,0.166,0.22,0.44,0.44,0.44C237.07,14.219,242.416,13.999,242.636,13.999z"/>
<path d="M247.485,15.102c2.039-0.441,4.629-1.653,5.455-1.874c0.221,0,0.497,0.551,0.497,0.606c0,0.605-0.331,7.77-0.331,10.912
	c0,3.086,0.055,5.401,0.11,7.329c0.056,1.765,1.268,1.874,2.646,2.315c0.882,0.275,1.213,0.551,1.213,0.937
	c0,0.331-0.662,0.552-1.268,0.552c-0.387,0-3.142-0.166-4.3-0.166c-1.818,0-3.747,0.221-4.684,0.221
	c-0.882,0-1.434-0.221-1.434-0.606c0-0.331,0.386-0.605,1.322-0.882c1.268-0.331,2.095-0.991,2.205-1.543
	c0.165-0.771,0.221-4.078,0.221-5.676c0-0.111,0.056-7.937-0.056-8.599c-0.055-0.386-0.661-0.826-2.259-1.984
	c-0.331-0.22-0.441-0.386-0.441-0.605C246.382,15.652,246.878,15.212,247.485,15.102z M253.823,4.96
	c0,1.489-1.543,2.701-2.646,2.701c-0.386,0-1.268-0.221-1.764-0.661c-0.44-0.496-0.827-1.103-0.827-2.04
	c0-0.495,0.221-1.377,0.662-1.983c0.551-0.496,1.378-0.717,2.149-0.717C252.886,2.26,253.823,3.969,253.823,4.96z"/>
<path d="M282.643,24.69c0,4.575-2.755,8.156-4.794,9.479c-2.204,1.598-4.354,2.205-6.833,2.205c-2.536,0-5.292-1.158-7.33-2.866
	c-2.371-1.93-4.079-5.677-4.079-8.433c0-4.188,1.764-6.834,3.858-8.598c1.708-1.488,4.464-3.03,8.156-3.03
	C277.078,13.448,282.643,17.746,282.643,24.69z M266.993,16.699c-1.434,1.323-2.701,4.188-2.701,7.055
	c0,1.819,0.221,3.526,0.662,4.904c1.377,4.134,4.519,6.118,7.164,6.118c0.605,0,1.818-0.276,3.361-1.819
	c1.378-1.487,2.48-4.904,2.48-7.274c0-2.866-0.661-6.007-2.756-8.432c-1.213-1.323-3.196-2.149-4.629-2.149
	C269.417,15.102,268.149,15.707,266.993,16.699z"/>
<path d="M288.097,14.99c0.937-0.33,2.921-1.046,3.692-1.598c0.551-0.33,1.047-0.606,1.322-0.606c0.276,0,0.551,0.606,0.551,0.827
	c0,0.937-0.22,2.26-0.22,2.756c0,0.274,0.275,0.165,0.331,0.165c2.204-1.488,5.069-3.031,7.385-3.031c2.7,0,4.243,1.213,5.015,2.095
	c1.213,1.432,1.93,3.967,1.93,6.723c0,1.048,0.109,9.259,0.165,10.03c0.109,0.827,0.661,1.544,2.039,1.93
	c1.047,0.275,1.377,0.55,1.377,0.937c0,0.386-0.771,0.606-1.653,0.606c-1.267,0-2.534-0.11-4.077-0.11
	c-1.378,0-3.087,0.11-3.804,0.11c-0.495,0-1.267-0.221-1.267-0.661c0-0.386,0.606-0.717,1.267-0.937
	c1.323-0.497,1.599-0.938,1.709-2.756c0.11-1.819,0.165-8.487,0.165-10.086c0-1.984-0.992-3.582-1.653-4.078
	c-0.606-0.44-2.26-1.048-3.527-1.048c-2.425,0-3.857,0.827-4.904,1.765c-0.165,0.165-0.551,0.826-0.551,1.322
	c0,0.717,0,12.565,0.055,13.228c0.055,0.771,0.275,1.212,2.039,1.708c0.551,0.165,0.992,0.496,0.992,0.827
	c0,0.386-0.606,0.66-1.378,0.66c-0.661,0-2.204-0.055-3.361-0.055c-2.04,0-3.638,0.166-4.574,0.166
	c-0.827,0-1.434-0.221-1.434-0.717c0-0.386,0.551-0.662,1.157-0.827c1.818-0.551,2.149-1.103,2.315-3.086
	c0.165-1.653,0.274-6.448,0.274-12.069c0-0.606-0.109-1.157-1.322-2.15c-0.717-0.495-1.047-0.771-1.047-0.937
	C287.105,15.707,287.711,15.156,288.097,14.99z"/>
</svg>
