<?xml version="1.0" encoding="utf-8"?>
<!-- Generator: Adobe Illustrator 16.0.0, SVG Export Plug-In . SVG Version: 6.00 Build 0)  -->
<!DOCTYPE svg PUBLIC "-//W3C//DTD SVG 1.1//EN" "http://www.w3.org/Graphics/SVG/1.1/DTD/svg11.dtd">
<svg version="1.1" id="Layer_1" xmlns="http://www.w3.org/2000/svg" xmlns:xlink="http://www.w3.org/1999/xlink" x="0px" y="0px"
	 width="71.75px" height="36.521px" viewBox="0 0 71.75 36.521" enable-background="new 0 0 71.75 36.521" xml:space="preserve">
<path d="M12.639,15.616c0,4.886-3.344,9-6.393,10.544c-0.919,0.44-1.874,0.771-3.05,0.771C1.8,26.932,0,25.498,0,23
	c0-2.24,1.543-6.87,4.629-9.553C5.842,12.383,7.422,11.5,9.185,11.5C11.426,11.5,12.639,13.852,12.639,15.616z M6.246,14.109
	c-1.727,1.983-3.674,6.502-3.674,10.177c0,0.846,0.441,1.616,1.396,1.616c0.588,0,1.396-0.366,2.425-1.653
	c1.58-1.91,3.857-6.723,3.857-10.029c0-1.029-0.367-1.764-1.359-1.764C8.046,12.456,7.201,12.97,6.246,14.109z"/>
<path d="M25.203,11.758c0.184,0,0.294,0.367,0.294,0.478c0,0.221-0.404,0.808-0.882,0.808c-0.809,0-2.167,0.11-3.233,0.11
	c-0.11,0-0.22,0.111-0.294,0.294c-1.176,3.711-3.49,12.089-4.666,16.313c-1.065,3.563-2.682,4.409-3.637,5.144
	c-1.359,0.955-3.417,1.617-4.115,1.617c-1.69,0-2.609-0.771-2.572-1.653c0-0.479,1.065-1.69,1.58-1.69
	c0.147-0.037,0.441,0.073,0.588,0.257c0.698,0.919,1.507,1.434,2.388,1.434c0.992,0,2.168-0.589,3.27-4.851
	c1.176-4.372,3.16-11.646,4.667-16.57c0.037-0.073,0-0.294-0.221-0.294l-2.241,0.073c-0.257,0-0.367-0.22-0.367-0.367
	c0-0.44,0.404-0.881,0.698-0.881c0.662,0,1.911-0.037,2.425-0.037c0.11,0,0.221-0.184,0.257-0.257
	c1.212-3.528,3.344-8.451,6.136-10.325C26.746,0.331,27.885,0,28.877,0c1.874,0,2.755,1.176,2.719,2.315
	c-0.037,1.579-1.213,2.498-1.801,2.498c-0.183,0-0.293-0.11-0.293-0.367c0-0.185,0.037-0.552,0.037-0.771
	c0.037-1.359-0.551-2.608-1.543-2.608c-1.103,0-2.058,0.587-3.491,3.123c-0.955,1.727-2.094,4.922-2.792,7.311
	c-0.037,0.146,0.11,0.368,0.147,0.368L25.203,11.758z"/>
<path d="M39.934,8.598c-0.11,0.44-0.772,2.608-0.882,3.014c-0.037,0.109,0.037,0.33,0.184,0.33c0.771,0,2.462,0.073,3.417,0.109
	c0.073,0,0.147,0.147,0.147,0.294c0.037,0.222-0.331,0.771-0.735,0.809c-0.552,0.037-2.719,0.146-3.417,0.146
	c-0.109,0-0.257,0.111-0.33,0.295c-0.515,1.176-2.462,6.245-3.528,9.259c-0.22,0.625-0.183,1.029,0.184,1.029
	c0.735,0,2.902-1.507,3.674-2.352c0.331-0.295,0.809-0.552,0.809-0.111c0,0.295-0.11,0.552-0.331,0.883
	c-1.47,2.057-5.144,4.556-6.87,4.556c-0.368,0-0.955-0.552-0.955-0.846c0-0.184,0.036-0.477,0.183-0.918
	c0.147-0.368,2.682-7.275,4.262-11.354c0.11-0.257,0.037-0.441-0.073-0.441c-0.515-0.035-1.433-0.073-1.948-0.109
	c-0.367-0.037-0.588-0.184-0.588-0.331c0-0.257,0.478-0.734,0.735-0.771c0.735-0.073,1.984-0.109,2.241-0.109
	c0.184,0,0.368-0.258,0.404-0.367c0.551-1.066,1.102-2.095,1.506-2.757c0.479-0.771,0.956-1.065,1.727-1.065
	C40.082,7.789,40.119,7.974,39.934,8.598z"/>
<path d="M53.858,24.176c-0.845,0.919-1.69,1.507-2.388,1.984c-0.846,0.551-1.396,0.882-1.838,0.882
	c-0.551,0-1.102-0.221-1.359-0.441c-0.293-0.331-0.33-0.514-0.33-0.698c0-0.22,0.661-1.176,0.918-1.322
	c0.11-0.073,0.11-0.11,0.221-0.073c0.588,0.22,1.213,0.698,1.984,0.698c0.257,0,0.478-0.11,0.734-0.551
	c1.103-1.543,3.196-8.048,3.196-10.215c0-0.955-0.403-1.47-1.065-1.47c-1.285,0-2.792,1.617-5.658,5.364
	c-1.065,1.47-3.82,6.136-4.666,7.826c-0.257,0.44-0.881,0.771-1.028,0.771c-0.588,0-1.065-0.697-0.956-1.139
	c2.535-7.79,5.034-16.02,6.834-21.972c0.295-0.882,0.331-1.396-0.992-1.69c-0.588-0.146-0.771-0.478-0.771-0.588
	c0-0.146,0.295-0.33,0.662-0.441C48.457,0.809,51.287,0,51.837,0c0.146,0,0.33,0.478,0.258,0.771
	c-1.801,5.695-5.586,16.828-5.77,17.488c-0.109,0.368,0.147,0.405,0.295,0.222c1.543-1.984,3.6-4.336,5.18-5.512
	c1.653-1.212,2.498-1.47,3.602-1.47c1.799,0,2.351,1.727,2.351,2.425C57.752,17.636,55.291,22.56,53.858,24.176z"/>
<path d="M71.75,13.741c0,1.139-1.065,2.608-2.829,3.602c-1.323,0.734-3.821,1.542-5.364,1.983c-0.258,0.073-0.514,0.294-0.588,0.552
	c-0.258,0.698-0.478,1.837-0.478,2.865c0,1.837,0.955,2.204,1.947,2.204c1.249,0,2.646-0.845,3.601-1.727
	c0.404-0.404,0.697-0.551,0.918-0.551c0.111,0,0.221,0.146,0.221,0.22c0,0.222-0.221,0.625-0.441,0.919
	c-0.918,1.064-3.343,3.05-6.062,3.05c-0.882,0-2.829-1.434-2.829-3.821c0-2.608,1.58-6.209,4.041-8.781
	c1.911-1.946,3.895-2.756,5.182-2.756C71.236,11.5,71.75,12.896,71.75,13.741z M63.63,18.077c-0.037,0.073-0.037,0.367,0.109,0.331
	c2.314-0.809,5.805-2.352,5.805-5.108c0-0.477-0.146-0.917-0.624-0.917C67.046,12.383,64.254,16.093,63.63,18.077z"/>
</svg>
