<?xml version="1.0" encoding="utf-8"?>
<!-- Generator: Adobe Illustrator 16.0.0, SVG Export Plug-In . SVG Version: 6.00 Build 0)  -->
<!DOCTYPE svg PUBLIC "-//W3C//DTD SVG 1.1//EN" "http://www.w3.org/Graphics/SVG/1.1/DTD/svg11.dtd">
<svg version="1.1" id="Layer_1" xmlns="http://www.w3.org/2000/svg" xmlns:xlink="http://www.w3.org/1999/xlink" x="0px" y="0px"
	 width="139.091px" height="37.256px" viewBox="0 0 139.091 37.256" enable-background="new 0 0 139.091 37.256"
	 xml:space="preserve">
<path d="M37.697,18.132c0,7.604-3.638,12.841-7.661,15.762c-3.361,2.425-7.991,3.362-11.077,3.362
	c-5.677,0-10.967-2.425-14.329-6.228C1.653,27.831,0,23.367,0,18.518c0-6.725,3.031-11.299,7.165-14.66
	C9.81,1.708,14.494,0,18.573,0C29.485,0,37.697,7.991,37.697,18.132z M10.03,4.85c-2.37,2.26-4.188,6.393-4.188,12.896
	c0,8.211,5.842,17.58,14.439,17.58c4.299,0,6.394-1.873,6.945-2.535c2.259-2.094,4.629-6.558,4.629-13.006
	c0-5.622-2.425-11.629-6.503-14.991c-2.149-1.818-5.511-2.976-8.046-2.976C14.935,1.818,11.794,3.086,10.03,4.85z"/>
<path d="M43.535,15.982c1.874-0.661,3.748-1.488,4.409-1.873c0.661-0.441,0.992-0.607,1.157-0.607c0.276,0,0.551,0.441,0.551,0.607
	c0,0.99-0.11,1.983-0.11,3.029c0,0.222,0.275,0.331,0.331,0.222c2.094-1.984,4.519-3.417,6.228-3.417
	c2.314,0,2.865,1.433,2.865,1.929c0,0.165-0.165,0.551-0.33,0.827c-0.662,0.937-1.984,2.534-2.37,2.7
	c-0.11,0.056-0.661-0.056-0.827-0.166c-0.606-0.551-2.039-1.268-3.141-1.268c-0.827,0-1.653,0.11-2.15,0.662
	c-0.385,0.386-0.551,0.827-0.551,1.212c0,1.103,0.22,10.968,0.275,11.794c0.11,1.599,0.496,2.646,1.433,2.866
	c0.661,0.109,1.708,0.386,2.48,0.605c0.882,0.275,1.047,0.662,1.047,0.883c0,0.33-0.496,0.551-1.378,0.551
	c-1.433,0-3.582-0.276-6.778-0.276c-1.543,0-2.315,0.222-3.637,0.222c-0.606,0-1.158-0.222-1.158-0.717
	c0-0.331,0.716-0.551,1.102-0.717c2.095-0.716,2.26-1.268,2.315-4.574c0-1.378,0-6.613,0-10.251c0-0.661,0-1.378-0.551-1.764
	c-1.212-0.937-1.929-1.378-1.929-1.598C42.818,16.753,42.983,16.148,43.535,15.982z"/>
<path d="M62.326,15.651c2.149-0.44,4.905-1.653,5.731-1.874c0.276,0,0.551,0.496,0.551,0.606c-0.055,0.827-0.331,8.102-0.331,11.243
	c0,2.811,0.055,5.016,0.111,6.943c0.054,1.709,1.157,1.875,2.534,2.315c0.883,0.275,1.213,0.605,1.213,0.937
	c0,0.386-0.717,0.606-1.378,0.606c-0.386,0-3.142-0.166-4.298-0.166c-1.819,0-3.858,0.222-4.85,0.222
	c-0.827,0-1.433-0.276-1.433-0.662c0-0.331,0.386-0.605,1.323-0.827c1.268-0.386,2.04-1.046,2.205-1.598
	c0.166-0.771,0.22-4.188,0.22-6.283c0-0.33,0.056-7.164-0.055-7.825c-0.055-0.386-0.662-0.883-2.205-1.984
	c-0.331-0.275-0.496-0.496-0.496-0.661C61.169,16.258,61.72,15.816,62.326,15.651z M68.884,5.565c0,1.544-1.598,2.812-2.755,2.812
	c-0.386,0-1.322-0.221-1.874-0.717c-0.44-0.496-0.882-1.102-0.882-2.095c0-0.551,0.221-1.487,0.717-2.039
	C64.696,2.976,65.578,2.7,66.404,2.7C68.002,2.7,68.884,4.52,68.884,5.565z"/>
<path d="M91.258,16.148c1.157,1.156,1.929,2.755,1.929,4.684c0,0.331-0.496,1.047-1.102,1.047c-0.607,0-9.922,0-12.455-0.055
	c-0.166,0-0.441,0.221-0.497,0.44c-0.165,0.441-0.22,1.323-0.22,1.929c0,1.93,0.826,4.465,1.982,6.008
	c1.268,1.653,3.583,2.977,6.229,2.977c2.369,0,4.023-0.607,4.961-1.984c0.219-0.276,0.495-0.662,0.715-0.662
	c0.332,0,0.497,0.441,0.497,0.662c0,0.44-0.276,1.047-0.44,1.377c-1.875,2.756-4.74,4.244-8.213,4.244
	c-6.007,0-9.92-4.574-9.92-10.968c0-4.408,2.314-8.817,6.669-10.856c1.433-0.661,3.251-0.937,4.298-0.937
	C87.675,14.054,89.825,14.77,91.258,16.148z M79.684,19.675c-0.11,0.275,0.11,0.606,0.276,0.606c1.433,0.056,4.078,0.056,6.834,0
	c1.212,0,1.873-0.331,1.873-1.489c0-1.542-1.598-3.36-3.527-3.36C82.716,15.432,80.622,17.139,79.684,19.675z"/>
<path d="M98.035,15.597c0.992-0.331,3.087-1.103,3.857-1.599c0.607-0.386,1.213-0.661,1.488-0.661c0.221,0,0.496,0.606,0.496,0.826
	c0,0.827-0.165,2.204-0.165,2.701c0,0.274,0.33,0.165,0.33,0.165c2.205-1.544,4.961-3.031,7.331-3.031
	c2.699,0,4.243,1.213,5.015,2.095c1.268,1.433,1.929,3.968,1.929,6.724c0,1.102,0.11,9.258,0.166,10.03
	c0.109,0.826,0.661,1.543,2.039,1.929c1.047,0.275,1.377,0.605,1.377,0.937c0,0.387-0.771,0.662-1.598,0.662
	c-1.323,0-2.756-0.111-4.299-0.111c-1.379,0-3.197,0.111-3.912,0.111c-0.607,0-1.379-0.166-1.379-0.662
	c0-0.386,0.605-0.717,1.322-0.937c1.268-0.496,1.599-0.992,1.709-2.811c0.109-1.819,0.109-8.487,0.109-10.086
	c0-1.764-0.881-3.417-1.487-3.913s-2.26-1.047-3.472-1.047c-2.314,0-3.692,0.771-4.63,1.599c-0.221,0.165-0.551,0.882-0.551,1.322
	c-0.056,0.717,0,12.565,0.056,13.228c0.055,0.771,0.274,1.212,1.983,1.708c0.552,0.165,0.991,0.551,0.991,0.882
	c0,0.386-0.605,0.661-1.432,0.661c-0.717,0-2.37-0.056-3.527-0.056c-2.039,0-3.748,0.166-4.685,0.166
	c-0.827,0-1.433-0.275-1.433-0.771c0-0.386,0.551-0.662,1.156-0.826c1.818-0.552,2.095-1.104,2.26-3.087
	c0.166-1.653,0.331-6.393,0.331-11.959c0-0.606-0.22-1.157-1.378-2.149c-0.717-0.552-0.937-0.771-0.937-0.937
	C97.098,16.313,97.649,15.763,98.035,15.597z"/>
<path d="M138.209,14.494c0.11,0,0.606,0.275,0.661,0.496c0-0.165,0.166,1.433,0.166,2.094c0,0.552-1.048,0.662-1.434,0.662
	c-0.221,0-5.29,0-5.896,0c-0.221,0-0.441,0.275-0.441,0.386c-0.11,1.433-0.166,8.928-0.166,11.684c0,1.378,0.387,2.095,0.993,2.7
	c0.937,0.826,2.095,1.048,3.196,1.048c0.661,0,1.818-0.331,2.646-0.827c0.495-0.275,0.661-0.331,0.882-0.331
	c0,0,0.275,0.11,0.275,0.606s-0.386,1.047-0.771,1.434c-1.488,1.487-3.473,2.479-5.953,2.479c-2.259,0-4.188-1.322-4.959-2.535
	c-0.606-0.937-0.717-2.039-0.717-3.692c0-2.039,0.221-10.306,0.221-12.235c0-0.386-0.992-0.771-2.149-1.046
	c-0.44-0.166-0.717-0.497-0.717-0.717c0-0.221,0.11-0.441,0.331-0.606c2.094-1.599,3.857-2.866,4.684-3.914
	c0.662-0.716,1.048-1.212,1.268-1.212c0.276,0,0.827,0.496,0.827,0.661c0,0.221,0,1.048,0,2.646c0,0.166,0.276,0.441,0.497,0.441
	C132.864,14.715,137.989,14.494,138.209,14.494z"/>
</svg>
