<?xml version="1.0" encoding="utf-8"?>
<!-- Generator: Adobe Illustrator 16.0.0, SVG Export Plug-In . SVG Version: 6.00 Build 0)  -->
<!DOCTYPE svg PUBLIC "-//W3C//DTD SVG 1.1//EN" "http://www.w3.org/Graphics/SVG/1.1/DTD/svg11.dtd">
<svg version="1.1" id="Layer_1" xmlns="http://www.w3.org/2000/svg" xmlns:xlink="http://www.w3.org/1999/xlink" x="0px" y="0px"
	 width="464.958px" height="20.396px" viewBox="0 0 464.958 20.396" enable-background="new 0 0 464.958 20.396"
	 xml:space="preserve">
<g>
	<path fill="#FFFFFF" d="M9.219,7.349C9.043,7.525,8.075,8.163,7.877,8.251c-0.088,0.021-0.11,0.22-0.066,0.33
		c0.308,0.616,1.915,3.08,2.948,4.247c1.079,1.209,1.694,1.518,2.597,1.737c0.22,0.043,0.308,0.197,0.308,0.33
		c0,0.418-1.012,0.527-1.276,0.527c-0.968,0-2.266-0.132-3.895-2.244c-0.792-1.034-2.068-2.927-2.486-3.521
		C5.501,8.956,4.951,8.934,4.203,8.934c-0.176,0-0.308,0.198-0.308,0.33c0,1.76,0.022,2.882,0.088,3.653
		c0.066,0.791,0.352,1.078,1.364,1.342c0.418,0.109,0.594,0.242,0.594,0.484c0,0.264-0.374,0.396-0.704,0.396
		c-0.55,0-1.694-0.088-2.464-0.088c-0.682,0-1.056,0.088-1.871,0.088c-0.528,0-0.792-0.153-0.792-0.374
		c0-0.197,0.22-0.33,0.616-0.462c0.858-0.286,1.144-0.396,1.188-1.496c0.022-0.792,0.022-1.519,0.022-5.479
		c0-2.707-0.044-3.608-0.088-4.071c-0.044-0.44-0.374-0.682-1.21-0.836C0.264,2.354,0,2.178,0,1.98c0-0.33,0.418-0.418,0.88-0.418
		c1.123,0,1.65,0,1.937,0c0.836,0,1.738-0.109,2.794-0.109c1.936,0,2.75,0.439,3.278,0.836c1.034,0.792,1.364,1.737,1.364,2.706
		C10.253,5.809,9.857,6.755,9.219,7.349z M5.083,2.333c-0.286,0-0.77,0.088-0.99,0.176C3.96,2.552,3.851,2.75,3.851,2.949
		c-0.044,1.21,0,3.586,0.044,4.687c0,0.132,0.066,0.22,0.176,0.264c0.484,0.133,0.902,0.198,1.32,0.198
		c0.33,0,1.563-0.396,2.046-0.836c0.352-0.352,0.726-1.1,0.726-1.979C8.163,3.698,7.327,2.333,5.083,2.333z"/>
	<path fill="#FFFFFF" d="M21.428,7.173c0.286,0.418,0.374,0.99,0.374,1.54c0,0.242-0.374,0.66-0.594,0.66
		c-0.154,0-4.335,0.065-4.731,0.065c-0.066,0-0.308,0.132-0.352,0.242c-0.088,0.154-0.11,0.55-0.11,0.682
		c0,1.958,1.474,3.454,3.366,3.454c0.858,0,1.805-0.55,2.223-0.836c0.088-0.064,0.264,0.044,0.264,0.286s-0.11,0.484-0.286,0.683
		c-0.814,0.857-1.98,1.364-3.146,1.364c-2.75,0-4.313-1.871-4.313-4.555c0-1.783,0.814-3.301,2.135-4.159
		c0.726-0.483,1.65-0.748,2.574-0.748C19.888,5.853,20.9,6.315,21.428,7.173z M16.28,8.427c-0.022,0.088,0.088,0.22,0.132,0.22
		c0.242,0.022,0.968,0.044,1.606,0.044c0.836,0,1.848-0.044,1.848-0.792c0-0.659-0.528-1.254-1.694-1.254
		C17.622,6.645,16.565,7.327,16.28,8.427z"/>
	<path fill="#FFFFFF" d="M31.791,6.799c0.946,0.836,1.408,2.244,1.408,3.256c0,2.134-1.122,3.829-3.323,4.775
		c-0.616,0.285-1.958,0.462-2.42,0.462c-0.264,0-0.66,0-0.814-0.044c-0.066-0.022-0.22,0.264-0.22,0.438c0,0.99-0.022,2.003,0,2.751
		c0,0.286,0.066,0.528,1.188,0.858c0.506,0.153,0.66,0.308,0.66,0.438c0,0.242-0.242,0.418-0.616,0.418
		c-0.176,0-1.012,0.046-2.024,0.046c-0.902,0-2.002,0.196-2.288,0.196c-0.264,0-0.638-0.065-0.638-0.396
		c0-0.131,0.176-0.33,0.594-0.439c1.034-0.286,1.166-0.704,1.21-1.452c0.066-1.298,0.132-2.464,0.132-3.829
		c0.044-4.201,0-4.993-0.022-5.896c0-0.154-0.044-0.33-0.748-0.836c-0.308-0.198-0.396-0.308-0.396-0.374
		c0-0.198,0.264-0.462,0.506-0.594c0.33-0.154,1.078-0.462,1.408-0.683c0.286-0.176,0.594-0.33,0.748-0.33
		c0.088,0,0.308,0.221,0.308,0.309c0,0.176-0.066,0.616-0.066,0.88c0,0.088,0.132,0.154,0.22,0.11
		c0.55-0.33,1.232-0.639,1.474-0.727c0.528-0.198,0.924-0.264,1.342-0.264C30.382,5.875,31.174,6.227,31.791,6.799z M26.774,7.613
		c-0.044,0.022-0.264,0.221-0.286,0.419c-0.044,0.726-0.066,2.376-0.066,3.277c0,1.277,0.066,1.563,0.198,1.761
		c0.66,0.946,1.65,1.188,1.893,1.188c0.792,0,1.342-0.33,1.716-0.704c0.484-0.507,1.034-1.496,1.034-2.729
		c0-1.65-0.88-3.675-2.816-3.675C27.72,7.151,27.17,7.349,26.774,7.613z"/>
	<path fill="#FFFFFF" d="M35.529,6.667c0.352-0.198,1.034-0.506,1.496-0.748c0.286-0.132,0.462-0.22,0.638-0.22
		c0.088,0,0.264,0.241,0.264,0.308c0.022,0.308,0.022,0.748,0.044,1.078c0,0.065,0.154,0.154,0.22,0.065
		c0.638-0.703,1.518-1.298,2.376-1.298c0.638,0,1.21,0.44,1.21,0.683c0,0.483-0.572,1.1-0.88,1.342
		c-0.11,0.109-0.264,0.176-0.352,0.176c-0.154,0-0.286-0.066-0.506-0.22c-0.176-0.132-0.506-0.265-0.792-0.265
		c-0.396,0-0.726,0.133-1.012,0.507c-0.088,0.109-0.198,0.374-0.198,0.506c0,0.22-0.022,3.388,0.044,4.158
		c0.066,1.033,0.242,1.255,1.232,1.519c0.506,0.132,0.792,0.309,0.792,0.506c0,0.176-0.286,0.374-0.55,0.374
		c-0.682,0-1.804-0.088-2.442-0.088c-0.77,0-1.166,0.065-1.782,0.065c-0.396,0-0.594-0.241-0.594-0.353
		c0-0.242,0.242-0.374,0.506-0.462c0.858-0.308,0.924-0.638,0.946-1.144c0.044-0.99,0.066-3.697,0.066-4.863
		c0-0.132-0.022-0.286-0.55-0.66c-0.242-0.176-0.484-0.374-0.484-0.506C35.221,6.931,35.353,6.755,35.529,6.667z"/>
	<path fill="#FFFFFF" d="M50.094,7.173c0.286,0.418,0.374,0.99,0.374,1.54c0,0.242-0.374,0.66-0.594,0.66
		c-0.154,0-4.335,0.065-4.731,0.065c-0.066,0-0.308,0.132-0.352,0.242c-0.088,0.154-0.11,0.55-0.11,0.682
		c0,1.958,1.474,3.454,3.366,3.454c0.858,0,1.805-0.55,2.223-0.836c0.088-0.064,0.264,0.044,0.264,0.286s-0.11,0.484-0.286,0.683
		c-0.814,0.857-1.98,1.364-3.146,1.364c-2.75,0-4.313-1.871-4.313-4.555c0-1.783,0.814-3.301,2.134-4.159
		c0.726-0.483,1.65-0.748,2.574-0.748C48.554,5.853,49.566,6.315,50.094,7.173z M44.945,8.427c-0.022,0.088,0.088,0.22,0.132,0.22
		c0.242,0.022,0.968,0.044,1.606,0.044c0.836,0,1.848-0.044,1.848-0.792c0-0.659-0.528-1.254-1.694-1.254
		C46.287,6.645,45.231,7.327,44.945,8.427z"/>
	<path fill="#FFFFFF" d="M56.979,6.029c0.242,0.066,0.506,0.133,0.704,0.198c0.11,0.044,0.352,0.353,0.374,0.44
		c0.044,0.132,0.044,0.968,0.044,1.21c0,0.154-0.176,0.638-0.484,0.638c-0.088,0-0.286-0.198-0.484-0.594
		c-0.484-0.902-1.21-1.276-1.672-1.276c-0.506,0-1.276,0.484-1.276,1.298c0,1.078,0.946,1.364,2.09,1.958
		c1.144,0.595,2.112,1.277,2.112,2.575c0,1.254-0.814,2.046-1.65,2.421c-0.638,0.308-1.342,0.418-1.892,0.418
		c-1.342,0-2.002-0.309-2.244-0.551c-0.22-0.22-0.44-1.188-0.44-1.584c0-0.572,0.154-0.727,0.396-0.727
		c0.132,0,0.286,0.153,0.572,0.594c0.638,0.99,1.408,1.408,2.002,1.408c0.99,0,1.54-0.66,1.54-1.363
		c0-0.418-0.242-0.881-0.792-1.232c-0.594-0.352-1.078-0.594-1.738-0.969c-0.726-0.418-1.584-1.1-1.584-2.397
		c0-1.057,0.594-1.673,1.123-2.068c0.506-0.33,1.43-0.572,1.914-0.572C56.165,5.853,56.671,5.919,56.979,6.029z"/>
	<path fill="#FFFFFF" d="M67.539,7.173c0.286,0.418,0.374,0.99,0.374,1.54c0,0.242-0.374,0.66-0.594,0.66
		c-0.154,0-4.335,0.065-4.731,0.065c-0.066,0-0.308,0.132-0.352,0.242c-0.088,0.154-0.11,0.55-0.11,0.682
		c0,1.958,1.474,3.454,3.366,3.454c0.858,0,1.805-0.55,2.223-0.836c0.088-0.064,0.264,0.044,0.264,0.286s-0.11,0.484-0.286,0.683
		c-0.814,0.857-1.98,1.364-3.146,1.364c-2.75,0-4.313-1.871-4.313-4.555c0-1.783,0.814-3.301,2.134-4.159
		c0.726-0.483,1.65-0.748,2.574-0.748C65.999,5.853,67.011,6.315,67.539,7.173z M62.391,8.427c-0.022,0.088,0.088,0.22,0.132,0.22
		c0.242,0.022,0.968,0.044,1.606,0.044c0.836,0,1.848-0.044,1.848-0.792c0-0.659-0.528-1.254-1.694-1.254
		C63.732,6.645,62.676,7.327,62.391,8.427z"/>
	<path fill="#FFFFFF" d="M70.354,6.513c0.418-0.198,0.99-0.396,1.43-0.616c0.264-0.132,0.528-0.22,0.572-0.22
		c0.066,0,0.374,0.088,0.374,0.264c0,0.11-0.022,0.748-0.044,0.969c-0.022,0.109,0.088,0.109,0.154,0.065
		c0.682-0.462,1.738-1.122,3.125-1.122c1.122,0,1.694,0.55,2.024,1.034c0.352,0.506,0.638,1.408,0.66,2.926
		c0.022,1.078,0.022,2.311,0.066,3.3c0.022,0.64,0.176,0.837,0.572,1.034c0.506,0.198,0.66,0.419,0.66,0.616
		c0,0.221-0.352,0.353-0.638,0.353s-0.99-0.065-1.65-0.065c-0.638,0-1.123,0.065-1.386,0.065c-0.286,0-0.594-0.065-0.594-0.353
		c0-0.132,0.11-0.309,0.484-0.462c0.55-0.198,0.704-0.396,0.727-0.946c0.022-1.078,0.022-2.023,0.022-2.992
		c0-1.649-0.198-2.311-0.418-2.597c-0.22-0.286-0.66-0.594-1.562-0.594c-0.836,0-1.474,0.198-1.892,0.484
		c-0.044,0.044-0.264,0.285-0.264,0.55c0,0.22,0,4.599,0,5.104c0,0.33-0.022,0.596,0.858,0.925c0.396,0.153,0.572,0.353,0.572,0.527
		s-0.22,0.353-0.616,0.353c-0.726,0-1.386-0.065-1.914-0.065c-0.682,0-1.386,0.065-1.738,0.065c-0.396,0-0.638-0.109-0.638-0.33
		c0-0.22,0.264-0.396,0.484-0.461c0.968-0.31,1.1-0.572,1.122-1.058c0.066-1.057,0.132-2.707,0.132-4.951
		c0-0.352-0.22-0.594-0.77-0.924c-0.264-0.198-0.308-0.286-0.308-0.33C69.958,6.909,70.155,6.601,70.354,6.513z"/>
	<path fill="#FFFFFF" d="M86.81,6.029c0.154,0,0.264,0.242,0.286,0.374c0,0.242,0,0.595-0.022,0.704
		c-0.066,0.242-0.264,0.286-0.506,0.286c-0.814,0-1.98,0.022-2.486,0.022c-0.044,0-0.154,0.088-0.154,0.33l-0.066,4.005
		c-0.022,0.989,0.066,1.342,0.33,1.648c0.286,0.309,0.924,0.484,1.188,0.484c0.396,0,0.682-0.11,1.012-0.198
		c0.198-0.044,0.352-0.132,0.484-0.132c0.088,0,0.198,0.153,0.198,0.33c0,0.241-0.176,0.506-0.528,0.771
		c-0.704,0.527-1.694,0.683-2.245,0.683c-0.594,0-1.452-0.31-1.936-1.012c-0.176-0.266-0.308-0.771-0.308-1.563
		c0-1.541,0.11-2.883,0.11-4.973c0-0.242-0.066-0.265-0.682-0.353c-0.352-0.044-0.66-0.527-0.66-0.638
		c0-0.088,0.264-0.286,0.462-0.462c0.374-0.309,1.188-0.814,1.584-1.32c0.352-0.439,0.77-0.572,0.88-0.572
		c0.088,0,0.198,0.221,0.198,0.33c0,0.242-0.022,0.946-0.022,1.078c0,0.088,0.022,0.265,0.176,0.265
		C84.346,6.117,86.304,6.029,86.81,6.029z"/>
	<path fill="#FFFFFF" d="M94.576,6.689c0.44,0.396,0.748,1.431,0.748,1.894c0,0.836-0.088,1.76-0.088,4.225
		c0,0.727,0.374,1.078,0.792,1.078c0.176,0,0.572-0.11,0.748-0.198c0.088-0.044,0.198,0.176,0.198,0.353
		c0,0.088-0.154,0.507-0.198,0.571c-0.33,0.44-0.858,0.793-1.606,0.793c-0.572,0-1.276-0.221-1.562-1.364
		c0-0.021-0.176-0.131-0.22-0.109c-0.462,0.353-1.188,0.771-1.694,1.057c-0.396,0.22-0.77,0.33-1.166,0.33
		c-0.66,0-2.09-0.813-2.09-2.598c0-0.527,0.176-0.857,0.33-1.056c0.33-0.418,0.792-0.616,0.88-0.639
		c2.223-0.527,3.257-0.792,3.741-1.056c0.11-0.044,0.242-0.198,0.242-0.33c0-0.462,0-0.572,0-0.836c0-0.242,0-0.374-0.066-0.572
		c-0.308-0.857-1.254-1.231-1.936-1.231c-0.462,0-0.902,0.198-0.99,0.286c-0.088,0.109-0.176,0.418-0.22,1.077
		c-0.022,0.242-0.11,0.419-0.198,0.484c-0.11,0.088-0.506,0.176-0.638,0.176c-0.176,0-0.726-0.021-0.924-0.109
		c-0.11-0.044-0.264-0.265-0.264-0.353c0-0.375,0.638-1.056,1.584-1.716c0.836-0.55,1.848-0.99,2.597-0.99
		C93.388,5.853,93.938,6.095,94.576,6.689z M93.366,13.092c0.066-0.154,0.154-0.396,0.176-0.66l0.022-1.408
		c0-0.088-0.11-0.133-0.176-0.133c-0.638,0.11-1.915,0.418-2.354,0.572c-0.616,0.221-0.814,0.463-0.814,1.013
		c0,0.704,0.66,1.364,1.474,1.364C92.178,13.84,92.882,13.554,93.366,13.092z"/>
	<path fill="#FFFFFF" d="M103.464,6.029c0.154,0,0.264,0.242,0.286,0.374c0,0.242,0,0.595-0.022,0.704
		c-0.066,0.242-0.264,0.286-0.506,0.286c-0.814,0-1.98,0.022-2.486,0.022c-0.044,0-0.154,0.088-0.154,0.33l-0.066,4.005
		c-0.022,0.989,0.066,1.342,0.33,1.648c0.286,0.309,0.924,0.484,1.188,0.484c0.396,0,0.682-0.11,1.012-0.198
		c0.198-0.044,0.352-0.132,0.484-0.132c0.088,0,0.198,0.153,0.198,0.33c0,0.241-0.176,0.506-0.528,0.771
		c-0.704,0.527-1.694,0.683-2.245,0.683c-0.594,0-1.452-0.31-1.936-1.012c-0.176-0.266-0.308-0.771-0.308-1.563
		c0-1.541,0.11-2.883,0.11-4.973c0-0.242-0.066-0.265-0.682-0.353c-0.352-0.044-0.66-0.527-0.66-0.638
		c0-0.088,0.264-0.286,0.462-0.462c0.374-0.309,1.188-0.814,1.584-1.32c0.352-0.439,0.77-0.572,0.88-0.572
		c0.088,0,0.198,0.221,0.198,0.33c0,0.242-0.022,0.946-0.022,1.078c0,0.088,0.022,0.265,0.176,0.265
		C101,6.117,102.958,6.029,103.464,6.029z"/>
	<path fill="#FFFFFF" d="M105.905,6.557c1.1-0.396,2.002-0.726,2.376-0.726c0.088,0,0.22,0.286,0.22,0.352c0,0.814,0,2.42,0,4.026
		c0.022,2.883,0.066,3.301,0.088,3.498c0.022,0.177,0.11,0.396,0.902,0.617c0.308,0.088,0.528,0.284,0.528,0.506
		c0,0.196-0.352,0.285-0.638,0.285c-0.462,0-1.364-0.065-1.848-0.065c-1.122,0-1.54,0.065-1.848,0.065c-0.44,0-0.66-0.132-0.66-0.33
		c0-0.197,0.22-0.353,0.528-0.439c0.968-0.242,1.012-0.418,1.1-1.32c0.044-0.462,0.088-1.958,0.088-3.212
		c0-0.439,0-1.584-0.022-1.716c-0.022-0.176-0.22-0.418-0.858-0.836c-0.154-0.088-0.242-0.352-0.242-0.439
		C105.619,6.711,105.772,6.601,105.905,6.557z M108.215,1.563c0.264,0.309,0.374,0.727,0.374,0.902c0,0.88-0.77,1.254-1.166,1.254
		c-0.33,0-0.704-0.22-0.946-0.506c-0.132-0.22-0.22-0.374-0.22-0.66c0-0.726,0.506-1.254,1.276-1.254
		C107.841,1.298,108.039,1.408,108.215,1.563z"/>
	<path fill="#FFFFFF" d="M120.756,10.452c0,1.672-0.682,2.859-1.43,3.543c-0.792,0.726-1.87,1.319-3.322,1.319
		c-1.298,0-2.552-0.528-3.477-1.431c-0.946-0.925-1.298-2.267-1.298-3.257c0-1.54,0.792-2.882,1.76-3.652
		c0.726-0.616,1.937-1.122,3.081-1.122C119.106,5.853,120.734,8.427,120.756,10.452z M114.243,7.393
		c-0.22,0.242-0.902,1.232-0.902,2.904c0,1.231,0.418,2.75,1.32,3.521c0.22,0.178,0.858,0.596,1.672,0.596
		c0.528,0,1.232-0.31,1.672-0.858c0.462-0.595,0.594-1.673,0.594-2.948c0-1.871-0.99-3.829-2.86-3.829
		C115.255,6.777,114.551,7.063,114.243,7.393z"/>
	<path fill="#FFFFFF" d="M123.13,6.513c0.418-0.198,0.99-0.396,1.43-0.616c0.264-0.132,0.528-0.22,0.572-0.22
		c0.066,0,0.374,0.088,0.374,0.264c0,0.11-0.022,0.748-0.044,0.969c-0.022,0.109,0.088,0.109,0.154,0.065
		c0.682-0.462,1.738-1.122,3.125-1.122c1.122,0,1.694,0.55,2.024,1.034c0.352,0.506,0.638,1.408,0.66,2.926
		c0.022,1.078,0.022,2.311,0.066,3.3c0.022,0.64,0.176,0.837,0.572,1.034c0.506,0.198,0.66,0.419,0.66,0.616
		c0,0.221-0.352,0.353-0.638,0.353s-0.99-0.065-1.65-0.065c-0.638,0-1.123,0.065-1.386,0.065c-0.286,0-0.594-0.065-0.594-0.353
		c0-0.132,0.11-0.309,0.484-0.462c0.55-0.198,0.704-0.396,0.727-0.946c0.022-1.078,0.022-2.023,0.022-2.992
		c0-1.649-0.198-2.311-0.418-2.597s-0.66-0.594-1.562-0.594c-0.836,0-1.474,0.198-1.892,0.484c-0.044,0.044-0.264,0.285-0.264,0.55
		c0,0.22,0,4.599,0,5.104c0,0.33-0.022,0.596,0.858,0.925c0.396,0.153,0.572,0.353,0.572,0.527s-0.22,0.353-0.616,0.353
		c-0.726,0-1.386-0.065-1.914-0.065c-0.682,0-1.386,0.065-1.738,0.065c-0.396,0-0.638-0.109-0.638-0.33
		c0-0.22,0.264-0.396,0.484-0.461c0.968-0.31,1.1-0.572,1.122-1.058c0.066-1.057,0.132-2.707,0.132-4.951
		c0-0.352-0.22-0.594-0.77-0.924c-0.264-0.198-0.308-0.286-0.308-0.33C122.734,6.909,122.932,6.601,123.13,6.513z"/>
	<path fill="#FFFFFF" d="M148.255,10.452c0,1.672-0.682,2.859-1.43,3.543c-0.792,0.726-1.87,1.319-3.322,1.319
		c-1.298,0-2.552-0.528-3.477-1.431c-0.946-0.925-1.298-2.267-1.298-3.257c0-1.54,0.792-2.882,1.76-3.652
		c0.726-0.616,1.937-1.122,3.081-1.122C146.605,5.853,148.233,8.427,148.255,10.452z M141.742,7.393
		c-0.22,0.242-0.902,1.232-0.902,2.904c0,1.231,0.418,2.75,1.32,3.521c0.22,0.178,0.858,0.596,1.672,0.596
		c0.528,0,1.232-0.31,1.672-0.858c0.462-0.595,0.594-1.673,0.594-2.948c0-1.871-0.99-3.829-2.86-3.829
		C142.754,6.777,142.05,7.063,141.742,7.393z"/>
	<path fill="#FFFFFF" d="M150.211,7.305c-0.198-0.044-0.374-0.11-0.374-0.308c0-0.309,0.286-0.462,1.188-0.858
		c0.088-0.021,0.198-0.242,0.198-0.286c0-0.813,0.242-2.067,0.77-3.059c0.44-0.814,1.101-1.452,1.694-1.893
		C154.392,0.396,155.426,0,156.13,0c0.836,0,1.628,0.22,1.958,0.682c0.088,0.11,0.154,0.418,0.154,0.594
		c0,0.11-0.044,0.242-0.11,0.353c-0.176,0.352-0.66,0.616-0.88,0.616c-0.11,0-0.396-0.088-0.572-0.221
		c-0.308-0.241-1.056-0.813-1.584-0.813c-0.836,0-1.364,0.572-1.606,1.298c-0.286,0.814-0.396,2.068-0.396,3.037
		c0,0.439,0.066,0.572,0.176,0.572c0.704,0,2.376-0.066,2.53-0.066c0.264,0,0.308,0.726,0.308,0.924
		c0,0.044-0.242,0.418-0.374,0.418c-0.066,0-2.311-0.021-2.53-0.021c-0.11,0-0.198,0.109-0.198,0.66c0,1.869,0.066,3.102,0.11,4.84
		c0.022,1.035,0.264,1.188,1.408,1.364c0.374,0.065,0.66,0.285,0.66,0.439c0,0.264-0.286,0.439-0.726,0.439
		c-0.286,0-1.1-0.065-2.332-0.065c-0.242,0-1.012,0.065-1.628,0.065c-0.462,0-0.704-0.153-0.704-0.396c0-0.198,0.22-0.308,0.55-0.44
		c0.572-0.241,0.814-0.506,0.836-0.901c0.022-0.353,0.066-2.046,0.066-5.632c0-0.11-0.132-0.286-0.176-0.286L150.211,7.305z"/>
	<path fill="#FFFFFF" d="M167.195,6.029c0.154,0,0.264,0.242,0.286,0.374c0,0.242,0,0.595-0.022,0.704
		c-0.066,0.242-0.264,0.286-0.506,0.286c-0.814,0-1.98,0.022-2.486,0.022c-0.044,0-0.154,0.088-0.154,0.33l-0.066,4.005
		c-0.022,0.989,0.066,1.342,0.33,1.648c0.286,0.309,0.924,0.484,1.188,0.484c0.396,0,0.682-0.11,1.012-0.198
		c0.198-0.044,0.352-0.132,0.484-0.132c0.088,0,0.198,0.153,0.198,0.33c0,0.241-0.176,0.506-0.528,0.771
		c-0.704,0.527-1.694,0.683-2.245,0.683c-0.594,0-1.452-0.31-1.936-1.012c-0.176-0.266-0.308-0.771-0.308-1.563
		c0-1.541,0.11-2.883,0.11-4.973c0-0.242-0.066-0.265-0.682-0.353c-0.352-0.044-0.66-0.527-0.66-0.638
		c0-0.088,0.264-0.286,0.462-0.462c0.374-0.309,1.188-0.814,1.584-1.32c0.352-0.439,0.77-0.572,0.88-0.572
		c0.088,0,0.198,0.221,0.198,0.33c0,0.242-0.022,0.946-0.022,1.078c0,0.088,0.022,0.265,0.176,0.265
		C164.731,6.117,166.689,6.029,167.195,6.029z"/>
	<path fill="#FFFFFF" d="M177.184,6.843c0.528,0.572,0.814,1.782,0.814,2.948c0,0.704,0.065,3.213,0.065,3.543
		c0,0.482,0.088,0.682,0.792,0.924c0.353,0.109,0.551,0.309,0.551,0.506c0,0.286-0.396,0.353-0.639,0.353
		c-0.594,0-1.012-0.065-1.628-0.065c-0.462,0-1.012,0.065-1.606,0.065c-0.374,0-0.66-0.132-0.66-0.353
		c0-0.132,0.154-0.286,0.506-0.418c0.726-0.242,0.858-0.418,0.858-1.21c0-0.528,0.022-2.861,0-3.829
		c-0.021-0.638-0.176-1.123-0.462-1.497c-0.308-0.374-1.034-0.748-1.672-0.748c-1.012,0-1.518,0.221-1.958,0.639
		c-0.066,0.044-0.242,0.418-0.242,0.527c0,0.462,0,4.951,0.044,5.457c0,0.154,0.22,0.374,0.748,0.64
		c0.264,0.108,0.44,0.22,0.44,0.329c0,0.242-0.242,0.462-0.572,0.462c-0.396,0-1.078-0.065-1.672-0.065
		c-0.572,0-1.386,0.065-1.76,0.065c-0.44,0-0.638-0.153-0.638-0.353c0-0.242,0.22-0.352,0.572-0.462
		c0.638-0.198,0.924-0.44,0.968-0.925c0.044-0.418,0.132-1.231,0.132-6.05c0-3.015-0.044-3.938-0.088-4.556
		c-0.044-0.527-0.154-0.682-0.528-0.88c-0.352-0.22-0.484-0.439-0.484-0.55c0-0.22,0.22-0.374,0.462-0.44
		c0.308-0.088,1.034-0.374,1.541-0.594c0.308-0.109,0.462-0.176,0.66-0.176c0.088,0,0.242,0.154,0.242,1.012
		c0,0.792-0.066,4.533-0.066,5.523c0,0.153,0.11,0.22,0.154,0.198c0.242-0.154,0.836-0.551,1.475-0.792
		c0.462-0.177,0.836-0.221,1.408-0.221C176.172,5.853,176.787,6.381,177.184,6.843z"/>
	<path fill="#FFFFFF" d="M188.228,7.173c0.286,0.418,0.374,0.99,0.374,1.54c0,0.242-0.374,0.66-0.595,0.66
		c-0.153,0-4.334,0.065-4.73,0.065c-0.065,0-0.308,0.132-0.352,0.242c-0.089,0.154-0.11,0.55-0.11,0.682
		c0,1.958,1.475,3.454,3.366,3.454c0.858,0,1.805-0.55,2.223-0.836c0.088-0.064,0.264,0.044,0.264,0.286s-0.109,0.484-0.286,0.683
		c-0.813,0.857-1.979,1.364-3.146,1.364c-2.75,0-4.313-1.871-4.313-4.555c0-1.783,0.814-3.301,2.135-4.159
		c0.726-0.483,1.65-0.748,2.574-0.748C186.687,5.853,187.699,6.315,188.228,7.173z M183.078,8.427
		c-0.021,0.088,0.088,0.22,0.133,0.22c0.241,0.022,0.968,0.044,1.605,0.044c0.836,0,1.849-0.044,1.849-0.792
		c0-0.659-0.528-1.254-1.694-1.254C184.421,6.645,183.364,7.327,183.078,8.427z"/>
	<path fill="#FFFFFF" d="M209.876,8.273c0,2.333-1.232,4.886-3.652,6.249c-0.946,0.528-2.267,0.924-3.675,0.924
		c-4.114,0-7.305-3.188-7.305-7.063c0-1.716,0.682-3.564,1.979-4.885c1.343-1.342,3.367-2.288,5.325-2.288
		C206.619,1.21,209.876,4.159,209.876,8.273z M199.271,3.411c-0.946,0.989-1.628,2.508-1.628,4.708c0,3.081,2.046,6.381,5.412,6.381
		c0.99,0,1.98-0.33,2.707-1.013c0.88-0.837,1.693-2.442,1.693-5.127c0-3.125-2.046-6.227-5.303-6.227
		C201.097,2.134,199.931,2.772,199.271,3.411z"/>
	<path fill="#FFFFFF" d="M212.271,6.667c0.353-0.198,1.034-0.506,1.496-0.748c0.286-0.132,0.463-0.22,0.639-0.22
		c0.088,0,0.264,0.241,0.264,0.308c0.022,0.308,0.022,0.748,0.044,1.078c0,0.065,0.154,0.154,0.221,0.065
		c0.638-0.703,1.518-1.298,2.376-1.298c0.638,0,1.21,0.44,1.21,0.683c0,0.483-0.572,1.1-0.88,1.342
		c-0.11,0.109-0.264,0.176-0.353,0.176c-0.153,0-0.286-0.066-0.506-0.22c-0.176-0.132-0.506-0.265-0.792-0.265
		c-0.396,0-0.726,0.133-1.012,0.507c-0.088,0.109-0.198,0.374-0.198,0.506c0,0.22-0.022,3.388,0.044,4.158
		c0.066,1.033,0.242,1.255,1.232,1.519c0.506,0.132,0.792,0.309,0.792,0.506c0,0.176-0.286,0.374-0.55,0.374
		c-0.683,0-1.805-0.088-2.442-0.088c-0.771,0-1.167,0.065-1.782,0.065c-0.396,0-0.595-0.241-0.595-0.353
		c0-0.242,0.242-0.374,0.506-0.462c0.858-0.308,0.925-0.638,0.946-1.144c0.044-0.99,0.066-3.697,0.066-4.863
		c0-0.132-0.022-0.286-0.55-0.66c-0.242-0.176-0.484-0.374-0.484-0.506C211.964,6.931,212.096,6.755,212.271,6.667z"/>
	<path fill="#FFFFFF" d="M220.191,6.557c1.1-0.396,2.002-0.726,2.376-0.726c0.088,0,0.22,0.286,0.22,0.352c0,0.814,0,2.42,0,4.026
		c0.022,2.883,0.066,3.301,0.089,3.498c0.021,0.177,0.109,0.396,0.901,0.617c0.309,0.088,0.528,0.284,0.528,0.506
		c0,0.196-0.352,0.285-0.638,0.285c-0.462,0-1.364-0.065-1.849-0.065c-1.122,0-1.54,0.065-1.849,0.065
		c-0.439,0-0.659-0.132-0.659-0.33c0-0.197,0.22-0.353,0.527-0.439c0.969-0.242,1.013-0.418,1.101-1.32
		c0.044-0.462,0.088-1.958,0.088-3.212c0-0.439,0-1.584-0.022-1.716c-0.021-0.176-0.22-0.418-0.857-0.836
		c-0.154-0.088-0.242-0.352-0.242-0.439C219.905,6.711,220.06,6.601,220.191,6.557z M222.502,1.563
		c0.264,0.309,0.374,0.727,0.374,0.902c0,0.88-0.771,1.254-1.167,1.254c-0.33,0-0.704-0.22-0.945-0.506
		c-0.133-0.22-0.221-0.374-0.221-0.66c0-0.726,0.507-1.254,1.276-1.254C222.128,1.298,222.325,1.408,222.502,1.563z"/>
	<path fill="#FFFFFF" d="M232.908,7.173c0.286,0.418,0.374,0.99,0.374,1.54c0,0.242-0.374,0.66-0.595,0.66
		c-0.153,0-4.334,0.065-4.73,0.065c-0.066,0-0.308,0.132-0.352,0.242c-0.089,0.154-0.11,0.55-0.11,0.682
		c0,1.958,1.475,3.454,3.366,3.454c0.858,0,1.805-0.55,2.224-0.836c0.088-0.064,0.264,0.044,0.264,0.286s-0.109,0.484-0.286,0.683
		c-0.813,0.857-1.979,1.364-3.146,1.364c-2.75,0-4.313-1.871-4.313-4.555c0-1.783,0.814-3.301,2.135-4.159
		c0.726-0.483,1.65-0.748,2.574-0.748C231.367,5.853,232.38,6.315,232.908,7.173z M227.759,8.427
		c-0.021,0.088,0.088,0.22,0.132,0.22c0.242,0.022,0.969,0.044,1.606,0.044c0.836,0,1.849-0.044,1.849-0.792
		c0-0.659-0.528-1.254-1.694-1.254C229.102,6.645,228.045,7.327,227.759,8.427z"/>
	<path fill="#FFFFFF" d="M235.722,6.513c0.419-0.198,0.989-0.396,1.431-0.616c0.264-0.132,0.528-0.22,0.572-0.22
		c0.064,0,0.374,0.088,0.374,0.264c0,0.11-0.022,0.748-0.044,0.969c-0.021,0.109,0.088,0.109,0.154,0.065
		c0.682-0.462,1.736-1.122,3.123-1.122c1.123,0,1.694,0.55,2.024,1.034c0.353,0.506,0.638,1.408,0.66,2.926
		c0.021,1.078,0.021,2.311,0.065,3.3c0.021,0.64,0.176,0.837,0.571,1.034c0.507,0.198,0.66,0.419,0.66,0.616
		c0,0.221-0.353,0.353-0.638,0.353c-0.286,0-0.99-0.065-1.65-0.065c-0.639,0-1.122,0.065-1.387,0.065
		c-0.286,0-0.594-0.065-0.594-0.353c0-0.132,0.109-0.309,0.483-0.462c0.55-0.198,0.704-0.396,0.726-0.946
		c0.022-1.078,0.022-2.023,0.022-2.992c0-1.649-0.198-2.311-0.418-2.597c-0.221-0.286-0.659-0.594-1.563-0.594
		c-0.836,0-1.475,0.198-1.893,0.484c-0.044,0.044-0.264,0.285-0.264,0.55c0,0.22,0,4.599,0,5.104c0,0.33-0.021,0.596,0.857,0.925
		c0.396,0.153,0.571,0.353,0.571,0.527s-0.22,0.353-0.614,0.353c-0.728,0-1.388-0.065-1.916-0.065c-0.682,0-1.386,0.065-1.738,0.065
		c-0.396,0-0.637-0.109-0.637-0.33c0-0.22,0.264-0.396,0.483-0.461c0.968-0.31,1.101-0.572,1.122-1.058
		c0.064-1.057,0.132-2.707,0.132-4.951c0-0.352-0.22-0.594-0.771-0.924c-0.264-0.198-0.309-0.286-0.309-0.33
		C235.327,6.909,235.524,6.601,235.722,6.513z"/>
	<path fill="#FFFFFF" d="M252.18,6.029c0.152,0,0.264,0.242,0.285,0.374c0,0.242,0,0.595-0.021,0.704
		c-0.066,0.242-0.264,0.286-0.506,0.286c-0.814,0-1.98,0.022-2.486,0.022c-0.043,0-0.154,0.088-0.154,0.33l-0.064,4.005
		c-0.021,0.989,0.064,1.342,0.329,1.648c0.286,0.309,0.925,0.484,1.188,0.484c0.396,0,0.683-0.11,1.013-0.198
		c0.196-0.044,0.353-0.132,0.483-0.132c0.088,0,0.197,0.153,0.197,0.33c0,0.241-0.176,0.506-0.527,0.771
		c-0.705,0.527-1.694,0.683-2.244,0.683c-0.594,0-1.452-0.31-1.938-1.012c-0.176-0.266-0.309-0.771-0.309-1.563
		c0-1.541,0.111-2.883,0.111-4.973c0-0.242-0.066-0.265-0.684-0.353c-0.352-0.044-0.66-0.527-0.66-0.638
		c0-0.088,0.266-0.286,0.462-0.462c0.374-0.309,1.188-0.814,1.585-1.32c0.352-0.439,0.771-0.572,0.881-0.572
		c0.088,0,0.197,0.221,0.197,0.33c0,0.242-0.021,0.946-0.021,1.078c0,0.088,0.021,0.265,0.176,0.265
		C249.715,6.117,251.674,6.029,252.18,6.029z"/>
	<path fill="#FFFFFF" d="M258.711,6.557c1.101-0.396,2.002-0.726,2.377-0.726c0.088,0,0.221,0.286,0.221,0.352
		c0,0.814,0,2.42,0,4.026c0.021,2.883,0.064,3.301,0.088,3.498c0.021,0.177,0.109,0.396,0.9,0.617
		c0.31,0.088,0.529,0.284,0.529,0.506c0,0.196-0.353,0.285-0.639,0.285c-0.462,0-1.363-0.065-1.85-0.065
		c-1.121,0-1.539,0.065-1.848,0.065c-0.439,0-0.66-0.132-0.66-0.33c0-0.197,0.221-0.353,0.527-0.439
		c0.969-0.242,1.014-0.418,1.102-1.32c0.043-0.462,0.088-1.958,0.088-3.212c0-0.439,0-1.584-0.022-1.716
		c-0.021-0.176-0.22-0.418-0.856-0.836c-0.154-0.088-0.242-0.352-0.242-0.439C258.426,6.711,258.581,6.601,258.711,6.557z
		 M261.022,1.563c0.264,0.309,0.374,0.727,0.374,0.902c0,0.88-0.771,1.254-1.167,1.254c-0.329,0-0.704-0.22-0.945-0.506
		c-0.133-0.22-0.221-0.374-0.221-0.66c0-0.726,0.507-1.254,1.275-1.254C260.648,1.298,260.846,1.408,261.022,1.563z"/>
	<path fill="#FFFFFF" d="M264.85,6.513c0.419-0.198,0.99-0.396,1.432-0.616c0.264-0.132,0.527-0.22,0.571-0.22
		c0.065,0,0.374,0.088,0.374,0.264c0,0.11-0.021,0.748-0.044,0.969c-0.022,0.109,0.088,0.109,0.153,0.065
		c0.683-0.462,1.738-1.122,3.125-1.122c1.121,0,1.693,0.55,2.023,1.034c0.352,0.506,0.639,1.408,0.66,2.926
		c0.021,1.078,0.021,2.311,0.064,3.3c0.022,0.64,0.178,0.837,0.572,1.034c0.506,0.198,0.66,0.419,0.66,0.616
		c0,0.221-0.352,0.353-0.638,0.353s-0.99-0.065-1.65-0.065c-0.639,0-1.122,0.065-1.387,0.065c-0.286,0-0.595-0.065-0.595-0.353
		c0-0.132,0.111-0.309,0.484-0.462c0.551-0.198,0.704-0.396,0.727-0.946c0.021-1.078,0.021-2.023,0.021-2.992
		c0-1.649-0.197-2.311-0.418-2.597s-0.66-0.594-1.563-0.594c-0.836,0-1.475,0.198-1.893,0.484c-0.045,0.044-0.265,0.285-0.265,0.55
		c0,0.22,0,4.599,0,5.104c0,0.33-0.022,0.596,0.858,0.925c0.396,0.153,0.57,0.353,0.57,0.527s-0.22,0.353-0.615,0.353
		c-0.727,0-1.387-0.065-1.914-0.065c-0.683,0-1.387,0.065-1.738,0.065c-0.396,0-0.639-0.109-0.639-0.33
		c0-0.22,0.265-0.396,0.484-0.461c0.969-0.31,1.1-0.572,1.122-1.058c0.065-1.057,0.132-2.707,0.132-4.951
		c0-0.352-0.22-0.594-0.771-0.924c-0.264-0.198-0.307-0.286-0.307-0.33C264.454,6.909,264.652,6.601,264.85,6.513z"/>
	<path fill="#FFFFFF" d="M295.717,1.65c0,0.792-0.065,3.917-0.065,4.907c0,0.242,0.089,0.33,0.154,0.286
		c0.792-0.55,1.804-0.99,2.838-0.99c1.231,0,1.894,0.528,2.289,0.99c0.526,0.572,0.813,1.672,0.813,2.838
		c0.021,0.727,0.088,3.344,0.088,3.674c0,0.484,0.133,0.616,0.793,0.902c0.33,0.154,0.526,0.309,0.526,0.506
		c0,0.264-0.374,0.353-0.614,0.353c-0.596,0-1.035-0.065-1.65-0.065c-0.463,0-1.014,0.065-1.605,0.065
		c-0.375,0-0.64-0.109-0.64-0.33c0-0.132,0.133-0.309,0.483-0.439c0.728-0.242,0.858-0.418,0.858-1.21c0-0.528,0.021-2.971,0-3.938
		c-0.022-0.639-0.241-1.057-0.528-1.431c-0.308-0.374-0.99-0.704-1.605-0.704c-1.254,0-1.76,0.418-1.936,0.595
		c-0.133,0.132-0.266,0.396-0.266,0.506c0,0.462-0.044,4.796,0,5.303c0.021,0.462,0.221,0.638,0.792,0.858
		c0.242,0.088,0.418,0.264,0.418,0.396c0,0.265-0.241,0.396-0.55,0.396c-0.374,0-0.969-0.065-1.563-0.065
		c-0.572,0-1.519,0.065-1.893,0.065c-0.439,0-0.66-0.132-0.66-0.33c0-0.241,0.264-0.353,0.616-0.461
		c0.616-0.199,0.901-0.464,0.946-0.97c0.044-0.418,0.132-1.1,0.132-6.028c0-3.06,0-3.081-0.044-3.696
		c0-0.594-0.266-0.836-0.748-0.88c-0.33-0.044-2.598-0.088-4.467-0.088c-0.11,0-0.266,0.065-0.286,0.286
		c-0.022,0.308-0.089,1.275-0.089,2.661c0,1.343,0,5.413,0,6.579c0,1.605,0.66,1.761,1.695,2.047
		c0.418,0.109,0.637,0.241,0.637,0.507c0,0.176-0.219,0.373-0.659,0.373c-0.22,0-1.804-0.065-3.124-0.065
		c-1.344,0-1.915,0.065-2.51,0.065c-0.461,0-0.682-0.177-0.682-0.418c0-0.177,0.221-0.353,0.639-0.439
		c1.539-0.374,1.914-0.704,1.914-1.98c0-0.462,0.065-2.596,0.065-6.271c0-1.364,0-2.134,0-2.816c0-0.374-0.044-0.527-0.33-0.527
		c-0.55,0-1.387-0.022-2.179,0c-1.628,0.044-2.002,0.264-2.508,1.605c-0.133,0.374-0.309,0.616-0.508,0.616
		c-0.373,0-0.438-0.308-0.418-0.858c0.045-0.682,0.31-1.849,0.242-2.859c-0.021-0.176,0.375-0.396,0.484-0.396
		c0.066,0,0.176,0.066,0.309,0.198c0.396,0.462,0.594,0.572,1.231,0.594c0.901,0.044,1.407,0.044,2.112,0.044h8.295
		c1.145,0,1.32-0.065,1.738-0.615c0.221-0.265,0.373-0.374,0.639-0.374C295.542,0.616,295.717,1.012,295.717,1.65z"/>
	<path fill="#FFFFFF" d="M311.975,7.173c0.285,0.418,0.373,0.99,0.373,1.54c0,0.242-0.373,0.66-0.594,0.66
		c-0.154,0-4.334,0.065-4.73,0.065c-0.066,0-0.309,0.132-0.352,0.242c-0.09,0.154-0.109,0.55-0.109,0.682
		c0,1.958,1.475,3.454,3.365,3.454c0.857,0,1.805-0.55,2.223-0.836c0.088-0.064,0.264,0.044,0.264,0.286s-0.109,0.484-0.285,0.683
		c-0.813,0.857-1.979,1.364-3.146,1.364c-2.75,0-4.313-1.871-4.313-4.555c0-1.783,0.813-3.301,2.135-4.159
		c0.727-0.483,1.65-0.748,2.574-0.748C310.434,5.853,311.446,6.315,311.975,7.173z M306.825,8.427
		c-0.021,0.088,0.088,0.22,0.133,0.22c0.242,0.022,0.969,0.044,1.605,0.044c0.836,0,1.85-0.044,1.85-0.792
		c0-0.659-0.529-1.254-1.695-1.254C308.168,6.645,307.112,7.327,306.825,8.427z"/>
	<path fill="#FFFFFF" d="M318.661,1.474c0.879,0,2.574,0.132,3.232,0.132c0.109,0,0.42,0.286,0.439,0.33
		c0.221,0.374,1.057,1.408,2.113,2.552c1.166,1.255,5.303,5.984,6.139,6.756c0.066,0.064,0.197-0.044,0.221-0.153
		c0.043-0.44,0.154-4.423,0.043-6.206c-0.109-1.848-0.131-2.134-1.627-2.464c-0.527-0.11-0.615-0.353-0.615-0.484
		c0-0.153,0.197-0.352,0.658-0.352c0.881,0,0.969,0.021,1.541,0.021c0.902,0,2.045-0.132,2.486-0.132
		c0.461,0,0.682,0.22,0.682,0.396c0,0.132-0.064,0.286-0.813,0.506c-0.748,0.242-1.057,0.616-1.102,1.1
		c-0.064,0.704-0.197,5.348-0.197,7.481c0,0.969,0.043,2.441,0.043,3.455c0,0.924-0.197,1.078-0.461,1.078
		c-0.109,0-0.572-0.242-0.836-0.64c-0.551-0.792-1.695-2.244-2.313-2.926c-0.836-0.969-5.082-5.854-6.051-6.909
		c-0.131-0.109-0.219,0.022-0.242,0.22c-0.02,0.484-0.088,1.431-0.088,2.376c0,0.99,0.066,3.411,0.088,4.005
		c0.066,1.937,0.178,2.155,1.408,2.553c0.508,0.154,0.727,0.308,0.727,0.594c0,0.264-0.418,0.374-0.703,0.374
		c-0.615,0-1.057-0.088-1.584-0.088c-1.033,0-2.377,0.132-2.662,0.132c-0.354,0-0.705-0.088-0.705-0.374
		c0-0.198,0.197-0.374,0.596-0.482c1.43-0.375,1.561-0.926,1.627-1.806c0.111-1.475,0.287-7.767,0.287-8.471
		c0-0.286-0.154-0.616-0.748-1.167c-0.311-0.33-0.969-0.484-1.387-0.572c-0.354-0.044-0.66-0.308-0.66-0.55
		C318.198,1.584,318.374,1.474,318.661,1.474z"/>
	<path fill="#FFFFFF" d="M342.18,7.173c0.285,0.418,0.373,0.99,0.373,1.54c0,0.242-0.373,0.66-0.594,0.66
		c-0.154,0-4.334,0.065-4.73,0.065c-0.066,0-0.309,0.132-0.352,0.242c-0.09,0.154-0.111,0.55-0.111,0.682
		c0,1.958,1.477,3.454,3.367,3.454c0.857,0,1.805-0.55,2.223-0.836c0.088-0.064,0.264,0.044,0.264,0.286s-0.109,0.484-0.285,0.683
		c-0.813,0.857-1.979,1.364-3.146,1.364c-2.75,0-4.313-1.871-4.313-4.555c0-1.783,0.814-3.301,2.135-4.159
		c0.727-0.483,1.65-0.748,2.574-0.748C340.639,5.853,341.651,6.315,342.18,7.173z M337.03,8.427c-0.021,0.088,0.088,0.22,0.133,0.22
		c0.242,0.022,0.969,0.044,1.605,0.044c0.836,0,1.85-0.044,1.85-0.792c0-0.659-0.529-1.254-1.695-1.254
		C338.374,6.645,337.317,7.327,337.03,8.427z"/>
	<path fill="#FFFFFF" d="M347.479,6.073c0.264,0,0.506,0.153,0.506,0.329c0,0.154-0.088,0.33-0.527,0.463
		c-0.395,0.109-0.594,0.264-0.395,0.77c0.285,0.771,1.1,2.926,1.848,4.709c0.064,0.176,0.176,0.109,0.221,0.043
		c0.637-1.386,1.057-2.266,1.451-3.3c0.133-0.353,0.154-0.572,0.154-0.616c0-0.065-0.021-0.286-0.266-0.99
		c-0.152-0.483-0.506-0.527-0.836-0.638c-0.285-0.11-0.57-0.264-0.57-0.484c0-0.176,0.264-0.33,0.615-0.33
		c0.572,0,1.232,0.089,1.762,0.089c0.418,0,0.945-0.066,1.363-0.066c0.352,0,0.482,0.176,0.482,0.33c0,0.22-0.131,0.33-0.594,0.484
		c-0.373,0.109-0.439,0.329-0.439,0.439c0,0.132,0.043,0.308,0.176,0.727c0.109,0.374,1.166,3.125,1.584,4.268
		c0.021,0.088,0.199,0.133,0.242,0.021c0.287-0.747,1.672-4.158,1.672-4.773c0-0.242-0.152-0.462-0.748-0.682
		c-0.307-0.11-0.506-0.242-0.506-0.44s0.266-0.33,0.529-0.33c0.352,0,0.703,0.022,1.121,0.022c0.506,0,1.23-0.11,1.695-0.11
		c0.57,0,0.682,0.22,0.682,0.374s-0.133,0.308-0.551,0.418c-0.484,0.132-0.836,0.44-1.033,0.792c-0.484,0.858-1.52,3.41-2.201,5.171
		c-0.373,0.99-0.703,2.135-0.813,2.354c-0.045,0.088-0.199,0.241-0.375,0.241s-0.463-0.176-0.572-0.373
		c-0.088-0.109-0.373-0.989-0.549-1.563c-0.199-0.683-1.035-2.795-1.299-3.411c-0.045-0.132-0.197-0.11-0.242-0.021
		c-0.484,1.077-1.344,2.728-1.85,4.201c-0.307,0.902-0.66,1.166-0.836,1.166c-0.109,0-0.418-0.22-0.461-0.396
		c-0.133-0.44-0.354-1.167-0.463-1.496c-0.66-1.827-1.848-4.775-2.156-5.523c-0.285-0.615-0.482-0.857-1.1-1.1
		c-0.396-0.154-0.617-0.264-0.617-0.484c0-0.241,0.264-0.374,0.639-0.374c0.508,0,1.693,0.133,2.18,0.133
		C346.709,6.117,347.149,6.073,347.479,6.073z"/>
	<path fill="#FFFFFF" d="M363.649,1.497c0.439,0,1.541,0.109,2.199,0.109c0.926,0,1.871-0.088,2.244-0.088
		c0.287,0,0.594,0.132,0.594,0.374c0,0.22-0.152,0.353-0.682,0.484c-0.594,0.154-0.506,0.374-0.264,0.857
		c0.727,1.476,2.354,4.357,2.574,4.621c0.109,0.132,0.154,0.11,0.264,0.022c0.199-0.132,2.201-3.542,2.531-4.226
		c0.418-0.857,0.439-1.056-0.418-1.298c-0.354-0.109-0.529-0.286-0.529-0.439c0-0.242,0.242-0.374,0.727-0.374
		c0.684,0,1.387,0.065,1.65,0.065c0.617,0,1.342-0.109,1.914-0.109c0.396,0,0.617,0.176,0.617,0.374
		c0,0.153-0.154,0.396-0.596,0.506c-0.836,0.22-1.451,0.506-2.156,1.43c-0.945,1.254-2.859,4.291-3.146,4.951
		c-0.131,0.308-0.197,0.748-0.24,1.21c-0.066,0.792-0.021,2.619-0.021,3.3c0.043,0.374,0.197,0.66,1.648,0.99
		c0.33,0.066,0.484,0.309,0.484,0.462c0,0.22-0.264,0.396-0.727,0.396c-0.352,0-1.387-0.065-2.244-0.065
		c-0.902,0-2.268,0.088-2.686,0.088c-0.395,0-0.615-0.153-0.615-0.396c0-0.287,0.373-0.396,0.771-0.507
		c0.879-0.265,1.232-0.463,1.32-1.979c0.043-0.727,0.02-2.003,0.02-2.443c0-0.374-0.107-0.66-0.418-1.298
		c-0.594-1.231-2.332-4.18-2.926-4.973c-0.309-0.418-0.771-0.814-1.914-1.21c-0.506-0.154-0.594-0.33-0.594-0.462
		C363.034,1.606,363.364,1.497,363.649,1.497z"/>
	<path fill="#FFFFFF" d="M384.903,10.452c0,1.672-0.684,2.859-1.432,3.543c-0.793,0.726-1.871,1.319-3.322,1.319
		c-1.299,0-2.553-0.528-3.477-1.431c-0.945-0.925-1.299-2.267-1.299-3.257c0-1.54,0.793-2.882,1.762-3.652
		c0.727-0.616,1.936-1.122,3.08-1.122C383.252,5.853,384.881,8.427,384.903,10.452z M378.389,7.393
		c-0.219,0.242-0.9,1.232-0.9,2.904c0,1.231,0.418,2.75,1.318,3.521c0.221,0.178,0.859,0.596,1.674,0.596
		c0.527,0,1.23-0.31,1.672-0.858c0.463-0.595,0.594-1.673,0.594-2.948c0-1.871-0.99-3.829-2.859-3.829
		C379.401,6.777,378.698,7.063,378.389,7.393z"/>
	<path fill="#FFFFFF" d="M387.145,6.667c0.354-0.198,1.033-0.506,1.496-0.748c0.285-0.132,0.463-0.22,0.639-0.22
		c0.088,0,0.264,0.241,0.264,0.308c0.023,0.308,0.023,0.748,0.045,1.078c0,0.065,0.154,0.154,0.221,0.065
		c0.639-0.703,1.518-1.298,2.375-1.298c0.639,0,1.211,0.44,1.211,0.683c0,0.483-0.572,1.1-0.881,1.342
		c-0.109,0.109-0.264,0.176-0.352,0.176c-0.154,0-0.287-0.066-0.506-0.22c-0.176-0.132-0.506-0.265-0.793-0.265
		c-0.396,0-0.727,0.133-1.012,0.507c-0.088,0.109-0.197,0.374-0.197,0.506c0,0.22-0.023,3.388,0.043,4.158
		c0.066,1.033,0.242,1.255,1.232,1.519c0.506,0.132,0.791,0.309,0.791,0.506c0,0.176-0.285,0.374-0.549,0.374
		c-0.684,0-1.805-0.088-2.441-0.088c-0.771,0-1.168,0.065-1.783,0.065c-0.396,0-0.594-0.241-0.594-0.353
		c0-0.242,0.24-0.374,0.506-0.462c0.857-0.308,0.924-0.638,0.945-1.144c0.043-0.99,0.066-3.697,0.066-4.863
		c0-0.132-0.023-0.286-0.551-0.66c-0.242-0.176-0.484-0.374-0.484-0.506C386.836,6.931,386.969,6.755,387.145,6.667z"/>
	<path fill="#FFFFFF" d="M401.379,6.095c0.881,0,1.959-0.11,2.398-0.11c0.395,0,0.66,0.177,0.66,0.353
		c0,0.198-0.266,0.352-0.529,0.418c-0.9,0.242-1.275,0.375-2.09,1.012c-0.615,0.418-1.254,1.057-1.98,1.606
		c-0.109,0.088-0.043,0.197,0,0.286c0.902,1.21,2.332,2.815,2.707,3.257c0.439,0.482,1.123,1.121,1.605,1.298
		c0.615,0.241,0.857,0.374,0.857,0.571c0,0.221-0.285,0.33-0.748,0.33c-0.66,0-1.318-0.065-2.42-0.065
		c-0.309,0-0.727,0.022-0.969,0.022c-0.352,0-0.484-0.222-0.484-0.33c0-0.198,0.111-0.31,0.553-0.464
		c0.264-0.088,0.24-0.308,0.107-0.506c-0.264-0.396-1.672-2.022-2.111-2.573c-0.418-0.484-0.551-0.64-0.77-0.64
		c-0.066,0-0.242,0.066-0.375,0.154c-0.109,0.066-0.109,0.176-0.109,0.309c0,0.792-0.021,1.496,0,2.068
		c0.021,1.012,0.418,1.056,0.857,1.232c0.287,0.108,0.506,0.152,0.506,0.329c0,0.153-0.197,0.462-0.594,0.462
		s-1.102-0.065-1.65-0.065c-0.57,0-1.275,0.065-1.693,0.065c-0.33,0-0.703-0.109-0.703-0.33c0-0.153,0.131-0.33,0.615-0.483
		c0.703-0.22,0.748-0.507,0.793-1.078c0.043-0.374,0.131-6.205,0.131-8.185c0-1.761,0-2.245-0.021-2.464
		c0-0.484-0.109-0.704-0.66-1.013c-0.197-0.109-0.418-0.264-0.418-0.352c0-0.176,0.242-0.418,0.439-0.484
		c0.309-0.088,1.078-0.264,1.629-0.418c0.285-0.065,0.506-0.176,0.639-0.176c0.131,0,0.242,0.264,0.242,0.396
		c-0.021,0.66-0.133,5.722-0.133,6.976c0,0.946,0.021,0.88,0.021,1.54c-0.021,0.77,0.043,0.924,0.242,0.924
		c0.109,0,0.461-0.198,0.748-0.44c0.703-0.594,1.605-1.54,2.045-2.002c0.287-0.352,0.223-0.506-0.195-0.638
		c-0.33-0.088-0.572-0.198-0.572-0.352c0-0.221,0.264-0.44,0.549-0.44H401.379L401.379,6.095z"/>
	<path fill="#FFFFFF" d="M421.422,1.606c1.232,0,1.627-0.065,1.826-0.264c0.242-0.198,0.395-0.352,0.527-0.352
		c0.066,0,0.418,0.264,0.418,0.418c0,0.153-0.264,1.43-0.264,2.904c0,0.309-0.221,0.616-0.463,0.616s-0.375-0.308-0.418-0.506
		c-0.309-1.386-0.748-1.606-1.342-1.672c-0.33-0.044-1.342-0.088-3.213-0.088c-0.088,0-0.266,0.153-0.285,0.286
		c-0.066,0.594-0.111,3.256-0.111,4.643c0,1.342,0,3.366,0.088,4.62c0.111,1.584,0.484,1.629,1.586,2.068
		c0.395,0.153,0.639,0.241,0.639,0.506c0,0.177-0.221,0.375-0.66,0.375c-0.221,0-1.826-0.11-3.146-0.11
		c-1.299,0-1.85,0.065-2.441,0.065c-0.463,0-0.684-0.177-0.684-0.418c0-0.177,0.221-0.33,0.615-0.439
		c1.564-0.418,1.938-0.484,1.938-1.98c0-0.462,0.066-2.75,0.066-6.227c0-1.364,0-2.2,0-2.882c0-0.264-0.154-0.506-0.221-0.506
		c-0.551,0-2.861-0.022-3.146-0.022c-0.33,0-0.924,0.265-1.43,1.628c-0.133,0.374-0.33,0.616-0.506,0.616
		c-0.354,0-0.439-0.308-0.42-0.836c0.045-0.682,0.221-1.65,0.154-2.685c-0.021-0.198,0.375-0.396,0.463-0.396
		c0.064,0,0.197,0.066,0.33,0.198c0.33,0.286,0.57,0.374,1.209,0.396c0.902,0.044,0.705,0.044,1.408,0.044L421.422,1.606
		L421.422,1.606z"/>
	<path fill="#FFFFFF" d="M426.151,6.557c1.1-0.396,2.002-0.726,2.375-0.726c0.088,0,0.221,0.286,0.221,0.352c0,0.814,0,2.42,0,4.026
		c0.021,2.883,0.066,3.301,0.088,3.498c0.021,0.177,0.109,0.396,0.902,0.617c0.309,0.088,0.527,0.284,0.527,0.506
		c0,0.196-0.352,0.285-0.639,0.285c-0.461,0-1.363-0.065-1.848-0.065c-1.123,0-1.541,0.065-1.85,0.065
		c-0.439,0-0.66-0.132-0.66-0.33c0-0.197,0.221-0.353,0.527-0.439c0.969-0.242,1.014-0.418,1.102-1.32
		c0.045-0.462,0.088-1.958,0.088-3.212c0-0.439,0-1.584-0.021-1.716c-0.021-0.176-0.221-0.418-0.857-0.836
		c-0.154-0.088-0.242-0.352-0.242-0.439C425.864,6.711,426.018,6.601,426.151,6.557z M428.461,1.563
		c0.264,0.309,0.373,0.727,0.373,0.902c0,0.88-0.77,1.254-1.166,1.254c-0.33,0-0.705-0.22-0.945-0.506
		c-0.133-0.22-0.221-0.374-0.221-0.66c0-0.726,0.506-1.254,1.275-1.254C428.086,1.298,428.284,1.408,428.461,1.563z"/>
	<path fill="#FFFFFF" d="M432.442,6.689c0.482-0.197,0.969-0.396,1.693-0.857c0.154-0.11,0.197-0.132,0.242-0.132
		c0.154,0,0.352,0.197,0.352,0.241c0,0.374,0,0.551,0,0.925c0,0.088,0.109,0.197,0.221,0.109c0.617-0.418,1.848-1.122,3.037-1.122
		c1.297,0,1.979,0.683,2.311,1.188c0.021,0.044,0.197,0.109,0.285,0.065c0.33-0.241,1.057-0.704,1.629-0.945
		c0.484-0.198,0.836-0.309,1.52-0.309c1.936,0,2.66,1.805,2.729,3.322c0.064,1.386,0.152,3.807,0.152,4.356
		c0,0.375,0.463,0.639,0.836,0.771c0.287,0.11,0.508,0.22,0.508,0.44c0,0.264-0.287,0.352-0.484,0.352
		c-0.506,0-1.188-0.044-1.693-0.044s-1.123,0.044-1.629,0.044c-0.354,0-0.615-0.197-0.615-0.374c0-0.088,0.109-0.33,0.527-0.439
		c0.551-0.154,0.703-0.484,0.703-0.969c0-1.056-0.021-2.771-0.021-3.719c-0.021-0.858-0.088-1.21-0.352-1.628
		c-0.266-0.396-0.793-0.726-1.605-0.726c-0.947,0-1.783,0.418-1.938,0.55c-0.088,0.088-0.221,0.418-0.221,0.682
		c0,3.455,0.021,4.27,0.066,4.775c0.021,0.506,0.285,0.791,0.77,0.944c0.441,0.154,0.572,0.286,0.572,0.528
		s-0.264,0.374-0.527,0.374c-0.572,0-1.275-0.044-1.85-0.044c-0.482,0-1.078,0.044-1.563,0.044c-0.352,0-0.658-0.22-0.658-0.396
		c0-0.177,0.197-0.309,0.549-0.439c0.594-0.221,0.857-0.352,0.881-1.211l0.064-4.224c0-0.44-0.309-0.925-0.328-0.969
		c-0.309-0.396-0.838-0.682-1.695-0.682s-1.451,0.286-1.893,0.594c-0.045,0.044-0.242,0.506-0.242,0.572c0,3.872,0,4.378,0.045,4.95
		c0.045,0.617,0.33,0.771,0.727,0.969c0.418,0.22,0.484,0.33,0.484,0.484c0,0.22-0.223,0.373-0.551,0.373
		c-0.527,0-1.256-0.065-1.914-0.065c-0.508,0-0.99,0.11-1.496,0.11c-0.375,0-0.617-0.177-0.617-0.375
		c0-0.197,0.199-0.33,0.529-0.461c0.857-0.354,0.945-0.529,0.967-1.232c0.045-0.814,0.09-2.597,0.09-4.621
		c0-0.22-0.111-0.506-0.484-0.792c-0.396-0.308-0.484-0.396-0.484-0.462C432.067,7.041,432.266,6.777,432.442,6.689z"/>
	<path fill="#FFFFFF" d="M456.665,7.173c0.287,0.418,0.375,0.99,0.375,1.54c0,0.242-0.375,0.66-0.596,0.66
		c-0.152,0-4.334,0.065-4.73,0.065c-0.064,0-0.307,0.132-0.352,0.242c-0.088,0.154-0.109,0.55-0.109,0.682
		c0,1.958,1.475,3.454,3.365,3.454c0.857,0,1.805-0.55,2.223-0.836c0.088-0.064,0.266,0.044,0.266,0.286s-0.109,0.484-0.287,0.683
		c-0.813,0.857-1.979,1.364-3.146,1.364c-2.75,0-4.313-1.871-4.313-4.555c0-1.783,0.814-3.301,2.135-4.159
		c0.727-0.483,1.65-0.748,2.574-0.748C455.124,5.853,456.137,6.315,456.665,7.173z M451.516,8.427
		c-0.021,0.088,0.088,0.22,0.133,0.22c0.24,0.022,0.969,0.044,1.605,0.044c0.836,0,1.848-0.044,1.848-0.792
		c0-0.659-0.527-1.254-1.693-1.254C452.858,6.645,451.801,7.327,451.516,8.427z"/>
	<path fill="#FFFFFF" d="M463.549,6.029c0.242,0.066,0.506,0.133,0.705,0.198c0.109,0.044,0.352,0.353,0.373,0.44
		c0.045,0.132,0.045,0.968,0.045,1.21c0,0.154-0.176,0.638-0.484,0.638c-0.088,0-0.285-0.198-0.482-0.594
		c-0.484-0.902-1.211-1.276-1.674-1.276c-0.506,0-1.275,0.484-1.275,1.298c0,1.078,0.945,1.364,2.09,1.958
		c1.146,0.595,2.113,1.277,2.113,2.575c0,1.254-0.814,2.046-1.65,2.421c-0.639,0.308-1.342,0.418-1.893,0.418
		c-1.342,0-2.002-0.309-2.244-0.551c-0.221-0.22-0.439-1.188-0.439-1.584c0-0.572,0.152-0.727,0.396-0.727
		c0.131,0,0.285,0.153,0.572,0.594c0.637,0.99,1.408,1.408,2.002,1.408c0.99,0,1.541-0.66,1.541-1.363
		c0-0.418-0.242-0.881-0.793-1.232c-0.594-0.352-1.078-0.594-1.738-0.969c-0.727-0.418-1.584-1.1-1.584-2.397
		c0-1.057,0.594-1.673,1.121-2.068c0.508-0.33,1.432-0.572,1.916-0.572C462.735,5.853,463.243,5.919,463.549,6.029z"/>
</g>
</svg>
