<?xml version="1.0" encoding="utf-8"?>
<!-- Generator: Adobe Illustrator 16.0.0, SVG Export Plug-In . SVG Version: 6.00 Build 0)  -->
<!DOCTYPE svg PUBLIC "-//W3C//DTD SVG 1.1//EN" "http://www.w3.org/Graphics/SVG/1.1/DTD/svg11.dtd">
<svg version="1.1" id="Layer_1" xmlns="http://www.w3.org/2000/svg" xmlns:xlink="http://www.w3.org/1999/xlink" x="0px" y="0px"
	 width="464.958px" height="20.397px" viewBox="0 0 464.958 20.397" enable-background="new 0 0 464.958 20.397"
	 xml:space="preserve">
<g>
	<path fill="#111111" d="M9.219,7.349C9.043,7.525,8.075,8.163,7.877,8.251c-0.088,0.022-0.11,0.22-0.066,0.33
		c0.308,0.616,1.915,3.08,2.948,4.247c1.079,1.209,1.694,1.518,2.597,1.738c0.22,0.043,0.308,0.197,0.308,0.33
		c0,0.418-1.012,0.527-1.276,0.527c-0.968,0-2.266-0.132-3.895-2.244c-0.792-1.034-2.068-2.927-2.486-3.521
		C5.501,8.956,4.951,8.934,4.203,8.934c-0.176,0-0.308,0.198-0.308,0.33c0,1.76,0.022,2.882,0.088,3.653
		c0.066,0.791,0.352,1.078,1.364,1.342c0.418,0.109,0.594,0.242,0.594,0.484c0,0.264-0.374,0.396-0.704,0.396
		c-0.55,0-1.694-0.088-2.464-0.088c-0.682,0-1.056,0.088-1.871,0.088c-0.528,0-0.792-0.153-0.792-0.374
		c0-0.197,0.22-0.33,0.616-0.462c0.858-0.286,1.144-0.396,1.188-1.496c0.022-0.792,0.022-1.519,0.022-5.479
		c0-2.707-0.044-3.608-0.088-4.071c-0.044-0.44-0.374-0.682-1.21-0.836C0.264,2.354,0,2.178,0,1.98c0-0.33,0.418-0.418,0.88-0.418
		c1.123,0,1.65,0,1.937,0c0.836,0,1.738-0.11,2.794-0.11c1.936,0,2.75,0.44,3.278,0.836c1.034,0.792,1.364,1.738,1.364,2.706
		C10.253,5.809,9.857,6.755,9.219,7.349z M5.083,2.333c-0.286,0-0.77,0.088-0.99,0.176C3.96,2.552,3.851,2.75,3.851,2.949
		c-0.044,1.21,0,3.586,0.044,4.687c0,0.132,0.066,0.22,0.176,0.264c0.484,0.132,0.902,0.198,1.32,0.198
		c0.33,0,1.563-0.396,2.046-0.836c0.352-0.352,0.726-1.1,0.726-1.98C8.163,3.697,7.327,2.333,5.083,2.333z"/>
	<path fill="#111111" d="M21.428,7.173c0.286,0.418,0.374,0.99,0.374,1.54c0,0.242-0.374,0.66-0.594,0.66
		c-0.154,0-4.335,0.066-4.731,0.066c-0.066,0-0.308,0.132-0.352,0.242c-0.088,0.154-0.11,0.55-0.11,0.682
		c0,1.958,1.474,3.454,3.366,3.454c0.858,0,1.805-0.55,2.223-0.836c0.088-0.065,0.264,0.044,0.264,0.286s-0.11,0.484-0.286,0.682
		c-0.814,0.858-1.98,1.365-3.146,1.365c-2.75,0-4.313-1.871-4.313-4.555c0-1.783,0.814-3.301,2.135-4.159
		c0.726-0.484,1.65-0.748,2.574-0.748C19.888,5.853,20.9,6.315,21.428,7.173z M16.28,8.427c-0.022,0.088,0.088,0.22,0.132,0.22
		c0.242,0.022,0.968,0.044,1.606,0.044c0.836,0,1.848-0.044,1.848-0.792c0-0.66-0.528-1.254-1.694-1.254
		C17.622,6.645,16.565,7.327,16.28,8.427z"/>
	<path fill="#111111" d="M31.791,6.799c0.946,0.836,1.408,2.244,1.408,3.256c0,2.134-1.122,3.829-3.323,4.775
		c-0.616,0.285-1.958,0.462-2.42,0.462c-0.264,0-0.66,0-0.814-0.044c-0.066-0.022-0.22,0.264-0.22,0.439c0,0.99-0.022,2.003,0,2.751
		c0,0.286,0.066,0.528,1.188,0.858c0.506,0.153,0.66,0.308,0.66,0.439c0,0.242-0.242,0.418-0.616,0.418
		c-0.176,0-1.012,0.045-2.024,0.045c-0.902,0-2.002,0.197-2.288,0.197c-0.264,0-0.638-0.066-0.638-0.396
		c0-0.131,0.176-0.33,0.594-0.439c1.034-0.286,1.166-0.704,1.21-1.452c0.066-1.298,0.132-2.464,0.132-3.829
		c0.044-4.202,0-4.994-0.022-5.896c0-0.154-0.044-0.33-0.748-0.836c-0.308-0.198-0.396-0.308-0.396-0.374
		c0-0.198,0.264-0.462,0.506-0.594c0.33-0.154,1.078-0.462,1.408-0.682c0.286-0.176,0.594-0.33,0.748-0.33
		c0.088,0,0.308,0.22,0.308,0.308c0,0.176-0.066,0.616-0.066,0.88c0,0.088,0.132,0.154,0.22,0.11c0.55-0.33,1.232-0.638,1.474-0.726
		c0.528-0.198,0.924-0.264,1.342-0.264C30.382,5.875,31.174,6.227,31.791,6.799z M26.774,7.613c-0.044,0.022-0.264,0.22-0.286,0.418
		c-0.044,0.726-0.066,2.376-0.066,3.278c0,1.277,0.066,1.563,0.198,1.761c0.66,0.946,1.65,1.188,1.893,1.188
		c0.792,0,1.342-0.33,1.716-0.704c0.484-0.507,1.034-1.496,1.034-2.729c0-1.65-0.88-3.674-2.816-3.674
		C27.72,7.151,27.17,7.349,26.774,7.613z"/>
	<path fill="#111111" d="M35.529,6.667c0.352-0.198,1.034-0.506,1.496-0.748c0.286-0.132,0.462-0.22,0.638-0.22
		c0.088,0,0.264,0.242,0.264,0.308c0.022,0.308,0.022,0.748,0.044,1.078c0,0.066,0.154,0.154,0.22,0.066
		c0.638-0.704,1.518-1.298,2.376-1.298c0.638,0,1.21,0.44,1.21,0.682c0,0.484-0.572,1.1-0.88,1.342
		c-0.11,0.11-0.264,0.176-0.352,0.176c-0.154,0-0.286-0.066-0.506-0.22c-0.176-0.132-0.506-0.264-0.792-0.264
		c-0.396,0-0.726,0.132-1.012,0.506c-0.088,0.11-0.198,0.374-0.198,0.506c0,0.22-0.022,3.388,0.044,4.158
		c0.066,1.034,0.242,1.255,1.232,1.519c0.506,0.132,0.792,0.309,0.792,0.506c0,0.176-0.286,0.374-0.55,0.374
		c-0.682,0-1.804-0.088-2.442-0.088c-0.77,0-1.166,0.065-1.782,0.065c-0.396,0-0.594-0.241-0.594-0.352
		c0-0.242,0.242-0.374,0.506-0.462c0.858-0.308,0.924-0.638,0.946-1.144c0.044-0.99,0.066-3.697,0.066-4.863
		c0-0.132-0.022-0.286-0.55-0.66c-0.242-0.176-0.484-0.374-0.484-0.506C35.221,6.931,35.353,6.755,35.529,6.667z"/>
	<path fill="#111111" d="M50.094,7.173c0.286,0.418,0.374,0.99,0.374,1.54c0,0.242-0.374,0.66-0.594,0.66
		c-0.154,0-4.335,0.066-4.731,0.066c-0.066,0-0.308,0.132-0.352,0.242c-0.088,0.154-0.11,0.55-0.11,0.682
		c0,1.958,1.474,3.454,3.366,3.454c0.858,0,1.805-0.55,2.223-0.836c0.088-0.065,0.264,0.044,0.264,0.286s-0.11,0.484-0.286,0.682
		c-0.814,0.858-1.98,1.365-3.146,1.365c-2.75,0-4.313-1.871-4.313-4.555c0-1.783,0.814-3.301,2.134-4.159
		c0.726-0.484,1.65-0.748,2.574-0.748C48.554,5.853,49.566,6.315,50.094,7.173z M44.945,8.427c-0.022,0.088,0.088,0.22,0.132,0.22
		c0.242,0.022,0.968,0.044,1.606,0.044c0.836,0,1.848-0.044,1.848-0.792c0-0.66-0.528-1.254-1.694-1.254
		C46.287,6.645,45.231,7.327,44.945,8.427z"/>
	<path fill="#111111" d="M56.979,6.029c0.242,0.066,0.506,0.132,0.704,0.198c0.11,0.044,0.352,0.352,0.374,0.44
		c0.044,0.132,0.044,0.968,0.044,1.21c0,0.154-0.176,0.638-0.484,0.638c-0.088,0-0.286-0.198-0.484-0.594
		c-0.484-0.902-1.21-1.276-1.672-1.276c-0.506,0-1.276,0.484-1.276,1.298c0,1.078,0.946,1.364,2.09,1.958
		c1.144,0.594,2.112,1.277,2.112,2.575c0,1.254-0.814,2.046-1.65,2.421c-0.638,0.307-1.342,0.418-1.892,0.418
		c-1.342,0-2.002-0.309-2.244-0.551c-0.22-0.22-0.44-1.188-0.44-1.584c0-0.572,0.154-0.727,0.396-0.727
		c0.132,0,0.286,0.154,0.572,0.594c0.638,0.99,1.408,1.408,2.002,1.408c0.99,0,1.54-0.66,1.54-1.363
		c0-0.418-0.242-0.881-0.792-1.232c-0.594-0.352-1.078-0.594-1.738-0.969c-0.726-0.418-1.584-1.1-1.584-2.398
		c0-1.056,0.594-1.672,1.123-2.068c0.506-0.33,1.43-0.572,1.914-0.572C56.165,5.853,56.671,5.919,56.979,6.029z"/>
	<path fill="#111111" d="M67.539,7.173c0.286,0.418,0.374,0.99,0.374,1.54c0,0.242-0.374,0.66-0.594,0.66
		c-0.154,0-4.335,0.066-4.731,0.066c-0.066,0-0.308,0.132-0.352,0.242c-0.088,0.154-0.11,0.55-0.11,0.682
		c0,1.958,1.474,3.454,3.366,3.454c0.858,0,1.805-0.55,2.223-0.836c0.088-0.065,0.264,0.044,0.264,0.286s-0.11,0.484-0.286,0.682
		c-0.814,0.858-1.98,1.365-3.146,1.365c-2.75,0-4.313-1.871-4.313-4.555c0-1.783,0.814-3.301,2.134-4.159
		c0.726-0.484,1.65-0.748,2.574-0.748C65.999,5.853,67.011,6.315,67.539,7.173z M62.391,8.427c-0.022,0.088,0.088,0.22,0.132,0.22
		c0.242,0.022,0.968,0.044,1.606,0.044c0.836,0,1.848-0.044,1.848-0.792c0-0.66-0.528-1.254-1.694-1.254
		C63.732,6.645,62.676,7.327,62.391,8.427z"/>
	<path fill="#111111" d="M70.354,6.513c0.418-0.198,0.99-0.396,1.43-0.616c0.264-0.132,0.528-0.22,0.572-0.22
		c0.066,0,0.374,0.088,0.374,0.264c0,0.11-0.022,0.748-0.044,0.968c-0.022,0.11,0.088,0.11,0.154,0.066
		c0.682-0.462,1.738-1.122,3.125-1.122c1.122,0,1.694,0.55,2.024,1.034c0.352,0.506,0.638,1.408,0.66,2.926
		c0.022,1.078,0.022,2.31,0.066,3.3c0.022,0.639,0.176,0.836,0.572,1.034c0.506,0.198,0.66,0.419,0.66,0.616
		c0,0.221-0.352,0.352-0.638,0.352c-0.286,0-0.99-0.065-1.65-0.065c-0.638,0-1.123,0.065-1.386,0.065
		c-0.286,0-0.594-0.065-0.594-0.352c0-0.132,0.11-0.309,0.484-0.462c0.55-0.198,0.704-0.396,0.727-0.946
		c0.022-1.078,0.022-2.024,0.022-2.992c0-1.65-0.198-2.311-0.418-2.597c-0.22-0.286-0.66-0.594-1.562-0.594
		c-0.836,0-1.474,0.198-1.892,0.484c-0.044,0.044-0.264,0.286-0.264,0.55c0,0.22,0,4.599,0,5.104c0,0.33-0.022,0.595,0.858,0.925
		c0.396,0.153,0.572,0.352,0.572,0.527s-0.22,0.352-0.616,0.352c-0.726,0-1.386-0.065-1.914-0.065c-0.682,0-1.386,0.065-1.738,0.065
		c-0.396,0-0.638-0.109-0.638-0.33c0-0.219,0.264-0.396,0.484-0.461c0.968-0.309,1.1-0.572,1.122-1.057
		c0.066-1.057,0.132-2.707,0.132-4.951c0-0.352-0.22-0.594-0.77-0.924c-0.264-0.198-0.308-0.286-0.308-0.33
		C69.958,6.909,70.155,6.601,70.354,6.513z"/>
	<path fill="#111111" d="M86.81,6.029c0.154,0,0.264,0.242,0.286,0.374c0,0.242,0,0.594-0.022,0.704
		c-0.066,0.242-0.264,0.286-0.506,0.286c-0.814,0-1.98,0.022-2.486,0.022c-0.044,0-0.154,0.088-0.154,0.33l-0.066,4.005
		c-0.022,0.989,0.066,1.342,0.33,1.649c0.286,0.308,0.924,0.484,1.188,0.484c0.396,0,0.682-0.11,1.012-0.198
		c0.198-0.044,0.352-0.132,0.484-0.132c0.088,0,0.198,0.153,0.198,0.33c0,0.241-0.176,0.506-0.528,0.771
		c-0.704,0.527-1.694,0.682-2.245,0.682c-0.594,0-1.452-0.309-1.936-1.012c-0.176-0.265-0.308-0.771-0.308-1.563
		c0-1.541,0.11-2.883,0.11-4.973c0-0.242-0.066-0.264-0.682-0.352c-0.352-0.044-0.66-0.528-0.66-0.638
		c0-0.088,0.264-0.286,0.462-0.462c0.374-0.308,1.188-0.814,1.584-1.32c0.352-0.44,0.77-0.572,0.88-0.572
		c0.088,0,0.198,0.22,0.198,0.33c0,0.242-0.022,0.946-0.022,1.078c0,0.088,0.022,0.264,0.176,0.264
		C84.346,6.117,86.304,6.029,86.81,6.029z"/>
	<path fill="#111111" d="M94.576,6.689c0.44,0.396,0.748,1.43,0.748,1.893c0,0.836-0.088,1.76-0.088,4.225
		c0,0.726,0.374,1.078,0.792,1.078c0.176,0,0.572-0.11,0.748-0.198c0.088-0.044,0.198,0.176,0.198,0.352
		c0,0.088-0.154,0.507-0.198,0.572c-0.33,0.44-0.858,0.793-1.606,0.793c-0.572,0-1.276-0.221-1.562-1.365
		c0-0.021-0.176-0.131-0.22-0.109c-0.462,0.352-1.188,0.77-1.694,1.057c-0.396,0.219-0.77,0.33-1.166,0.33
		c-0.66,0-2.09-0.814-2.09-2.598c0-0.527,0.176-0.857,0.33-1.056c0.33-0.418,0.792-0.616,0.88-0.638
		c2.223-0.528,3.257-0.792,3.741-1.056c0.11-0.044,0.242-0.198,0.242-0.33c0-0.462,0-0.572,0-0.836c0-0.242,0-0.374-0.066-0.572
		c-0.308-0.858-1.254-1.232-1.936-1.232c-0.462,0-0.902,0.198-0.99,0.286c-0.088,0.11-0.176,0.418-0.22,1.078
		c-0.022,0.242-0.11,0.418-0.198,0.484c-0.11,0.088-0.506,0.176-0.638,0.176c-0.176,0-0.726-0.022-0.924-0.11
		c-0.11-0.044-0.264-0.264-0.264-0.352c0-0.375,0.638-1.056,1.584-1.716c0.836-0.55,1.848-0.99,2.597-0.99
		C93.388,5.853,93.938,6.095,94.576,6.689z M93.366,13.092c0.066-0.154,0.154-0.396,0.176-0.66l0.022-1.408
		c0-0.088-0.11-0.133-0.176-0.133c-0.638,0.11-1.915,0.418-2.354,0.572c-0.616,0.221-0.814,0.463-0.814,1.013
		c0,0.704,0.66,1.364,1.474,1.364C92.178,13.84,92.882,13.554,93.366,13.092z"/>
	<path fill="#111111" d="M103.464,6.029c0.154,0,0.264,0.242,0.286,0.374c0,0.242,0,0.594-0.022,0.704
		c-0.066,0.242-0.264,0.286-0.506,0.286c-0.814,0-1.98,0.022-2.486,0.022c-0.044,0-0.154,0.088-0.154,0.33l-0.066,4.005
		c-0.022,0.989,0.066,1.342,0.33,1.649c0.286,0.308,0.924,0.484,1.188,0.484c0.396,0,0.682-0.11,1.012-0.198
		c0.198-0.044,0.352-0.132,0.484-0.132c0.088,0,0.198,0.153,0.198,0.33c0,0.241-0.176,0.506-0.528,0.771
		c-0.704,0.527-1.694,0.682-2.245,0.682c-0.594,0-1.452-0.309-1.936-1.012c-0.176-0.265-0.308-0.771-0.308-1.563
		c0-1.541,0.11-2.883,0.11-4.973c0-0.242-0.066-0.264-0.682-0.352c-0.352-0.044-0.66-0.528-0.66-0.638
		c0-0.088,0.264-0.286,0.462-0.462c0.374-0.308,1.188-0.814,1.584-1.32c0.352-0.44,0.77-0.572,0.88-0.572
		c0.088,0,0.198,0.22,0.198,0.33c0,0.242-0.022,0.946-0.022,1.078c0,0.088,0.022,0.264,0.176,0.264
		C101,6.117,102.958,6.029,103.464,6.029z"/>
	<path fill="#111111" d="M105.905,6.557c1.1-0.396,2.002-0.726,2.376-0.726c0.088,0,0.22,0.286,0.22,0.352c0,0.814,0,2.42,0,4.026
		c0.022,2.883,0.066,3.301,0.088,3.498c0.022,0.177,0.11,0.396,0.902,0.617c0.308,0.088,0.528,0.285,0.528,0.506
		c0,0.197-0.352,0.285-0.638,0.285c-0.462,0-1.364-0.065-1.848-0.065c-1.122,0-1.54,0.065-1.848,0.065c-0.44,0-0.66-0.131-0.66-0.33
		c0-0.197,0.22-0.352,0.528-0.439c0.968-0.242,1.012-0.418,1.1-1.32c0.044-0.462,0.088-1.958,0.088-3.212
		c0-0.44,0-1.584-0.022-1.716c-0.022-0.176-0.22-0.418-0.858-0.836c-0.154-0.088-0.242-0.352-0.242-0.44
		C105.619,6.711,105.772,6.601,105.905,6.557z M108.215,1.563c0.264,0.308,0.374,0.726,0.374,0.902c0,0.88-0.77,1.254-1.166,1.254
		c-0.33,0-0.704-0.22-0.946-0.506c-0.132-0.22-0.22-0.374-0.22-0.66c0-0.726,0.506-1.254,1.276-1.254
		C107.841,1.298,108.039,1.408,108.215,1.563z"/>
	<path fill="#111111" d="M120.756,10.452c0,1.672-0.682,2.86-1.43,3.543c-0.792,0.726-1.87,1.32-3.322,1.32
		c-1.298,0-2.552-0.529-3.477-1.431c-0.946-0.925-1.298-2.267-1.298-3.257c0-1.54,0.792-2.882,1.76-3.652
		c0.726-0.616,1.937-1.122,3.081-1.122C119.106,5.853,120.734,8.427,120.756,10.452z M114.243,7.393
		c-0.22,0.242-0.902,1.232-0.902,2.904c0,1.232,0.418,2.75,1.32,3.521c0.22,0.177,0.858,0.595,1.672,0.595
		c0.528,0,1.232-0.309,1.672-0.858c0.462-0.595,0.594-1.673,0.594-2.948c0-1.871-0.99-3.829-2.86-3.829
		C115.255,6.777,114.551,7.063,114.243,7.393z"/>
	<path fill="#111111" d="M123.13,6.513c0.418-0.198,0.99-0.396,1.43-0.616c0.264-0.132,0.528-0.22,0.572-0.22
		c0.066,0,0.374,0.088,0.374,0.264c0,0.11-0.022,0.748-0.044,0.968c-0.022,0.11,0.088,0.11,0.154,0.066
		c0.682-0.462,1.738-1.122,3.125-1.122c1.122,0,1.694,0.55,2.024,1.034c0.352,0.506,0.638,1.408,0.66,2.926
		c0.022,1.078,0.022,2.31,0.066,3.3c0.022,0.639,0.176,0.836,0.572,1.034c0.506,0.198,0.66,0.419,0.66,0.616
		c0,0.221-0.352,0.352-0.638,0.352c-0.286,0-0.99-0.065-1.65-0.065c-0.638,0-1.123,0.065-1.386,0.065
		c-0.286,0-0.594-0.065-0.594-0.352c0-0.132,0.11-0.309,0.484-0.462c0.55-0.198,0.704-0.396,0.727-0.946
		c0.022-1.078,0.022-2.024,0.022-2.992c0-1.65-0.198-2.311-0.418-2.597c-0.22-0.286-0.66-0.594-1.562-0.594
		c-0.836,0-1.474,0.198-1.892,0.484c-0.044,0.044-0.264,0.286-0.264,0.55c0,0.22,0,4.599,0,5.104c0,0.33-0.022,0.595,0.858,0.925
		c0.396,0.153,0.572,0.352,0.572,0.527s-0.22,0.352-0.616,0.352c-0.726,0-1.386-0.065-1.914-0.065c-0.682,0-1.386,0.065-1.738,0.065
		c-0.396,0-0.638-0.109-0.638-0.33c0-0.219,0.264-0.396,0.484-0.461c0.968-0.309,1.1-0.572,1.122-1.057
		c0.066-1.057,0.132-2.707,0.132-4.951c0-0.352-0.22-0.594-0.77-0.924c-0.264-0.198-0.308-0.286-0.308-0.33
		C122.734,6.909,122.932,6.601,123.13,6.513z"/>
	<path fill="#111111" d="M148.255,10.452c0,1.672-0.682,2.86-1.43,3.543c-0.792,0.726-1.87,1.32-3.322,1.32
		c-1.298,0-2.552-0.529-3.477-1.431c-0.946-0.925-1.298-2.267-1.298-3.257c0-1.54,0.792-2.882,1.76-3.652
		c0.726-0.616,1.937-1.122,3.081-1.122C146.605,5.853,148.233,8.427,148.255,10.452z M141.742,7.393
		c-0.22,0.242-0.902,1.232-0.902,2.904c0,1.232,0.418,2.75,1.32,3.521c0.22,0.177,0.858,0.595,1.672,0.595
		c0.528,0,1.232-0.309,1.672-0.858c0.462-0.595,0.594-1.673,0.594-2.948c0-1.871-0.99-3.829-2.86-3.829
		C142.754,6.777,142.05,7.063,141.742,7.393z"/>
	<path fill="#111111" d="M150.211,7.305c-0.198-0.044-0.374-0.11-0.374-0.308c0-0.308,0.286-0.462,1.188-0.858
		c0.088-0.022,0.198-0.242,0.198-0.286c0-0.814,0.242-2.068,0.77-3.059c0.44-0.814,1.101-1.452,1.694-1.892
		C154.392,0.396,155.426,0,156.13,0c0.836,0,1.628,0.22,1.958,0.682c0.088,0.11,0.154,0.418,0.154,0.594
		c0,0.11-0.044,0.242-0.11,0.352c-0.176,0.352-0.66,0.616-0.88,0.616c-0.11,0-0.396-0.088-0.572-0.22
		c-0.308-0.242-1.056-0.814-1.584-0.814c-0.836,0-1.364,0.572-1.606,1.298c-0.286,0.814-0.396,2.068-0.396,3.037
		c0,0.44,0.066,0.572,0.176,0.572c0.704,0,2.376-0.066,2.53-0.066c0.264,0,0.308,0.726,0.308,0.924c0,0.044-0.242,0.418-0.374,0.418
		c-0.066,0-2.311-0.022-2.53-0.022c-0.11,0-0.198,0.11-0.198,0.66c0,1.87,0.066,3.102,0.11,4.84
		c0.022,1.035,0.264,1.188,1.408,1.365c0.374,0.065,0.66,0.285,0.66,0.439c0,0.264-0.286,0.439-0.726,0.439
		c-0.286,0-1.1-0.065-2.332-0.065c-0.242,0-1.012,0.065-1.628,0.065c-0.462,0-0.704-0.153-0.704-0.396c0-0.198,0.22-0.308,0.55-0.44
		c0.572-0.242,0.814-0.506,0.836-0.902c0.022-0.352,0.066-2.046,0.066-5.632c0-0.11-0.132-0.286-0.176-0.286L150.211,7.305z"/>
	<path fill="#111111" d="M167.195,6.029c0.154,0,0.264,0.242,0.286,0.374c0,0.242,0,0.594-0.022,0.704
		c-0.066,0.242-0.264,0.286-0.506,0.286c-0.814,0-1.98,0.022-2.486,0.022c-0.044,0-0.154,0.088-0.154,0.33l-0.066,4.005
		c-0.022,0.989,0.066,1.342,0.33,1.649c0.286,0.308,0.924,0.484,1.188,0.484c0.396,0,0.682-0.11,1.012-0.198
		c0.198-0.044,0.352-0.132,0.484-0.132c0.088,0,0.198,0.153,0.198,0.33c0,0.241-0.176,0.506-0.528,0.771
		c-0.704,0.527-1.694,0.682-2.245,0.682c-0.594,0-1.452-0.309-1.936-1.012c-0.176-0.265-0.308-0.771-0.308-1.563
		c0-1.541,0.11-2.883,0.11-4.973c0-0.242-0.066-0.264-0.682-0.352c-0.352-0.044-0.66-0.528-0.66-0.638
		c0-0.088,0.264-0.286,0.462-0.462c0.374-0.308,1.188-0.814,1.584-1.32c0.352-0.44,0.77-0.572,0.88-0.572
		c0.088,0,0.198,0.22,0.198,0.33c0,0.242-0.022,0.946-0.022,1.078c0,0.088,0.022,0.264,0.176,0.264
		C164.731,6.117,166.689,6.029,167.195,6.029z"/>
	<path fill="#111111" d="M177.184,6.843c0.528,0.572,0.814,1.782,0.814,2.948c0,0.704,0.065,3.213,0.065,3.543
		c0,0.483,0.088,0.682,0.792,0.924c0.353,0.109,0.551,0.309,0.551,0.506c0,0.286-0.396,0.352-0.639,0.352
		c-0.594,0-1.012-0.065-1.628-0.065c-0.462,0-1.012,0.065-1.606,0.065c-0.374,0-0.66-0.131-0.66-0.352
		c0-0.132,0.154-0.286,0.506-0.418c0.726-0.242,0.858-0.418,0.858-1.21c0-0.528,0.022-2.861,0-3.829
		c-0.021-0.638-0.176-1.123-0.462-1.497c-0.308-0.374-1.034-0.748-1.672-0.748c-1.012,0-1.518,0.22-1.958,0.638
		c-0.066,0.044-0.242,0.418-0.242,0.528c0,0.462,0,4.951,0.044,5.457c0,0.154,0.22,0.374,0.748,0.639
		c0.264,0.109,0.44,0.22,0.44,0.33c0,0.242-0.242,0.461-0.572,0.461c-0.396,0-1.078-0.065-1.672-0.065
		c-0.572,0-1.386,0.065-1.76,0.065c-0.44,0-0.638-0.153-0.638-0.352c0-0.242,0.22-0.352,0.572-0.462
		c0.638-0.198,0.924-0.44,0.968-0.925c0.044-0.418,0.132-1.231,0.132-6.05c0-3.014-0.044-3.938-0.088-4.555
		c-0.044-0.528-0.154-0.682-0.528-0.88c-0.352-0.22-0.484-0.44-0.484-0.55c0-0.22,0.22-0.374,0.462-0.44
		c0.308-0.088,1.034-0.374,1.541-0.594c0.308-0.11,0.462-0.176,0.66-0.176c0.088,0,0.242,0.154,0.242,1.012
		c0,0.792-0.066,4.533-0.066,5.523c0,0.154,0.11,0.22,0.154,0.198c0.242-0.154,0.836-0.55,1.475-0.792
		c0.462-0.176,0.836-0.22,1.408-0.22C176.172,5.853,176.787,6.381,177.184,6.843z"/>
	<path fill="#111111" d="M188.228,7.173c0.286,0.418,0.374,0.99,0.374,1.54c0,0.242-0.374,0.66-0.595,0.66
		c-0.153,0-4.334,0.066-4.73,0.066c-0.065,0-0.308,0.132-0.352,0.242c-0.089,0.154-0.11,0.55-0.11,0.682
		c0,1.958,1.475,3.454,3.366,3.454c0.858,0,1.805-0.55,2.223-0.836c0.088-0.065,0.264,0.044,0.264,0.286s-0.109,0.484-0.286,0.682
		c-0.813,0.858-1.979,1.365-3.146,1.365c-2.75,0-4.313-1.871-4.313-4.555c0-1.783,0.814-3.301,2.135-4.159
		c0.726-0.484,1.65-0.748,2.574-0.748C186.687,5.853,187.699,6.315,188.228,7.173z M183.078,8.427
		c-0.021,0.088,0.088,0.22,0.133,0.22c0.241,0.022,0.968,0.044,1.605,0.044c0.836,0,1.849-0.044,1.849-0.792
		c0-0.66-0.528-1.254-1.694-1.254C184.421,6.645,183.364,7.327,183.078,8.427z"/>
	<path fill="#111111" d="M209.876,8.273c0,2.333-1.232,4.885-3.652,6.249c-0.946,0.528-2.267,0.924-3.675,0.924
		c-4.114,0-7.305-3.189-7.305-7.063c0-1.716,0.682-3.564,1.979-4.885c1.343-1.342,3.367-2.288,5.325-2.288
		C206.619,1.21,209.876,4.159,209.876,8.273z M199.271,3.411c-0.946,0.99-1.628,2.508-1.628,4.708c0,3.081,2.046,6.381,5.412,6.381
		c0.99,0,1.98-0.33,2.707-1.012c0.88-0.837,1.693-2.443,1.693-5.127c0-3.125-2.046-6.227-5.303-6.227
		C201.097,2.134,199.931,2.772,199.271,3.411z"/>
	<path fill="#111111" d="M212.271,6.667c0.353-0.198,1.034-0.506,1.496-0.748c0.286-0.132,0.463-0.22,0.639-0.22
		c0.088,0,0.264,0.242,0.264,0.308c0.022,0.308,0.022,0.748,0.044,1.078c0,0.066,0.154,0.154,0.221,0.066
		c0.638-0.704,1.518-1.298,2.376-1.298c0.638,0,1.21,0.44,1.21,0.682c0,0.484-0.572,1.1-0.88,1.342
		c-0.11,0.11-0.264,0.176-0.353,0.176c-0.153,0-0.286-0.066-0.506-0.22c-0.176-0.132-0.506-0.264-0.792-0.264
		c-0.396,0-0.726,0.132-1.012,0.506c-0.088,0.11-0.198,0.374-0.198,0.506c0,0.22-0.022,3.388,0.044,4.158
		c0.066,1.034,0.242,1.255,1.232,1.519c0.506,0.132,0.792,0.309,0.792,0.506c0,0.176-0.286,0.374-0.55,0.374
		c-0.683,0-1.805-0.088-2.442-0.088c-0.771,0-1.167,0.065-1.782,0.065c-0.396,0-0.595-0.241-0.595-0.352
		c0-0.242,0.242-0.374,0.506-0.462c0.858-0.308,0.925-0.638,0.946-1.144c0.044-0.99,0.066-3.697,0.066-4.863
		c0-0.132-0.022-0.286-0.55-0.66c-0.242-0.176-0.484-0.374-0.484-0.506C211.964,6.931,212.096,6.755,212.271,6.667z"/>
	<path fill="#111111" d="M220.191,6.557c1.1-0.396,2.002-0.726,2.376-0.726c0.088,0,0.22,0.286,0.22,0.352c0,0.814,0,2.42,0,4.026
		c0.022,2.883,0.066,3.301,0.089,3.498c0.021,0.177,0.109,0.396,0.901,0.617c0.309,0.088,0.528,0.285,0.528,0.506
		c0,0.197-0.352,0.285-0.638,0.285c-0.462,0-1.364-0.065-1.849-0.065c-1.122,0-1.54,0.065-1.849,0.065
		c-0.439,0-0.659-0.131-0.659-0.33c0-0.197,0.22-0.352,0.527-0.439c0.969-0.242,1.013-0.418,1.101-1.32
		c0.044-0.462,0.088-1.958,0.088-3.212c0-0.44,0-1.584-0.022-1.716c-0.021-0.176-0.22-0.418-0.857-0.836
		c-0.154-0.088-0.242-0.352-0.242-0.44C219.905,6.711,220.06,6.601,220.191,6.557z M222.502,1.563
		c0.264,0.308,0.374,0.726,0.374,0.902c0,0.88-0.771,1.254-1.167,1.254c-0.33,0-0.704-0.22-0.945-0.506
		c-0.133-0.22-0.221-0.374-0.221-0.66c0-0.726,0.507-1.254,1.276-1.254C222.128,1.298,222.325,1.408,222.502,1.563z"/>
	<path fill="#111111" d="M232.908,7.173c0.286,0.418,0.374,0.99,0.374,1.54c0,0.242-0.374,0.66-0.595,0.66
		c-0.153,0-4.334,0.066-4.73,0.066c-0.066,0-0.308,0.132-0.352,0.242c-0.089,0.154-0.11,0.55-0.11,0.682
		c0,1.958,1.475,3.454,3.366,3.454c0.858,0,1.805-0.55,2.223-0.836c0.088-0.065,0.264,0.044,0.264,0.286s-0.109,0.484-0.286,0.682
		c-0.813,0.858-1.979,1.365-3.146,1.365c-2.75,0-4.313-1.871-4.313-4.555c0-1.783,0.814-3.301,2.135-4.159
		c0.726-0.484,1.65-0.748,2.574-0.748C231.367,5.853,232.38,6.315,232.908,7.173z M227.759,8.427
		c-0.021,0.088,0.088,0.22,0.132,0.22c0.242,0.022,0.969,0.044,1.606,0.044c0.836,0,1.849-0.044,1.849-0.792
		c0-0.66-0.528-1.254-1.694-1.254C229.102,6.645,228.045,7.327,227.759,8.427z"/>
	<path fill="#111111" d="M235.722,6.513c0.419-0.198,0.99-0.396,1.431-0.616c0.264-0.132,0.528-0.22,0.572-0.22
		c0.065,0,0.374,0.088,0.374,0.264c0,0.11-0.022,0.748-0.044,0.968c-0.022,0.11,0.088,0.11,0.154,0.066
		c0.682-0.462,1.737-1.122,3.124-1.122c1.122,0,1.694,0.55,2.024,1.034c0.352,0.506,0.638,1.408,0.66,2.926
		c0.021,1.078,0.021,2.31,0.065,3.3c0.022,0.639,0.177,0.836,0.572,1.034c0.506,0.198,0.66,0.419,0.66,0.616
		c0,0.221-0.352,0.352-0.638,0.352s-0.99-0.065-1.65-0.065c-0.639,0-1.122,0.065-1.387,0.065c-0.286,0-0.594-0.065-0.594-0.352
		c0-0.132,0.11-0.309,0.484-0.462c0.55-0.198,0.704-0.396,0.726-0.946c0.022-1.078,0.022-2.024,0.022-2.992
		c0-1.65-0.198-2.311-0.418-2.597c-0.221-0.286-0.66-0.594-1.563-0.594c-0.836,0-1.475,0.198-1.893,0.484
		c-0.044,0.044-0.264,0.286-0.264,0.55c0,0.22,0,4.599,0,5.104c0,0.33-0.022,0.595,0.858,0.925c0.396,0.153,0.571,0.352,0.571,0.527
		s-0.22,0.352-0.615,0.352c-0.727,0-1.387-0.065-1.915-0.065c-0.682,0-1.386,0.065-1.738,0.065c-0.396,0-0.638-0.109-0.638-0.33
		c0-0.219,0.264-0.396,0.484-0.461c0.968-0.309,1.1-0.572,1.122-1.057c0.065-1.057,0.132-2.707,0.132-4.951
		c0-0.352-0.22-0.594-0.771-0.924c-0.264-0.198-0.308-0.286-0.308-0.33C235.326,6.909,235.524,6.601,235.722,6.513z"/>
	<path fill="#111111" d="M252.18,6.029c0.153,0,0.264,0.242,0.286,0.374c0,0.242,0,0.594-0.022,0.704
		c-0.066,0.242-0.264,0.286-0.506,0.286c-0.814,0-1.98,0.022-2.486,0.022c-0.044,0-0.154,0.088-0.154,0.33l-0.065,4.005
		c-0.022,0.989,0.065,1.342,0.329,1.649c0.286,0.308,0.925,0.484,1.188,0.484c0.396,0,0.683-0.11,1.013-0.198
		c0.197-0.044,0.352-0.132,0.483-0.132c0.088,0,0.198,0.153,0.198,0.33c0,0.241-0.176,0.506-0.528,0.771
		c-0.704,0.527-1.694,0.682-2.244,0.682c-0.594,0-1.452-0.309-1.937-1.012c-0.176-0.265-0.308-0.771-0.308-1.563
		c0-1.541,0.11-2.883,0.11-4.973c0-0.242-0.066-0.264-0.683-0.352c-0.352-0.044-0.66-0.528-0.66-0.638
		c0-0.088,0.265-0.286,0.462-0.462c0.374-0.308,1.188-0.814,1.585-1.32c0.352-0.44,0.77-0.572,0.88-0.572
		c0.088,0,0.198,0.22,0.198,0.33c0,0.242-0.022,0.946-0.022,1.078c0,0.088,0.022,0.264,0.176,0.264
		C249.715,6.117,251.674,6.029,252.18,6.029z"/>
	<path fill="#111111" d="M258.712,6.557c1.1-0.396,2.002-0.726,2.376-0.726c0.088,0,0.221,0.286,0.221,0.352c0,0.814,0,2.42,0,4.026
		c0.021,2.883,0.065,3.301,0.088,3.498c0.021,0.177,0.109,0.396,0.901,0.617c0.309,0.088,0.528,0.285,0.528,0.506
		c0,0.197-0.352,0.285-0.638,0.285c-0.462,0-1.364-0.065-1.849-0.065c-1.122,0-1.54,0.065-1.848,0.065c-0.44,0-0.66-0.131-0.66-0.33
		c0-0.197,0.22-0.352,0.527-0.439c0.969-0.242,1.013-0.418,1.101-1.32c0.044-0.462,0.088-1.958,0.088-3.212
		c0-0.44,0-1.584-0.022-1.716c-0.021-0.176-0.22-0.418-0.857-0.836c-0.154-0.088-0.242-0.352-0.242-0.44
		C258.426,6.711,258.58,6.601,258.712,6.557z M261.022,1.563c0.264,0.308,0.374,0.726,0.374,0.902c0,0.88-0.771,1.254-1.167,1.254
		c-0.329,0-0.704-0.22-0.945-0.506c-0.133-0.22-0.221-0.374-0.221-0.66c0-0.726,0.507-1.254,1.276-1.254
		C260.648,1.298,260.846,1.408,261.022,1.563z"/>
	<path fill="#111111" d="M264.85,6.513c0.419-0.198,0.99-0.396,1.431-0.616c0.264-0.132,0.528-0.22,0.572-0.22
		c0.065,0,0.374,0.088,0.374,0.264c0,0.11-0.022,0.748-0.044,0.968c-0.022,0.11,0.088,0.11,0.153,0.066
		c0.683-0.462,1.738-1.122,3.125-1.122c1.122,0,1.694,0.55,2.024,1.034c0.352,0.506,0.638,1.408,0.66,2.926
		c0.021,1.078,0.021,2.31,0.065,3.3c0.022,0.639,0.177,0.836,0.572,1.034c0.506,0.198,0.66,0.419,0.66,0.616
		c0,0.221-0.352,0.352-0.638,0.352s-0.99-0.065-1.65-0.065c-0.639,0-1.122,0.065-1.387,0.065c-0.286,0-0.594-0.065-0.594-0.352
		c0-0.132,0.11-0.309,0.484-0.462c0.55-0.198,0.704-0.396,0.726-0.946c0.022-1.078,0.022-2.024,0.022-2.992
		c0-1.65-0.198-2.311-0.418-2.597c-0.221-0.286-0.66-0.594-1.563-0.594c-0.836,0-1.475,0.198-1.893,0.484
		c-0.044,0.044-0.264,0.286-0.264,0.55c0,0.22,0,4.599,0,5.104c0,0.33-0.022,0.595,0.858,0.925c0.396,0.153,0.571,0.352,0.571,0.527
		s-0.22,0.352-0.615,0.352c-0.727,0-1.387-0.065-1.915-0.065c-0.682,0-1.386,0.065-1.738,0.065c-0.396,0-0.638-0.109-0.638-0.33
		c0-0.219,0.264-0.396,0.484-0.461c0.968-0.309,1.1-0.572,1.122-1.057c0.065-1.057,0.132-2.707,0.132-4.951
		c0-0.352-0.22-0.594-0.771-0.924c-0.264-0.198-0.308-0.286-0.308-0.33C264.454,6.909,264.652,6.601,264.85,6.513z"/>
	<path fill="#111111" d="M295.718,1.65c0,0.792-0.066,3.917-0.066,4.907c0,0.242,0.088,0.33,0.154,0.286
		c0.792-0.55,1.804-0.99,2.838-0.99c1.232,0,1.893,0.528,2.289,0.99c0.527,0.572,0.813,1.672,0.813,2.838
		c0.022,0.726,0.088,3.344,0.088,3.674c0,0.484,0.133,0.616,0.793,0.902c0.33,0.154,0.527,0.309,0.527,0.506
		c0,0.264-0.374,0.352-0.615,0.352c-0.595,0-1.034-0.065-1.65-0.065c-0.463,0-1.013,0.065-1.606,0.065
		c-0.374,0-0.639-0.109-0.639-0.33c0-0.131,0.133-0.308,0.484-0.439c0.727-0.242,0.858-0.418,0.858-1.21
		c0-0.528,0.021-2.971,0-3.939c-0.022-0.638-0.242-1.056-0.528-1.43c-0.308-0.374-0.99-0.704-1.606-0.704
		c-1.254,0-1.76,0.418-1.936,0.594c-0.133,0.132-0.265,0.396-0.265,0.506c0,0.462-0.044,4.796,0,5.303
		c0.022,0.462,0.221,0.638,0.792,0.858c0.242,0.088,0.418,0.264,0.418,0.396c0,0.265-0.241,0.396-0.55,0.396
		c-0.374,0-0.968-0.065-1.563-0.065c-0.571,0-1.518,0.065-1.892,0.065c-0.44,0-0.66-0.131-0.66-0.33
		c0-0.241,0.264-0.352,0.616-0.461c0.616-0.199,0.901-0.463,0.946-0.969c0.044-0.418,0.132-1.1,0.132-6.029
		c0-3.059,0-3.081-0.044-3.696c0-0.594-0.265-0.836-0.748-0.88c-0.33-0.044-2.597-0.088-4.467-0.088
		c-0.11,0-0.265,0.066-0.286,0.286c-0.022,0.308-0.088,1.276-0.088,2.662c0,1.342,0,5.413,0,6.579c0,1.605,0.66,1.76,1.694,2.047
		c0.418,0.109,0.638,0.241,0.638,0.506c0,0.176-0.22,0.373-0.66,0.373c-0.22,0-1.804-0.065-3.124-0.065
		c-1.343,0-1.915,0.065-2.509,0.065c-0.462,0-0.682-0.176-0.682-0.418c0-0.176,0.22-0.352,0.638-0.439
		c1.54-0.374,1.914-0.704,1.914-1.98c0-0.462,0.066-2.596,0.066-6.271c0-1.364,0-2.134,0-2.816c0-0.374-0.044-0.528-0.33-0.528
		c-0.55,0-1.387-0.022-2.179,0c-1.628,0.044-2.002,0.264-2.508,1.606c-0.132,0.374-0.309,0.616-0.507,0.616
		c-0.374,0-0.439-0.308-0.418-0.858c0.044-0.682,0.309-1.849,0.242-2.86c-0.021-0.176,0.374-0.396,0.484-0.396
		c0.066,0,0.176,0.066,0.308,0.198c0.396,0.462,0.595,0.572,1.232,0.594c0.902,0.044,1.408,0.044,2.112,0.044h8.295
		c1.145,0,1.32-0.066,1.738-0.616c0.221-0.264,0.374-0.374,0.639-0.374C295.542,0.616,295.718,1.012,295.718,1.65z"/>
	<path fill="#111111" d="M311.975,7.173c0.286,0.418,0.374,0.99,0.374,1.54c0,0.242-0.374,0.66-0.595,0.66
		c-0.153,0-4.334,0.066-4.73,0.066c-0.066,0-0.308,0.132-0.352,0.242c-0.089,0.154-0.11,0.55-0.11,0.682
		c0,1.958,1.475,3.454,3.366,3.454c0.858,0,1.805-0.55,2.223-0.836c0.088-0.065,0.264,0.044,0.264,0.286s-0.109,0.484-0.286,0.682
		c-0.813,0.858-1.979,1.365-3.146,1.365c-2.75,0-4.313-1.871-4.313-4.555c0-1.783,0.814-3.301,2.135-4.159
		c0.726-0.484,1.65-0.748,2.574-0.748C310.434,5.853,311.446,6.315,311.975,7.173z M306.825,8.427
		c-0.021,0.088,0.088,0.22,0.132,0.22c0.242,0.022,0.969,0.044,1.606,0.044c0.836,0,1.849-0.044,1.849-0.792
		c0-0.66-0.528-1.254-1.694-1.254C308.168,6.645,307.111,7.327,306.825,8.427z"/>
	<path fill="#111111" d="M318.66,1.474c0.88,0,2.574,0.132,3.234,0.132c0.109,0,0.418,0.286,0.439,0.33
		c0.221,0.374,1.057,1.408,2.112,2.552c1.167,1.254,5.303,5.984,6.14,6.755c0.065,0.065,0.197-0.044,0.22-0.153
		c0.044-0.44,0.154-4.423,0.044-6.206c-0.11-1.848-0.132-2.134-1.628-2.464c-0.528-0.11-0.616-0.352-0.616-0.484
		c0-0.154,0.198-0.352,0.66-0.352c0.88,0,0.968,0.022,1.54,0.022c0.902,0,2.046-0.132,2.486-0.132c0.462,0,0.682,0.22,0.682,0.396
		c0,0.132-0.065,0.286-0.813,0.506c-0.748,0.242-1.057,0.616-1.101,1.1c-0.065,0.704-0.198,5.347-0.198,7.481
		c0,0.969,0.044,2.442,0.044,3.455c0,0.924-0.197,1.078-0.462,1.078c-0.109,0-0.572-0.242-0.836-0.639
		c-0.55-0.792-1.694-2.244-2.311-2.926c-0.836-0.969-5.082-5.854-6.051-6.909c-0.132-0.11-0.22,0.022-0.242,0.22
		c-0.021,0.484-0.088,1.43-0.088,2.376c0,0.99,0.066,3.411,0.088,4.004c0.066,1.937,0.177,2.156,1.408,2.553
		c0.507,0.154,0.727,0.308,0.727,0.594c0,0.264-0.418,0.374-0.704,0.374c-0.616,0-1.057-0.088-1.584-0.088
		c-1.034,0-2.377,0.132-2.663,0.132c-0.352,0-0.704-0.088-0.704-0.374c0-0.198,0.198-0.374,0.595-0.483
		c1.43-0.375,1.562-0.925,1.628-1.805c0.11-1.475,0.286-7.767,0.286-8.471c0-0.286-0.154-0.616-0.748-1.167
		c-0.309-0.33-0.968-0.484-1.387-0.572c-0.352-0.044-0.66-0.308-0.66-0.55C318.197,1.584,318.374,1.474,318.66,1.474z"/>
	<path fill="#111111" d="M342.18,7.173c0.286,0.418,0.374,0.99,0.374,1.54c0,0.242-0.374,0.66-0.595,0.66
		c-0.153,0-4.334,0.066-4.73,0.066c-0.066,0-0.308,0.132-0.352,0.242c-0.089,0.154-0.11,0.55-0.11,0.682
		c0,1.958,1.475,3.454,3.366,3.454c0.858,0,1.805-0.55,2.223-0.836c0.088-0.065,0.264,0.044,0.264,0.286s-0.109,0.484-0.286,0.682
		c-0.813,0.858-1.979,1.365-3.146,1.365c-2.75,0-4.313-1.871-4.313-4.555c0-1.783,0.814-3.301,2.135-4.159
		c0.726-0.484,1.65-0.748,2.574-0.748C340.639,5.853,341.651,6.315,342.18,7.173z M337.03,8.427c-0.021,0.088,0.088,0.22,0.132,0.22
		c0.242,0.022,0.969,0.044,1.606,0.044c0.836,0,1.849-0.044,1.849-0.792c0-0.66-0.528-1.254-1.694-1.254
		C338.373,6.645,337.316,7.327,337.03,8.427z"/>
	<path fill="#111111" d="M347.479,6.073c0.264,0,0.506,0.154,0.506,0.33c0,0.154-0.088,0.33-0.527,0.462
		c-0.396,0.11-0.595,0.264-0.396,0.77c0.286,0.77,1.101,2.926,1.849,4.709c0.065,0.176,0.176,0.109,0.22,0.043
		c0.638-1.386,1.056-2.266,1.452-3.3c0.132-0.352,0.154-0.572,0.154-0.616c0-0.066-0.022-0.286-0.265-0.99
		c-0.153-0.484-0.506-0.528-0.836-0.638c-0.286-0.11-0.572-0.264-0.572-0.484c0-0.176,0.265-0.33,0.616-0.33
		c0.572,0,1.232,0.088,1.761,0.088c0.418,0,0.946-0.066,1.364-0.066c0.352,0,0.483,0.176,0.483,0.33c0,0.22-0.132,0.33-0.594,0.484
		c-0.374,0.11-0.44,0.33-0.44,0.44c0,0.132,0.044,0.308,0.177,0.726c0.109,0.374,1.166,3.125,1.584,4.268
		c0.021,0.088,0.198,0.133,0.242,0.022c0.286-0.748,1.672-4.159,1.672-4.774c0-0.242-0.154-0.462-0.748-0.682
		c-0.308-0.11-0.506-0.242-0.506-0.44c0-0.198,0.264-0.33,0.528-0.33c0.352,0,0.704,0.022,1.122,0.022
		c0.506,0,1.231-0.11,1.694-0.11c0.571,0,0.682,0.22,0.682,0.374c0,0.154-0.132,0.308-0.55,0.418
		c-0.484,0.132-0.836,0.44-1.034,0.792c-0.484,0.858-1.519,3.41-2.2,5.171c-0.374,0.99-0.704,2.135-0.814,2.354
		c-0.044,0.088-0.198,0.242-0.374,0.242s-0.462-0.176-0.572-0.373c-0.088-0.11-0.374-0.99-0.55-1.563
		c-0.198-0.683-1.034-2.795-1.298-3.411c-0.045-0.132-0.198-0.11-0.242-0.022c-0.484,1.078-1.343,2.728-1.849,4.202
		c-0.308,0.902-0.66,1.166-0.836,1.166c-0.11,0-0.418-0.22-0.462-0.396c-0.132-0.44-0.353-1.167-0.462-1.496
		c-0.66-1.827-1.849-4.775-2.157-5.523c-0.285-0.616-0.483-0.858-1.1-1.1c-0.396-0.154-0.616-0.264-0.616-0.484
		c0-0.242,0.264-0.374,0.638-0.374c0.507,0,1.694,0.132,2.179,0.132C346.709,6.117,347.149,6.073,347.479,6.073z"/>
	<path fill="#111111" d="M363.649,1.497c0.439,0,1.54,0.11,2.2,0.11c0.924,0,1.87-0.088,2.244-0.088
		c0.286,0,0.594,0.132,0.594,0.374c0,0.22-0.153,0.352-0.682,0.484c-0.594,0.154-0.506,0.374-0.264,0.858
		c0.726,1.475,2.354,4.357,2.574,4.621c0.109,0.132,0.154,0.11,0.264,0.022c0.198-0.132,2.2-3.542,2.53-4.225
		c0.418-0.858,0.44-1.056-0.418-1.298c-0.352-0.11-0.528-0.286-0.528-0.44c0-0.242,0.242-0.374,0.727-0.374
		c0.682,0,1.386,0.066,1.65,0.066c0.616,0,1.342-0.11,1.914-0.11c0.396,0,0.616,0.176,0.616,0.374c0,0.154-0.154,0.396-0.594,0.506
		c-0.837,0.22-1.453,0.506-2.157,1.43c-0.945,1.254-2.86,4.291-3.146,4.951c-0.132,0.308-0.197,0.748-0.241,1.21
		c-0.066,0.792-0.022,2.619-0.022,3.3c0.044,0.374,0.198,0.66,1.65,0.99c0.33,0.066,0.484,0.309,0.484,0.462
		c0,0.22-0.265,0.396-0.727,0.396c-0.352,0-1.386-0.065-2.244-0.065c-0.902,0-2.267,0.088-2.685,0.088
		c-0.396,0-0.616-0.153-0.616-0.396c0-0.287,0.374-0.396,0.771-0.506c0.88-0.265,1.232-0.463,1.32-1.98
		c0.044-0.727,0.021-2.003,0.021-2.443c0-0.374-0.109-0.66-0.418-1.298c-0.594-1.232-2.332-4.18-2.927-4.973
		c-0.308-0.418-0.77-0.814-1.914-1.21c-0.506-0.154-0.594-0.33-0.594-0.462C363.033,1.606,363.363,1.497,363.649,1.497z"/>
	<path fill="#111111" d="M384.902,10.452c0,1.672-0.682,2.86-1.43,3.543c-0.793,0.726-1.871,1.32-3.323,1.32
		c-1.298,0-2.552-0.529-3.477-1.431c-0.945-0.925-1.298-2.267-1.298-3.257c0-1.54,0.792-2.882,1.761-3.652
		c0.726-0.616,1.936-1.122,3.08-1.122C383.252,5.853,384.881,8.427,384.902,10.452z M378.39,7.393
		c-0.22,0.242-0.902,1.232-0.902,2.904c0,1.232,0.418,2.75,1.32,3.521c0.22,0.177,0.858,0.595,1.672,0.595
		c0.528,0,1.232-0.309,1.673-0.858c0.462-0.595,0.594-1.673,0.594-2.948c0-1.871-0.99-3.829-2.86-3.829
		C379.401,6.777,378.697,7.063,378.39,7.393z"/>
	<path fill="#111111" d="M387.145,6.667c0.353-0.198,1.034-0.506,1.496-0.748c0.286-0.132,0.463-0.22,0.639-0.22
		c0.088,0,0.264,0.242,0.264,0.308c0.022,0.308,0.022,0.748,0.044,1.078c0,0.066,0.154,0.154,0.221,0.066
		c0.638-0.704,1.518-1.298,2.376-1.298c0.638,0,1.21,0.44,1.21,0.682c0,0.484-0.572,1.1-0.88,1.342
		c-0.11,0.11-0.264,0.176-0.353,0.176c-0.153,0-0.286-0.066-0.506-0.22c-0.176-0.132-0.506-0.264-0.792-0.264
		c-0.396,0-0.726,0.132-1.012,0.506c-0.088,0.11-0.198,0.374-0.198,0.506c0,0.22-0.022,3.388,0.044,4.158
		c0.066,1.034,0.242,1.255,1.232,1.519c0.506,0.132,0.792,0.309,0.792,0.506c0,0.176-0.286,0.374-0.55,0.374
		c-0.683,0-1.805-0.088-2.442-0.088c-0.771,0-1.167,0.065-1.782,0.065c-0.396,0-0.595-0.241-0.595-0.352
		c0-0.242,0.242-0.374,0.506-0.462c0.858-0.308,0.925-0.638,0.946-1.144c0.044-0.99,0.066-3.697,0.066-4.863
		c0-0.132-0.022-0.286-0.55-0.66c-0.242-0.176-0.484-0.374-0.484-0.506C386.837,6.931,386.969,6.755,387.145,6.667z"/>
	<path fill="#111111" d="M401.379,6.095c0.881,0,1.959-0.11,2.398-0.11c0.396,0,0.66,0.176,0.66,0.352
		c0,0.198-0.264,0.352-0.528,0.418c-0.901,0.242-1.275,0.375-2.09,1.012c-0.616,0.418-1.254,1.056-1.98,1.606
		c-0.11,0.088-0.044,0.198,0,0.286c0.902,1.21,2.332,2.816,2.706,3.257c0.44,0.483,1.123,1.121,1.606,1.298
		c0.616,0.241,0.858,0.374,0.858,0.571c0,0.221-0.286,0.33-0.748,0.33c-0.66,0-1.32-0.065-2.421-0.065
		c-0.308,0-0.726,0.022-0.968,0.022c-0.352,0-0.484-0.221-0.484-0.33c0-0.198,0.11-0.309,0.551-0.463
		c0.264-0.088,0.242-0.308,0.109-0.506c-0.264-0.396-1.672-2.023-2.112-2.574c-0.418-0.484-0.55-0.639-0.77-0.639
		c-0.066,0-0.242,0.066-0.374,0.154c-0.11,0.066-0.11,0.176-0.11,0.309c0,0.792-0.022,1.496,0,2.068
		c0.022,1.012,0.418,1.056,0.858,1.232c0.286,0.109,0.506,0.153,0.506,0.33c0,0.153-0.198,0.461-0.594,0.461
		c-0.396,0-1.101-0.065-1.65-0.065c-0.572,0-1.276,0.065-1.694,0.065c-0.33,0-0.704-0.109-0.704-0.33
		c0-0.153,0.132-0.33,0.616-0.483c0.704-0.22,0.748-0.507,0.792-1.078c0.044-0.374,0.132-6.205,0.132-8.185
		c0-1.76,0-2.245-0.021-2.464c0-0.484-0.11-0.704-0.66-1.012c-0.198-0.11-0.419-0.264-0.419-0.352c0-0.176,0.242-0.418,0.44-0.484
		c0.309-0.088,1.078-0.264,1.628-0.418c0.286-0.066,0.507-0.176,0.639-0.176s0.242,0.264,0.242,0.396
		c-0.022,0.66-0.133,5.721-0.133,6.975c0,0.946,0.022,0.88,0.022,1.54c-0.022,0.77,0.044,0.924,0.242,0.924
		c0.11,0,0.462-0.198,0.748-0.44c0.704-0.594,1.606-1.54,2.046-2.002c0.286-0.352,0.221-0.506-0.197-0.638
		c-0.33-0.088-0.572-0.198-0.572-0.352c0-0.22,0.264-0.44,0.55-0.44H401.379z"/>
	<path fill="#111111" d="M421.422,1.606c1.232,0,1.628-0.066,1.826-0.264c0.242-0.198,0.396-0.352,0.528-0.352
		c0.066,0,0.418,0.264,0.418,0.418c0,0.154-0.264,1.43-0.264,2.905c0,0.308-0.221,0.616-0.462,0.616
		c-0.242,0-0.375-0.308-0.419-0.506c-0.308-1.386-0.748-1.606-1.342-1.672c-0.33-0.044-1.342-0.088-3.213-0.088
		c-0.088,0-0.264,0.154-0.285,0.286c-0.066,0.594-0.11,3.256-0.11,4.643c0,1.342,0,3.366,0.088,4.62
		c0.11,1.584,0.484,1.629,1.584,2.068c0.396,0.154,0.639,0.242,0.639,0.506c0,0.177-0.221,0.375-0.66,0.375
		c-0.221,0-1.826-0.11-3.146-0.11c-1.299,0-1.849,0.065-2.442,0.065c-0.462,0-0.683-0.176-0.683-0.418
		c0-0.176,0.221-0.33,0.616-0.439c1.563-0.418,1.937-0.484,1.937-1.98c0-0.462,0.066-2.75,0.066-6.227c0-1.364,0-2.2,0-2.882
		c0-0.264-0.154-0.506-0.221-0.506c-0.55,0-2.86-0.022-3.146-0.022c-0.33,0-0.924,0.264-1.43,1.628
		c-0.132,0.374-0.33,0.616-0.506,0.616c-0.353,0-0.44-0.308-0.419-0.836c0.044-0.682,0.221-1.65,0.154-2.685
		c-0.021-0.198,0.374-0.396,0.462-0.396c0.066,0,0.198,0.066,0.33,0.198c0.33,0.286,0.572,0.374,1.21,0.396
		c0.902,0.044,0.704,0.044,1.408,0.044H421.422z"/>
	<path fill="#111111" d="M426.15,6.557c1.1-0.396,2.002-0.726,2.376-0.726c0.088,0,0.22,0.286,0.22,0.352c0,0.814,0,2.42,0,4.026
		c0.022,2.883,0.066,3.301,0.089,3.498c0.021,0.177,0.109,0.396,0.901,0.617c0.309,0.088,0.528,0.285,0.528,0.506
		c0,0.197-0.352,0.285-0.638,0.285c-0.462,0-1.364-0.065-1.849-0.065c-1.122,0-1.54,0.065-1.849,0.065
		c-0.439,0-0.659-0.131-0.659-0.33c0-0.197,0.22-0.352,0.527-0.439c0.969-0.242,1.013-0.418,1.101-1.32
		c0.044-0.462,0.088-1.958,0.088-3.212c0-0.44,0-1.584-0.022-1.716c-0.021-0.176-0.22-0.418-0.857-0.836
		c-0.154-0.088-0.242-0.352-0.242-0.44C425.864,6.711,426.019,6.601,426.15,6.557z M428.461,1.563
		c0.264,0.308,0.374,0.726,0.374,0.902c0,0.88-0.771,1.254-1.167,1.254c-0.33,0-0.704-0.22-0.945-0.506
		c-0.133-0.22-0.221-0.374-0.221-0.66c0-0.726,0.507-1.254,1.276-1.254C428.087,1.298,428.284,1.408,428.461,1.563z"/>
	<path fill="#111111" d="M432.441,6.689c0.484-0.198,0.969-0.396,1.694-0.858c0.154-0.11,0.198-0.132,0.242-0.132
		c0.154,0,0.352,0.198,0.352,0.242c0,0.374,0,0.55,0,0.924c0,0.088,0.11,0.198,0.221,0.11c0.616-0.418,1.848-1.122,3.036-1.122
		c1.298,0,1.98,0.682,2.311,1.188c0.021,0.044,0.198,0.11,0.286,0.066c0.33-0.242,1.056-0.704,1.628-0.946
		c0.484-0.198,0.836-0.308,1.519-0.308c1.936,0,2.662,1.804,2.729,3.322c0.065,1.386,0.153,3.807,0.153,4.356
		c0,0.375,0.462,0.639,0.836,0.771c0.286,0.11,0.507,0.22,0.507,0.44c0,0.264-0.286,0.352-0.484,0.352
		c-0.506,0-1.188-0.044-1.694-0.044s-1.122,0.044-1.628,0.044c-0.353,0-0.616-0.197-0.616-0.374c0-0.088,0.11-0.33,0.528-0.44
		c0.55-0.154,0.704-0.484,0.704-0.968c0-1.056-0.022-2.772-0.022-3.719c-0.021-0.858-0.088-1.21-0.352-1.628
		c-0.265-0.396-0.792-0.726-1.606-0.726c-0.946,0-1.782,0.418-1.937,0.55c-0.088,0.088-0.22,0.418-0.22,0.682
		c0,3.455,0.021,4.269,0.065,4.775c0.022,0.506,0.286,0.791,0.771,0.945c0.44,0.154,0.572,0.286,0.572,0.528
		s-0.265,0.374-0.528,0.374c-0.572,0-1.276-0.044-1.849-0.044c-0.483,0-1.078,0.044-1.562,0.044c-0.353,0-0.66-0.22-0.66-0.396
		c0-0.176,0.198-0.308,0.55-0.439c0.594-0.221,0.858-0.352,0.88-1.211l0.066-4.224c0-0.44-0.309-0.924-0.33-0.968
		c-0.308-0.396-0.836-0.682-1.694-0.682s-1.452,0.286-1.893,0.594c-0.044,0.044-0.242,0.506-0.242,0.572c0,3.872,0,4.378,0.045,4.95
		c0.044,0.617,0.33,0.771,0.726,0.969c0.418,0.22,0.484,0.33,0.484,0.484c0,0.22-0.221,0.373-0.55,0.373
		c-0.528,0-1.255-0.065-1.915-0.065c-0.506,0-0.99,0.11-1.496,0.11c-0.374,0-0.616-0.176-0.616-0.375
		c0-0.197,0.198-0.33,0.528-0.461c0.858-0.353,0.946-0.529,0.968-1.232c0.044-0.814,0.089-2.597,0.089-4.621
		c0-0.22-0.11-0.506-0.484-0.792c-0.396-0.308-0.484-0.396-0.484-0.462C432.067,7.041,432.266,6.777,432.441,6.689z"/>
	<path fill="#111111" d="M456.665,7.173c0.286,0.418,0.374,0.99,0.374,1.54c0,0.242-0.374,0.66-0.595,0.66
		c-0.153,0-4.334,0.066-4.73,0.066c-0.065,0-0.308,0.132-0.352,0.242c-0.089,0.154-0.11,0.55-0.11,0.682
		c0,1.958,1.475,3.454,3.366,3.454c0.858,0,1.805-0.55,2.223-0.836c0.088-0.065,0.264,0.044,0.264,0.286s-0.109,0.484-0.286,0.682
		c-0.813,0.858-1.979,1.365-3.146,1.365c-2.75,0-4.313-1.871-4.313-4.555c0-1.783,0.814-3.301,2.135-4.159
		c0.726-0.484,1.65-0.748,2.574-0.748C455.124,5.853,456.137,6.315,456.665,7.173z M451.516,8.427
		c-0.021,0.088,0.088,0.22,0.133,0.22c0.241,0.022,0.968,0.044,1.605,0.044c0.836,0,1.849-0.044,1.849-0.792
		c0-0.66-0.528-1.254-1.694-1.254C452.858,6.645,451.802,7.327,451.516,8.427z"/>
	<path fill="#111111" d="M463.55,6.029c0.242,0.066,0.506,0.132,0.704,0.198c0.11,0.044,0.352,0.352,0.374,0.44
		c0.044,0.132,0.044,0.968,0.044,1.21c0,0.154-0.176,0.638-0.484,0.638c-0.088,0-0.285-0.198-0.483-0.594
		c-0.484-0.902-1.21-1.276-1.673-1.276c-0.506,0-1.275,0.484-1.275,1.298c0,1.078,0.945,1.364,2.09,1.958
		c1.145,0.594,2.112,1.277,2.112,2.575c0,1.254-0.814,2.046-1.65,2.421c-0.638,0.307-1.342,0.418-1.893,0.418
		c-1.342,0-2.002-0.309-2.244-0.551c-0.22-0.22-0.439-1.188-0.439-1.584c0-0.572,0.153-0.727,0.396-0.727
		c0.132,0,0.286,0.154,0.572,0.594c0.638,0.99,1.408,1.408,2.002,1.408c0.99,0,1.541-0.66,1.541-1.363
		c0-0.418-0.242-0.881-0.793-1.232c-0.594-0.352-1.078-0.594-1.738-0.969c-0.726-0.418-1.584-1.1-1.584-2.398
		c0-1.056,0.595-1.672,1.122-2.068c0.507-0.33,1.431-0.572,1.915-0.572C462.735,5.853,463.242,5.919,463.55,6.029z"/>
</g>
</svg>
