<?xml version="1.0" encoding="utf-8"?>
<!-- Generator: Adobe Illustrator 16.0.0, SVG Export Plug-In . SVG Version: 6.00 Build 0)  -->
<!DOCTYPE svg PUBLIC "-//W3C//DTD SVG 1.1//EN" "http://www.w3.org/Graphics/SVG/1.1/DTD/svg11.dtd">
<svg version="1.1" id="Layer_1" xmlns="http://www.w3.org/2000/svg" xmlns:xlink="http://www.w3.org/1999/xlink" x="0px" y="0px"
	 width="84.381px" height="43.234px" viewBox="0 0 84.381 43.234" enable-background="new 0 0 84.381 43.234" xml:space="preserve">
<g>
	<path fill="#FFFFFF" d="M13.108,0c2.398,0,4.316,1.932,4.316,4.33s-1.918,4.306-4.316,4.306c-2.399,0-4.307-1.906-4.307-4.306
		C8.801,1.931,10.708,0,13.108,0z M13.108,7.795c1.906,0,3.478-1.559,3.478-3.465c0-1.908-1.571-3.49-3.478-3.49
		c-1.908,0-3.467,1.582-3.467,3.49C9.641,6.236,11.2,7.795,13.108,7.795z"/>
	<path fill="#FFFFFF" d="M19.265,0.348c0-0.12,0.097-0.229,0.228-0.229H22.6c1.438,0,2.613,1.128,2.613,2.555
		c0,1.104-0.73,2.027-1.774,2.447l1.644,3.047c0.084,0.155,0,0.349-0.204,0.349h-0.612c-0.107,0-0.168-0.062-0.191-0.108
		L22.48,5.229h-2.29v3.059c0,0.12-0.108,0.229-0.228,0.229h-0.469c-0.131,0-0.228-0.108-0.228-0.229V0.348z M22.54,4.438
		c0.924,0,1.727-0.769,1.727-1.751c0-0.911-0.803-1.691-1.727-1.691h-2.326v3.442H22.54z"/>
	<path fill="#FFFFFF" d="M27.198,0.348c0-0.12,0.107-0.229,0.228-0.229h0.479c0.12,0,0.229,0.108,0.229,0.229v7.938
		c0,0.12-0.108,0.229-0.229,0.229h-0.479c-0.12,0-0.228-0.108-0.228-0.229V0.348z"/>
	<path fill="#FFFFFF" d="M30.581,0.348c0-0.12,0.097-0.229,0.229-0.229h4.726c0.132,0,0.228,0.108,0.228,0.229v0.348
		c0,0.12-0.096,0.229-0.228,0.229h-4.03V3.85h3.442c0.12,0,0.228,0.106,0.228,0.229v0.349c0,0.131-0.107,0.228-0.228,0.228h-3.442
		v3.058h4.03c0.132,0,0.228,0.108,0.228,0.229V8.29c0,0.12-0.096,0.229-0.228,0.229H30.81c-0.132,0-0.229-0.108-0.229-0.229V0.348z"
		/>
	<path fill="#FFFFFF" d="M37.685,0.216C37.685,0.096,37.793,0,37.913,0h0.301l5.408,6.74c0.012,0,0.012,0,0.023,0V0.348
		c0-0.12,0.097-0.229,0.229-0.229h0.42c0.12,0,0.229,0.108,0.229,0.229V8.42c0,0.119-0.107,0.216-0.229,0.216h-0.216l-5.505-6.872
		h-0.012v6.523c0,0.12-0.096,0.229-0.229,0.229h-0.42c-0.119,0-0.228-0.108-0.228-0.229L37.685,0.216L37.685,0.216z"/>
	<path fill="#FFFFFF" d="M48.161,0.924h-2.088c-0.131,0-0.229-0.107-0.229-0.229V0.348c0-0.12,0.098-0.229,0.229-0.229h5.086
		c0.132,0,0.229,0.108,0.229,0.229v0.348c0,0.12-0.097,0.229-0.229,0.229h-2.088v7.363c0,0.12-0.107,0.229-0.227,0.229h-0.457
		c-0.119,0-0.228-0.108-0.228-0.229L48.161,0.924L48.161,0.924z"/>
	<path fill="#FFFFFF" d="M51.103,8.203l3.646-8.071C54.784,0.06,54.843,0,54.952,0h0.119c0.107,0,0.169,0.061,0.205,0.132
		l3.621,8.071c0.072,0.156-0.023,0.313-0.203,0.313h-0.48c-0.107,0-0.18-0.072-0.203-0.134l-0.888-1.979h-4.258l-0.876,1.979
		c-0.023,0.062-0.096,0.134-0.203,0.134h-0.48C51.125,8.516,51.03,8.359,51.103,8.203z M56.798,5.66
		c-0.587-1.307-1.163-2.626-1.751-3.934h-0.096l-1.75,3.934H56.798z"/>
	<path fill="#FFFFFF" d="M60.209,0.348c0-0.12,0.097-0.229,0.228-0.229h0.469c0.119,0,0.228,0.108,0.228,0.229v7.362h3.454
		c0.133,0,0.229,0.108,0.229,0.229v0.348c0,0.12-0.096,0.229-0.229,0.229h-4.148c-0.133,0-0.229-0.108-0.229-0.229L60.209,0.348
		L60.209,0.348z"/>
	<path fill="#FFFFFF" d="M66.101,0.348c0-0.12,0.107-0.229,0.229-0.229h0.479c0.121,0,0.229,0.108,0.229,0.229v7.938
		c0,0.12-0.108,0.229-0.229,0.229h-0.479c-0.12,0-0.229-0.108-0.229-0.229V0.348z"/>
	<path fill="#FFFFFF" d="M68.944,7.256c0.061-0.071,0.121-0.155,0.181-0.229c0.12-0.155,0.252-0.252,0.42-0.107
		c0.084,0.072,0.96,0.912,2.026,0.912c0.972,0,1.607-0.611,1.607-1.319c0-0.827-0.721-1.318-2.1-1.896
		C69.76,4.041,68.97,3.502,68.97,2.135C68.97,1.318,69.617,0,71.524,0c1.175,0,2.051,0.611,2.051,0.611
		c0.07,0.036,0.216,0.18,0.07,0.408c-0.047,0.071-0.096,0.155-0.144,0.228c-0.108,0.168-0.228,0.216-0.42,0.108
		c-0.084-0.049-0.84-0.553-1.571-0.553c-1.271,0-1.654,0.815-1.654,1.319c0,0.803,0.611,1.271,1.619,1.691
		c1.619,0.658,2.662,1.271,2.662,2.662c0,1.247-1.188,2.157-2.591,2.157c-1.415,0-2.375-0.826-2.53-0.971
		C68.92,7.58,68.801,7.484,68.944,7.256z"/>
	<path fill="#FFFFFF" d="M76.829,0.168C76.853,0.072,76.949,0,77.044,0h0.191c0.084,0,0.181,0.061,0.203,0.132l2.375,6.608
		c0.023,0,0.037,0,0.061,0l2.339-6.608C82.237,0.06,82.333,0,82.417,0h0.191c0.097,0,0.191,0.072,0.217,0.168l1.547,8.06
		c0.036,0.168-0.036,0.289-0.217,0.289h-0.479c-0.096,0-0.19-0.084-0.216-0.168L82.394,2.17c-0.013,0-0.035,0-0.049,0L80.14,8.503
		c-0.024,0.072-0.134,0.133-0.205,0.133H79.72c-0.072,0-0.182-0.061-0.205-0.133L77.285,2.17c-0.013,0-0.036,0-0.05,0l-1.043,6.179
		c-0.012,0.084-0.119,0.168-0.215,0.168h-0.479c-0.181,0-0.252-0.121-0.216-0.289L76.829,0.168z"/>
</g>
<g>
	<path fill="#FFFFFF" d="M17.871,26.449h-2.135v2.914h2.135c0.779,0,1.463-0.66,1.463-1.486
		C19.333,27.096,18.65,26.449,17.871,26.449z"/>
	<polygon fill="#FFFFFF" points="25.227,27.541 23.764,30.826 26.762,30.826 25.287,27.541 	"/>
	<path fill="#FFFFFF" d="M0,15.734v27.5h48.269v-27.5H0z M12.148,33.453c0,0.119-0.108,0.229-0.228,0.229h-0.792
		c-0.12,0-0.228-0.109-0.228-0.229v-7.938c0-0.121,0.107-0.229,0.228-0.229h0.792c0.119,0,0.228,0.107,0.228,0.229V33.453z
		 M20.45,33.334c0.084,0.154,0,0.349-0.205,0.349h-0.936c-0.096,0-0.168-0.062-0.191-0.109l-1.596-3.178h-1.811v3.059
		c0,0.119-0.107,0.229-0.228,0.229h-0.78c-0.131,0-0.227-0.109-0.227-0.229v-7.938c0-0.121,0.096-0.229,0.227-0.229h3.263
		c1.439,0,2.614,1.142,2.614,2.566c0,1.104-0.73,2.016-1.774,2.436L20.45,33.334z M28.993,33.682h-0.756
		c-0.144,0-0.228-0.072-0.275-0.181l-0.744-1.645h-3.922c-0.239,0.553-0.491,1.092-0.73,1.645c-0.037,0.082-0.133,0.181-0.276,0.181
		h-0.756c-0.18,0-0.276-0.156-0.204-0.313l3.682-8.072c0.037-0.071,0.145-0.131,0.205-0.131h0.119c0.061,0,0.168,0.06,0.204,0.131
		l3.658,8.072C29.268,33.525,29.172,33.682,28.993,33.682z M37.368,33.584c0,0.121-0.107,0.217-0.227,0.217h-0.313l-5.205-6.188
		h-0.012v5.842c0,0.119-0.096,0.229-0.229,0.229h-0.756c-0.119,0-0.227-0.109-0.227-0.229v-8.072c0-0.118,0.107-0.215,0.227-0.215
		h0.301l5.205,6.021h0.012v-5.672c0-0.121,0.096-0.229,0.229-0.229h0.768c0.119,0,0.227,0.107,0.227,0.229V33.584z"/>
</g>
</svg>
